<mxfile host="app.diagrams.net" modified="2023-12-04T23:09:14.555Z" agent="Mozilla/5.0 (Windows NT 10.0; Win64; x64) AppleWebKit/537.36 (KHTML, like Gecko) Chrome/119.0.0.0 Safari/537.36" etag="ks-tjn32e6SreP25NCEg" version="22.1.5" type="github">
  <diagram name="Page-1" id="e3a06f82-3646-2815-327d-82caf3d4e204">
    <mxGraphModel dx="2333" dy="1289" grid="1" gridSize="10" guides="1" tooltips="1" connect="1" arrows="1" fold="1" page="1" pageScale="1.5" pageWidth="3300" pageHeight="2339" background="none" math="0" shadow="0">
      <root>
        <mxCell id="0" style=";html=1;" />
        <mxCell id="1" style=";html=1;" parent="0" />
        <mxCell id="hJDzLai_UrfbL94a5cmA-79" value="" style="shape=ext;double=1;rounded=1;whiteSpace=wrap;html=1;fillColor=#fff2cc;strokeColor=#d6b656;" parent="1" vertex="1">
          <mxGeometry x="280" y="210" width="1200" height="1270" as="geometry" />
        </mxCell>
        <mxCell id="6a7d8f32e03d9370-57" value="&lt;font style=&quot;font-size: 20px;&quot;&gt;&lt;b&gt;DMZ&lt;/b&gt;&lt;/font&gt;" style="whiteSpace=wrap;html=1;fillColor=#FFD470;gradientColor=none;fontSize=14;strokeColor=none;verticalAlign=top;" parent="1" vertex="1">
          <mxGeometry x="1133.5" y="472.5" width="328" height="450" as="geometry" />
        </mxCell>
        <mxCell id="hJDzLai_UrfbL94a5cmA-51" style="edgeStyle=orthogonalEdgeStyle;rounded=0;orthogonalLoop=1;jettySize=auto;html=1;entryX=0.5;entryY=0;entryDx=0;entryDy=0;endArrow=none;endFill=0;exitX=0.464;exitY=0.953;exitDx=0;exitDy=0;exitPerimeter=0;" parent="1" source="RiVhKGQ44bodc8hM81Xa-62" target="hJDzLai_UrfbL94a5cmA-37" edge="1">
          <mxGeometry relative="1" as="geometry">
            <mxPoint x="864.5" y="640" as="sourcePoint" />
            <Array as="points">
              <mxPoint x="865" y="625" />
              <mxPoint x="865" y="820" />
            </Array>
          </mxGeometry>
        </mxCell>
        <mxCell id="hJDzLai_UrfbL94a5cmA-33" style="edgeStyle=orthogonalEdgeStyle;rounded=0;orthogonalLoop=1;jettySize=auto;html=1;exitX=0.06;exitY=0.5;exitDx=0;exitDy=0;exitPerimeter=0;startArrow=none;startFill=0;endArrow=none;endFill=0;" parent="1" source="hJDzLai_UrfbL94a5cmA-4" edge="1" target="hJDzLai_UrfbL94a5cmA-30">
          <mxGeometry relative="1" as="geometry">
            <mxPoint x="905.5" y="75" as="sourcePoint" />
            <mxPoint x="1095.6000000000004" y="60" as="targetPoint" />
            <Array as="points">
              <mxPoint x="748" y="60" />
            </Array>
          </mxGeometry>
        </mxCell>
        <mxCell id="hJDzLai_UrfbL94a5cmA-34" style="edgeStyle=orthogonalEdgeStyle;rounded=0;orthogonalLoop=1;jettySize=auto;html=1;exitX=0.91;exitY=0.5;exitDx=0;exitDy=0;exitPerimeter=0;endArrow=none;endFill=0;" parent="1" source="hJDzLai_UrfbL94a5cmA-4" target="hJDzLai_UrfbL94a5cmA-31" edge="1">
          <mxGeometry relative="1" as="geometry">
            <Array as="points">
              <mxPoint x="1002" y="80" />
            </Array>
          </mxGeometry>
        </mxCell>
        <mxCell id="hJDzLai_UrfbL94a5cmA-4" value="&lt;h4&gt;&lt;font color=&quot;#000000&quot;&gt;@ internet&lt;/font&gt;&lt;/h4&gt;" style="html=1;outlineConnect=0;fillColor=#CCCCCC;strokeColor=#6881B3;gradientColor=none;gradientDirection=north;strokeWidth=2;shape=mxgraph.networks.cloud;fontColor=#ffffff;" parent="1" vertex="1">
          <mxGeometry x="737.5" y="40" width="168" height="80" as="geometry" />
        </mxCell>
        <mxCell id="hJDzLai_UrfbL94a5cmA-7" value="&lt;h1 style=&quot;border-color: var(--border-color); box-sizing: border-box; font-size: 18px; margin: 0px; line-height: 1.75rem; font-family: Montserrat, serif; color: rgb(28, 142, 193); padding-top: 0px; text-align: start; background-color: rgb(255, 255, 255);&quot; class=&quot;product--title&quot;&gt;Cisco C1111-8PW&lt;br&gt;&lt;/h1&gt;" style="shape=mxgraph.cisco.routers.router;sketch=0;html=1;pointerEvents=1;dashed=0;fillColor=#036897;strokeColor=#ffffff;strokeWidth=2;verticalLabelPosition=bottom;verticalAlign=top;align=center;outlineConnect=0;" parent="1" vertex="1">
          <mxGeometry x="700" y="284" width="78" height="53" as="geometry" />
        </mxCell>
        <mxCell id="hJDzLai_UrfbL94a5cmA-8" value="&lt;h1 style=&quot;border-color: var(--border-color); box-sizing: border-box; font-size: 18px; margin: 0px; line-height: 1.75rem; font-family: Montserrat, serif; color: rgb(28, 142, 193); padding-top: 0px; text-align: start; background-color: rgb(255, 255, 255);&quot; class=&quot;product--title&quot;&gt;Cisco C819(H)G-4G-G-K9&lt;/h1&gt;" style="shape=mxgraph.cisco.routers.wireless_router;sketch=0;html=1;pointerEvents=1;dashed=0;fillColor=#036897;strokeColor=#ffffff;strokeWidth=2;verticalLabelPosition=bottom;verticalAlign=top;align=center;outlineConnect=0;" parent="1" vertex="1">
          <mxGeometry x="973" y="260" width="78" height="77" as="geometry" />
        </mxCell>
        <mxCell id="hJDzLai_UrfbL94a5cmA-11" style="edgeStyle=none;rounded=0;orthogonalLoop=1;jettySize=auto;html=1;exitX=0.5;exitY=1;exitDx=0;exitDy=0;exitPerimeter=0;entryX=0.5;entryY=0;entryDx=0;entryDy=0;entryPerimeter=0;verticalAlign=bottom;shape=link;" parent="1" source="hJDzLai_UrfbL94a5cmA-23" target="hJDzLai_UrfbL94a5cmA-25" edge="1">
          <mxGeometry relative="1" as="geometry">
            <mxPoint x="747.5" y="180" as="targetPoint" />
          </mxGeometry>
        </mxCell>
        <mxCell id="hJDzLai_UrfbL94a5cmA-12" value="" style="html=1;outlineConnect=0;fillColor=#CCCCCC;strokeColor=#6881B3;gradientColor=none;gradientDirection=north;strokeWidth=2;shape=mxgraph.networks.comm_link_edge;html=1;rounded=0;" parent="1" source="hJDzLai_UrfbL94a5cmA-4" target="hJDzLai_UrfbL94a5cmA-8" edge="1">
          <mxGeometry width="100" height="100" relative="1" as="geometry">
            <mxPoint x="677.5" y="560" as="sourcePoint" />
            <mxPoint x="777.5" y="460" as="targetPoint" />
          </mxGeometry>
        </mxCell>
        <mxCell id="hJDzLai_UrfbL94a5cmA-26" value="&lt;font style=&quot;font-size: 15px;&quot;&gt;&lt;b&gt;4G&lt;/b&gt;&lt;/font&gt;" style="edgeLabel;html=1;align=center;verticalAlign=middle;resizable=0;points=[];" parent="hJDzLai_UrfbL94a5cmA-12" vertex="1" connectable="0">
          <mxGeometry x="0.0368" y="7" relative="1" as="geometry">
            <mxPoint as="offset" />
          </mxGeometry>
        </mxCell>
        <mxCell id="hJDzLai_UrfbL94a5cmA-13" value="&lt;font style=&quot;font-size: 20px;&quot;&gt;&lt;b&gt;RED INTERNA&lt;/b&gt;&lt;/font&gt;" style="whiteSpace=wrap;html=1;fillColor=#FFD470;gradientColor=none;fontSize=14;strokeColor=none;verticalAlign=top;" parent="1" vertex="1">
          <mxGeometry x="317.5" y="820" width="308" height="470" as="geometry" />
        </mxCell>
        <mxCell id="hJDzLai_UrfbL94a5cmA-15" value="" style="fontColor=#0066CC;verticalAlign=top;verticalLabelPosition=bottom;labelPosition=center;align=center;html=1;outlineConnect=0;fillColor=#CCCCCC;strokeColor=#6881B3;gradientColor=none;gradientDirection=north;strokeWidth=2;shape=mxgraph.networks.switch;" parent="1" vertex="1">
          <mxGeometry x="519.85" y="909.49" width="100" height="30" as="geometry" />
        </mxCell>
        <mxCell id="hJDzLai_UrfbL94a5cmA-19" style="edgeStyle=orthogonalEdgeStyle;rounded=0;orthogonalLoop=1;jettySize=auto;html=1;exitX=1;exitY=0.5;exitDx=0;exitDy=0;exitPerimeter=0;entryX=0.1;entryY=1;entryDx=0;entryDy=0;entryPerimeter=0;endArrow=none;endFill=0;" parent="1" source="hJDzLai_UrfbL94a5cmA-16" target="hJDzLai_UrfbL94a5cmA-15" edge="1">
          <mxGeometry relative="1" as="geometry">
            <mxPoint x="562.5" y="1000" as="targetPoint" />
          </mxGeometry>
        </mxCell>
        <mxCell id="hJDzLai_UrfbL94a5cmA-16" value="" style="fontColor=#0066CC;verticalAlign=top;verticalLabelPosition=bottom;labelPosition=center;align=center;html=1;outlineConnect=0;fillColor=#CCCCCC;strokeColor=#6881B3;gradientColor=none;gradientDirection=north;strokeWidth=2;shape=mxgraph.networks.pc;" parent="1" vertex="1">
          <mxGeometry x="322.5" y="970" width="100" height="70" as="geometry" />
        </mxCell>
        <mxCell id="hJDzLai_UrfbL94a5cmA-17" value="" style="fontColor=#0066CC;verticalAlign=top;verticalLabelPosition=bottom;labelPosition=center;align=center;html=1;outlineConnect=0;fillColor=#CCCCCC;strokeColor=#6881B3;gradientColor=none;gradientDirection=north;strokeWidth=2;shape=mxgraph.networks.pc;" parent="1" vertex="1">
          <mxGeometry x="322.5" y="1090" width="100" height="70" as="geometry" />
        </mxCell>
        <mxCell id="hJDzLai_UrfbL94a5cmA-18" value="" style="fontColor=#0066CC;verticalAlign=top;verticalLabelPosition=bottom;labelPosition=center;align=center;html=1;outlineConnect=0;fillColor=#CCCCCC;strokeColor=#6881B3;gradientColor=none;gradientDirection=north;strokeWidth=2;shape=mxgraph.networks.pc;" parent="1" vertex="1">
          <mxGeometry x="322.5" y="1230" width="100" height="70" as="geometry" />
        </mxCell>
        <mxCell id="hJDzLai_UrfbL94a5cmA-20" style="edgeStyle=orthogonalEdgeStyle;rounded=0;orthogonalLoop=1;jettySize=auto;html=1;exitX=1;exitY=0.5;exitDx=0;exitDy=0;exitPerimeter=0;entryX=0.74;entryY=1.298;entryDx=0;entryDy=0;entryPerimeter=0;endArrow=none;endFill=0;" parent="1" source="hJDzLai_UrfbL94a5cmA-17" target="RiVhKGQ44bodc8hM81Xa-65" edge="1">
          <mxGeometry relative="1" as="geometry" />
        </mxCell>
        <mxCell id="hJDzLai_UrfbL94a5cmA-21" style="edgeStyle=orthogonalEdgeStyle;rounded=0;orthogonalLoop=1;jettySize=auto;html=1;exitX=1;exitY=0.5;exitDx=0;exitDy=0;exitPerimeter=0;entryX=0.9;entryY=1;entryDx=0;entryDy=0;entryPerimeter=0;endArrow=none;endFill=0;" parent="1" source="hJDzLai_UrfbL94a5cmA-18" target="hJDzLai_UrfbL94a5cmA-15" edge="1">
          <mxGeometry relative="1" as="geometry" />
        </mxCell>
        <mxCell id="hJDzLai_UrfbL94a5cmA-23" value="&lt;font style=&quot;font-size: 18px;&quot;&gt;&lt;b&gt;OLT&lt;/b&gt;&lt;/font&gt;" style="fontColor=#0066CC;verticalAlign=top;verticalLabelPosition=bottom;labelPosition=center;align=center;html=1;outlineConnect=0;fillColor=#CCCCCC;strokeColor=#6881B3;gradientColor=none;gradientDirection=north;strokeWidth=2;shape=mxgraph.networks.tablet;" parent="1" vertex="1">
          <mxGeometry x="647.5" y="120" width="40" height="40" as="geometry" />
        </mxCell>
        <mxCell id="hJDzLai_UrfbL94a5cmA-24" style="edgeStyle=none;rounded=0;orthogonalLoop=1;jettySize=auto;html=1;exitX=0.14;exitY=1;exitDx=0;exitDy=0;exitPerimeter=0;entryX=0.5;entryY=0;entryDx=0;entryDy=0;entryPerimeter=0;shape=link;" parent="1" source="hJDzLai_UrfbL94a5cmA-4" target="hJDzLai_UrfbL94a5cmA-23" edge="1">
          <mxGeometry relative="1" as="geometry">
            <mxPoint x="816.5" y="294" as="sourcePoint" />
            <mxPoint x="697.5" y="188" as="targetPoint" />
            <Array as="points">
              <mxPoint x="697.5" y="120" />
            </Array>
          </mxGeometry>
        </mxCell>
        <mxCell id="hJDzLai_UrfbL94a5cmA-25" value="&lt;span style=&quot;font-size: 18px;&quot;&gt;&lt;b&gt;ONT&lt;br&gt;&lt;br&gt;&lt;/b&gt;&lt;/span&gt;" style="fontColor=#0066CC;verticalAlign=top;verticalLabelPosition=bottom;labelPosition=center;align=center;html=1;outlineConnect=0;fillColor=#CCCCCC;strokeColor=#6881B3;gradientColor=none;gradientDirection=north;strokeWidth=2;shape=mxgraph.networks.tablet;" parent="1" vertex="1">
          <mxGeometry x="647.5" y="220" width="40" height="40" as="geometry" />
        </mxCell>
        <mxCell id="hJDzLai_UrfbL94a5cmA-27" style="edgeStyle=orthogonalEdgeStyle;rounded=0;orthogonalLoop=1;jettySize=auto;html=1;exitX=0.5;exitY=1;exitDx=0;exitDy=0;exitPerimeter=0;entryX=0;entryY=0.5;entryDx=0;entryDy=0;entryPerimeter=0;endArrow=none;endFill=0;" parent="1" source="hJDzLai_UrfbL94a5cmA-25" target="hJDzLai_UrfbL94a5cmA-7" edge="1">
          <mxGeometry relative="1" as="geometry" />
        </mxCell>
        <mxCell id="hJDzLai_UrfbL94a5cmA-29" style="edgeStyle=orthogonalEdgeStyle;rounded=0;orthogonalLoop=1;jettySize=auto;html=1;endArrow=none;endFill=0;" parent="1" target="RiVhKGQ44bodc8hM81Xa-56" edge="1">
          <mxGeometry relative="1" as="geometry">
            <mxPoint x="878" y="390" as="sourcePoint" />
            <mxPoint x="867.5" y="410" as="targetPoint" />
            <Array as="points">
              <mxPoint x="878" y="390" />
            </Array>
          </mxGeometry>
        </mxCell>
        <mxCell id="hJDzLai_UrfbL94a5cmA-30" value="VPN CLIENT" style="sketch=0;pointerEvents=1;shadow=0;dashed=0;html=1;strokeColor=#d6b656;fillColor=#fff2cc;labelPosition=center;verticalLabelPosition=bottom;verticalAlign=top;outlineConnect=0;align=center;shape=mxgraph.office.concepts.remote_access;" parent="1" vertex="1">
          <mxGeometry x="386.02" y="40" width="59" height="41" as="geometry" />
        </mxCell>
        <mxCell id="hJDzLai_UrfbL94a5cmA-32" value="VPN CLIENT" style="sketch=0;pointerEvents=1;shadow=0;dashed=0;html=1;strokeColor=#d79b00;fillColor=#ffe6cc;labelPosition=center;verticalLabelPosition=bottom;verticalAlign=top;outlineConnect=0;align=center;shape=mxgraph.office.concepts.remote_access;" parent="1" vertex="1">
          <mxGeometry x="1040" y="119" width="59" height="41" as="geometry" />
        </mxCell>
        <mxCell id="hJDzLai_UrfbL94a5cmA-37" value="&lt;font style=&quot;font-size: 20px;&quot;&gt;&lt;b&gt;SOC&lt;/b&gt;&lt;/font&gt;" style="whiteSpace=wrap;html=1;fillColor=#FFD470;gradientColor=none;fontSize=14;strokeColor=none;verticalAlign=top;" parent="1" vertex="1">
          <mxGeometry x="761" y="1040" width="308" height="392" as="geometry" />
        </mxCell>
        <mxCell id="hJDzLai_UrfbL94a5cmA-39" value="&lt;font style=&quot;font-size: 20px;&quot;&gt;&lt;b&gt;Planta fábrica&lt;/b&gt;&lt;/font&gt;" style="whiteSpace=wrap;html=1;fillColor=#FFD470;gradientColor=none;fontSize=14;strokeColor=none;verticalAlign=top;" parent="1" vertex="1">
          <mxGeometry x="317.5" y="382" width="308" height="360" as="geometry" />
        </mxCell>
        <mxCell id="hJDzLai_UrfbL94a5cmA-40" style="edgeStyle=orthogonalEdgeStyle;rounded=0;orthogonalLoop=1;jettySize=auto;html=1;endArrow=none;endFill=0;exitX=0.5;exitY=1;exitDx=0;exitDy=0;" parent="1" source="RiVhKGQ44bodc8hM81Xa-61" edge="1" target="hJDzLai_UrfbL94a5cmA-14">
          <mxGeometry relative="1" as="geometry">
            <mxPoint x="677.5" y="662" as="sourcePoint" />
            <mxPoint x="624.5" y="783" as="targetPoint" />
            <Array as="points">
              <mxPoint x="683" y="788" />
            </Array>
          </mxGeometry>
        </mxCell>
        <mxCell id="hJDzLai_UrfbL94a5cmA-43" style="edgeStyle=orthogonalEdgeStyle;rounded=0;orthogonalLoop=1;jettySize=auto;html=1;exitX=0.282;exitY=1.013;exitDx=0;exitDy=0;endArrow=none;endFill=0;entryX=0.98;entryY=0.98;entryDx=0;entryDy=0;entryPerimeter=0;exitPerimeter=0;" parent="1" source="RiVhKGQ44bodc8hM81Xa-62" edge="1" target="hJDzLai_UrfbL94a5cmA-14">
          <mxGeometry relative="1" as="geometry">
            <mxPoint x="626.35" y="849.28" as="targetPoint" />
            <Array as="points">
              <mxPoint x="840" y="804" />
            </Array>
            <mxPoint x="839.9970900000002" y="674.495" as="sourcePoint" />
          </mxGeometry>
        </mxCell>
        <mxCell id="hJDzLai_UrfbL94a5cmA-48" value="" style="edgeStyle=orthogonalEdgeStyle;rounded=0;orthogonalLoop=1;jettySize=auto;html=1;exitX=0.5;exitY=1;exitDx=0;exitDy=0;exitPerimeter=0;endArrow=none;endFill=0;" parent="1" source="hJDzLai_UrfbL94a5cmA-7" target="RiVhKGQ44bodc8hM81Xa-56" edge="1">
          <mxGeometry relative="1" as="geometry">
            <mxPoint x="806.5" y="337" as="sourcePoint" />
            <mxPoint x="857.5" y="690" as="targetPoint" />
            <Array as="points">
              <mxPoint x="838" y="337" />
              <mxPoint x="838" y="390" />
              <mxPoint x="858" y="390" />
            </Array>
          </mxGeometry>
        </mxCell>
        <mxCell id="hJDzLai_UrfbL94a5cmA-49" value="" style="edgeStyle=orthogonalEdgeStyle;rounded=0;orthogonalLoop=1;jettySize=auto;html=1;exitX=0.88;exitY=1;exitDx=0;exitDy=0;exitPerimeter=0;endArrow=none;endFill=0;" parent="1" source="hJDzLai_UrfbL94a5cmA-4" target="hJDzLai_UrfbL94a5cmA-32" edge="1">
          <mxGeometry relative="1" as="geometry">
            <mxPoint x="894.5" y="120" as="sourcePoint" />
            <mxPoint x="1317.5" y="211" as="targetPoint" />
            <Array as="points">
              <mxPoint x="894.5" y="160" />
            </Array>
          </mxGeometry>
        </mxCell>
        <mxCell id="hJDzLai_UrfbL94a5cmA-31" value="VPN CLIENT" style="sketch=0;pointerEvents=1;shadow=0;dashed=0;html=1;strokeColor=#d79b00;fillColor=#ffe6cc;labelPosition=center;verticalLabelPosition=bottom;verticalAlign=top;outlineConnect=0;align=center;shape=mxgraph.office.concepts.remote_access;" parent="1" vertex="1">
          <mxGeometry x="973" y="10" width="59" height="41" as="geometry" />
        </mxCell>
        <mxCell id="hJDzLai_UrfbL94a5cmA-55" value="" style="image;aspect=fixed;html=1;points=[];align=center;fontSize=12;image=img/lib/azure2/ai_machine_learning/Machine_Learning_Studio_Workspaces.svg;" parent="1" vertex="1">
          <mxGeometry x="476.5" y="413" width="37" height="37" as="geometry" />
        </mxCell>
        <mxCell id="hJDzLai_UrfbL94a5cmA-56" value="" style="shape=mxgraph.cisco.people.androgenous_person;sketch=0;html=1;pointerEvents=1;dashed=0;fillColor=#036897;strokeColor=#ffffff;strokeWidth=2;verticalLabelPosition=bottom;verticalAlign=top;align=center;outlineConnect=0;" parent="1" vertex="1">
          <mxGeometry x="984" y="1350" width="69" height="82" as="geometry" />
        </mxCell>
        <mxCell id="RiVhKGQ44bodc8hM81Xa-93" style="edgeStyle=none;rounded=0;orthogonalLoop=1;jettySize=auto;html=1;exitX=0.5;exitY=1;exitDx=0;exitDy=0;exitPerimeter=0;endArrow=none;endFill=0;entryX=0.23;entryY=0;entryDx=0;entryDy=0;entryPerimeter=0;" edge="1" parent="1" source="hJDzLai_UrfbL94a5cmA-57" target="hJDzLai_UrfbL94a5cmA-59">
          <mxGeometry relative="1" as="geometry" />
        </mxCell>
        <mxCell id="hJDzLai_UrfbL94a5cmA-57" value="" style="fontColor=#0066CC;verticalAlign=top;verticalLabelPosition=bottom;labelPosition=center;align=center;html=1;outlineConnect=0;fillColor=#CCCCCC;strokeColor=#6881B3;gradientColor=none;gradientDirection=north;strokeWidth=2;shape=mxgraph.networks.switch;" parent="1" vertex="1">
          <mxGeometry x="864.5" y="1142.5" width="100" height="30" as="geometry" />
        </mxCell>
        <mxCell id="hJDzLai_UrfbL94a5cmA-59" value="" style="shape=mxgraph.cisco.people.androgenous_person;sketch=0;html=1;pointerEvents=1;dashed=0;fillColor=#036897;strokeColor=#ffffff;strokeWidth=2;verticalLabelPosition=bottom;verticalAlign=top;align=center;outlineConnect=0;" parent="1" vertex="1">
          <mxGeometry x="784" y="1350" width="69" height="82" as="geometry" />
        </mxCell>
        <mxCell id="hJDzLai_UrfbL94a5cmA-60" value="" style="shape=mxgraph.cisco.people.androgenous_person;sketch=0;html=1;pointerEvents=1;dashed=0;fillColor=#036897;strokeColor=#ffffff;strokeWidth=2;verticalLabelPosition=bottom;verticalAlign=top;align=center;outlineConnect=0;" parent="1" vertex="1">
          <mxGeometry x="892" y="1350" width="69" height="82" as="geometry" />
        </mxCell>
        <mxCell id="RiVhKGQ44bodc8hM81Xa-40" style="edgeStyle=none;rounded=0;orthogonalLoop=1;jettySize=auto;html=1;endArrow=none;endFill=0;entryX=0;entryY=0.25;entryDx=0;entryDy=0;" edge="1" parent="1" source="hJDzLai_UrfbL94a5cmA-72" target="RiVhKGQ44bodc8hM81Xa-61">
          <mxGeometry relative="1" as="geometry">
            <mxPoint x="647.5" y="632" as="targetPoint" />
          </mxGeometry>
        </mxCell>
        <mxCell id="hJDzLai_UrfbL94a5cmA-62" value="" style="fontColor=#0066CC;verticalAlign=top;verticalLabelPosition=bottom;labelPosition=center;align=center;html=1;outlineConnect=0;fillColor=#CCCCCC;strokeColor=#6881B3;gradientColor=none;gradientDirection=north;strokeWidth=2;shape=mxgraph.networks.switch;" parent="1" vertex="1">
          <mxGeometry x="517.5" y="617" width="100" height="30" as="geometry" />
        </mxCell>
        <mxCell id="RiVhKGQ44bodc8hM81Xa-43" style="edgeStyle=none;rounded=0;orthogonalLoop=1;jettySize=auto;html=1;endArrow=none;endFill=0;exitX=0.475;exitY=-0.046;exitDx=0;exitDy=0;exitPerimeter=0;" edge="1" parent="1" source="hJDzLai_UrfbL94a5cmA-65" target="hJDzLai_UrfbL94a5cmA-67">
          <mxGeometry relative="1" as="geometry" />
        </mxCell>
        <mxCell id="hJDzLai_UrfbL94a5cmA-65" value="" style="fontColor=#0066CC;verticalAlign=top;verticalLabelPosition=bottom;labelPosition=center;align=center;html=1;outlineConnect=0;fillColor=#CCCCCC;strokeColor=#6881B3;gradientColor=none;gradientDirection=north;strokeWidth=2;shape=mxgraph.networks.switch;" parent="1" vertex="1">
          <mxGeometry x="1162" y="625.95" width="100" height="30" as="geometry" />
        </mxCell>
        <mxCell id="hJDzLai_UrfbL94a5cmA-66" value="CISCO Catalys&lt;br style=&quot;border-color: var(--border-color);&quot;&gt;C9200-24PXG" style="fontColor=#0066CC;verticalAlign=top;verticalLabelPosition=bottom;labelPosition=center;align=center;html=1;outlineConnect=0;fillColor=#CCCCCC;strokeColor=#6881B3;gradientColor=none;gradientDirection=north;strokeWidth=2;shape=mxgraph.networks.patch_panel;" parent="1" vertex="1">
          <mxGeometry x="864.5" y="1070" width="100" height="35" as="geometry" />
        </mxCell>
        <mxCell id="hJDzLai_UrfbL94a5cmA-67" value="CISCO CATALYS &lt;br&gt;C9200CX-12T-2X2G-A&lt;br&gt;" style="fontColor=#0066CC;verticalAlign=top;verticalLabelPosition=bottom;labelPosition=center;align=center;html=1;outlineConnect=0;fillColor=#CCCCCC;strokeColor=#6881B3;gradientColor=none;gradientDirection=north;strokeWidth=2;shape=mxgraph.networks.patch_panel;" parent="1" vertex="1">
          <mxGeometry x="1159" y="547.5" width="100" height="35" as="geometry" />
        </mxCell>
        <mxCell id="RiVhKGQ44bodc8hM81Xa-78" style="edgeStyle=none;rounded=0;orthogonalLoop=1;jettySize=auto;html=1;exitX=0.02;exitY=0.98;exitDx=0;exitDy=0;exitPerimeter=0;endArrow=none;endFill=0;" edge="1" parent="1" source="hJDzLai_UrfbL94a5cmA-72" target="hJDzLai_UrfbL94a5cmA-62">
          <mxGeometry relative="1" as="geometry" />
        </mxCell>
        <mxCell id="RiVhKGQ44bodc8hM81Xa-79" style="edgeStyle=none;rounded=0;orthogonalLoop=1;jettySize=auto;html=1;exitX=0.98;exitY=0.98;exitDx=0;exitDy=0;exitPerimeter=0;endArrow=none;endFill=0;" edge="1" parent="1" source="hJDzLai_UrfbL94a5cmA-72" target="hJDzLai_UrfbL94a5cmA-62">
          <mxGeometry relative="1" as="geometry" />
        </mxCell>
        <mxCell id="hJDzLai_UrfbL94a5cmA-72" value="CISCO CATALYS&lt;br style=&quot;border-color: var(--border-color);&quot;&gt;C9200CX-12T-2X2G-A" style="fontColor=#0066CC;verticalAlign=top;verticalLabelPosition=bottom;labelPosition=center;align=center;html=1;outlineConnect=0;fillColor=#CCCCCC;strokeColor=#6881B3;gradientColor=none;gradientDirection=north;strokeWidth=2;shape=mxgraph.networks.patch_panel;" parent="1" vertex="1">
          <mxGeometry x="517.5" y="537" width="100" height="35" as="geometry" />
        </mxCell>
        <mxCell id="RiVhKGQ44bodc8hM81Xa-1" value="LAB SERVER" style="fontColor=#0066CC;verticalAlign=top;verticalLabelPosition=bottom;labelPosition=center;align=center;html=1;outlineConnect=0;fillColor=#CCCCCC;strokeColor=#6881B3;gradientColor=none;gradientDirection=north;strokeWidth=2;shape=mxgraph.networks.web_server;" vertex="1" parent="1">
          <mxGeometry x="1285.5" y="759.5" width="57" height="70" as="geometry" />
        </mxCell>
        <mxCell id="RiVhKGQ44bodc8hM81Xa-15" style="edgeStyle=orthogonalEdgeStyle;rounded=0;orthogonalLoop=1;jettySize=auto;html=1;exitX=0.5;exitY=0;exitDx=0;exitDy=0;exitPerimeter=0;entryX=0.5;entryY=1;entryDx=0;entryDy=0;endArrow=none;endFill=0;" edge="1" parent="1" source="RiVhKGQ44bodc8hM81Xa-2" target="RiVhKGQ44bodc8hM81Xa-14">
          <mxGeometry relative="1" as="geometry">
            <Array as="points">
              <mxPoint x="420" y="530" />
              <mxPoint x="495" y="530" />
            </Array>
          </mxGeometry>
        </mxCell>
        <mxCell id="RiVhKGQ44bodc8hM81Xa-16" style="edgeStyle=orthogonalEdgeStyle;rounded=0;orthogonalLoop=1;jettySize=auto;html=1;exitX=0.5;exitY=0;exitDx=0;exitDy=0;exitPerimeter=0;entryX=0.5;entryY=1;entryDx=0;entryDy=0;endArrow=none;endFill=0;" edge="1" parent="1" source="RiVhKGQ44bodc8hM81Xa-2" target="RiVhKGQ44bodc8hM81Xa-12">
          <mxGeometry relative="1" as="geometry" />
        </mxCell>
        <mxCell id="RiVhKGQ44bodc8hM81Xa-2" value="SCADA CONTROLLER" style="fontColor=#0066CC;verticalAlign=top;verticalLabelPosition=bottom;labelPosition=center;align=center;html=1;outlineConnect=0;fillColor=#CCCCCC;strokeColor=#6881B3;gradientColor=none;gradientDirection=north;strokeWidth=2;shape=mxgraph.networks.desktop_pc;" vertex="1" parent="1">
          <mxGeometry x="404.99" y="550" width="30" height="60" as="geometry" />
        </mxCell>
        <mxCell id="RiVhKGQ44bodc8hM81Xa-3" value="BBDD SCADA" style="fontColor=#0066CC;verticalAlign=top;verticalLabelPosition=bottom;labelPosition=center;align=center;html=1;outlineConnect=0;fillColor=#CCCCCC;strokeColor=#6881B3;gradientColor=none;gradientDirection=north;strokeWidth=2;shape=mxgraph.networks.storage;" vertex="1" parent="1">
          <mxGeometry x="434.99" y="634.5" width="33" height="35" as="geometry" />
        </mxCell>
        <mxCell id="RiVhKGQ44bodc8hM81Xa-4" value="SCADA&amp;nbsp;&lt;br&gt;TERMINAL" style="fontColor=#0066CC;verticalAlign=top;verticalLabelPosition=bottom;labelPosition=center;align=center;html=1;outlineConnect=0;fillColor=#CCCCCC;strokeColor=#6881B3;gradientColor=none;gradientDirection=north;strokeWidth=2;shape=mxgraph.networks.monitor;" vertex="1" parent="1">
          <mxGeometry x="368.25" y="629.5" width="38.75" height="40" as="geometry" />
        </mxCell>
        <mxCell id="RiVhKGQ44bodc8hM81Xa-9" value="" style="sketch=0;outlineConnect=0;fontColor=#232F3E;gradientColor=none;fillColor=#8C4FFF;strokeColor=none;dashed=0;verticalLabelPosition=bottom;verticalAlign=top;align=center;html=1;fontSize=12;fontStyle=0;aspect=fixed;pointerEvents=1;shape=mxgraph.aws4.emr_engine;" vertex="1" parent="1">
          <mxGeometry x="404.99" y="413" width="40.03" height="30.28" as="geometry" />
        </mxCell>
        <mxCell id="RiVhKGQ44bodc8hM81Xa-10" value="" style="outlineConnect=0;dashed=0;verticalLabelPosition=bottom;verticalAlign=top;align=center;html=1;shape=mxgraph.aws3.car;fillColor=#5294CF;gradientColor=none;" vertex="1" parent="1">
          <mxGeometry x="326.5" y="410" width="43.5" height="39" as="geometry" />
        </mxCell>
        <mxCell id="RiVhKGQ44bodc8hM81Xa-17" style="edgeStyle=orthogonalEdgeStyle;rounded=0;orthogonalLoop=1;jettySize=auto;html=1;exitX=0.5;exitY=1;exitDx=0;exitDy=0;endArrow=none;endFill=0;" edge="1" parent="1" source="RiVhKGQ44bodc8hM81Xa-11">
          <mxGeometry relative="1" as="geometry">
            <mxPoint x="420" y="550" as="targetPoint" />
            <Array as="points">
              <mxPoint x="348" y="530" />
              <mxPoint x="421" y="530" />
              <mxPoint x="421" y="550" />
            </Array>
          </mxGeometry>
        </mxCell>
        <mxCell id="RiVhKGQ44bodc8hM81Xa-11" value="PLC1&lt;br&gt; " style="html=1;outlineConnect=0;align=center;dashed=0;aspect=fixed;shape=mxgraph.pid2inst.progLogCont;mounting=room" vertex="1" parent="1">
          <mxGeometry x="328.25" y="472.5" width="40" height="40" as="geometry" />
        </mxCell>
        <mxCell id="RiVhKGQ44bodc8hM81Xa-12" value="PLC2&lt;br&gt; " style="html=1;outlineConnect=0;align=center;dashed=0;aspect=fixed;shape=mxgraph.pid2inst.progLogCont;mounting=room" vertex="1" parent="1">
          <mxGeometry x="400" y="472.5" width="40" height="40" as="geometry" />
        </mxCell>
        <mxCell id="RiVhKGQ44bodc8hM81Xa-14" value="PLC3&lt;br&gt;&lt;br&gt; " style="html=1;outlineConnect=0;align=center;dashed=0;aspect=fixed;shape=mxgraph.pid2inst.progLogCont;mounting=room" vertex="1" parent="1">
          <mxGeometry x="475" y="472.5" width="40" height="40" as="geometry" />
        </mxCell>
        <mxCell id="RiVhKGQ44bodc8hM81Xa-20" style="edgeStyle=orthogonalEdgeStyle;rounded=0;orthogonalLoop=1;jettySize=auto;html=1;exitX=0;exitY=0;exitDx=0;exitDy=0;endArrow=none;endFill=0;" edge="1" parent="1" source="RiVhKGQ44bodc8hM81Xa-64">
          <mxGeometry relative="1" as="geometry">
            <mxPoint x="435" y="584" as="targetPoint" />
            <Array as="points">
              <mxPoint x="519" y="584" />
            </Array>
          </mxGeometry>
        </mxCell>
        <mxCell id="RiVhKGQ44bodc8hM81Xa-21" style="edgeStyle=orthogonalEdgeStyle;rounded=0;orthogonalLoop=1;jettySize=auto;html=1;exitX=0.5;exitY=0;exitDx=0;exitDy=0;exitPerimeter=0;entryX=0.5;entryY=1;entryDx=0;entryDy=0;entryPerimeter=0;endArrow=none;endFill=0;" edge="1" parent="1" source="hJDzLai_UrfbL94a5cmA-62" target="hJDzLai_UrfbL94a5cmA-72">
          <mxGeometry relative="1" as="geometry" />
        </mxCell>
        <mxCell id="RiVhKGQ44bodc8hM81Xa-23" value="WEB SERVER" style="fontColor=#0066CC;verticalAlign=top;verticalLabelPosition=bottom;labelPosition=center;align=center;html=1;outlineConnect=0;fillColor=#CCCCCC;strokeColor=#6881B3;gradientColor=none;gradientDirection=north;strokeWidth=2;shape=mxgraph.networks.web_server;" vertex="1" parent="1">
          <mxGeometry x="1369.5" y="519.5" width="57" height="70" as="geometry" />
        </mxCell>
        <mxCell id="RiVhKGQ44bodc8hM81Xa-24" value="DNS y DHCP&amp;nbsp;SERVER" style="fontColor=#0066CC;verticalAlign=top;verticalLabelPosition=bottom;labelPosition=center;align=center;html=1;outlineConnect=0;fillColor=#CCCCCC;strokeColor=#6881B3;gradientColor=none;gradientDirection=north;strokeWidth=2;shape=mxgraph.networks.web_server;" vertex="1" parent="1">
          <mxGeometry x="1000" y="1122.49" width="57" height="70" as="geometry" />
        </mxCell>
        <mxCell id="RiVhKGQ44bodc8hM81Xa-76" style="edgeStyle=none;rounded=0;orthogonalLoop=1;jettySize=auto;html=1;exitX=0.5;exitY=1;exitDx=0;exitDy=0;exitPerimeter=0;endArrow=none;endFill=0;" edge="1" parent="1" source="hJDzLai_UrfbL94a5cmA-14" target="hJDzLai_UrfbL94a5cmA-15">
          <mxGeometry relative="1" as="geometry" />
        </mxCell>
        <mxCell id="hJDzLai_UrfbL94a5cmA-14" value="CISCO Catalys &lt;br&gt;C9200-48PXG" style="fontColor=#0066CC;verticalAlign=top;verticalLabelPosition=bottom;labelPosition=center;align=center;html=1;outlineConnect=0;fillColor=#CCCCCC;strokeColor=#6881B3;gradientColor=none;gradientDirection=north;strokeWidth=2;shape=mxgraph.networks.patch_panel;" parent="1" vertex="1">
          <mxGeometry x="519.85" y="840" width="100" height="35" as="geometry" />
        </mxCell>
        <mxCell id="RiVhKGQ44bodc8hM81Xa-28" value="VPN SERVER&lt;br&gt;" style="fontColor=#0066CC;verticalAlign=top;verticalLabelPosition=bottom;labelPosition=center;align=center;html=1;outlineConnect=0;fillColor=#CCCCCC;strokeColor=#6881B3;gradientColor=none;gradientDirection=north;strokeWidth=2;shape=mxgraph.networks.web_server;" vertex="1" parent="1">
          <mxGeometry x="1392.5" y="664.5" width="57" height="70" as="geometry" />
        </mxCell>
        <mxCell id="RiVhKGQ44bodc8hM81Xa-29" value="NAS SERVER" style="fontColor=#0066CC;verticalAlign=top;verticalLabelPosition=bottom;labelPosition=center;align=center;html=1;outlineConnect=0;fillColor=#CCCCCC;strokeColor=#6881B3;gradientColor=none;gradientDirection=north;strokeWidth=2;shape=mxgraph.networks.web_server;" vertex="1" parent="1">
          <mxGeometry x="1170" y="759.5" width="57" height="70" as="geometry" />
        </mxCell>
        <mxCell id="RiVhKGQ44bodc8hM81Xa-32" style="edgeStyle=none;rounded=0;orthogonalLoop=1;jettySize=auto;html=1;entryX=0;entryY=0.93;entryDx=0;entryDy=0;entryPerimeter=0;endArrow=none;endFill=0;exitX=1;exitY=0.5;exitDx=0;exitDy=0;exitPerimeter=0;" edge="1" parent="1" source="hJDzLai_UrfbL94a5cmA-65" target="RiVhKGQ44bodc8hM81Xa-23">
          <mxGeometry relative="1" as="geometry" />
        </mxCell>
        <mxCell id="RiVhKGQ44bodc8hM81Xa-33" style="rounded=0;orthogonalLoop=1;jettySize=auto;html=1;exitX=0.9;exitY=1;exitDx=0;exitDy=0;exitPerimeter=0;entryX=0;entryY=0.5;entryDx=0;entryDy=0;entryPerimeter=0;endArrow=none;endFill=0;" edge="1" parent="1" source="hJDzLai_UrfbL94a5cmA-65" target="RiVhKGQ44bodc8hM81Xa-28">
          <mxGeometry relative="1" as="geometry" />
        </mxCell>
        <mxCell id="RiVhKGQ44bodc8hM81Xa-34" style="edgeStyle=none;rounded=0;orthogonalLoop=1;jettySize=auto;html=1;entryX=0.5;entryY=0;entryDx=0;entryDy=0;entryPerimeter=0;endArrow=none;endFill=0;exitX=0.5;exitY=1;exitDx=0;exitDy=0;exitPerimeter=0;" edge="1" parent="1" source="hJDzLai_UrfbL94a5cmA-65" target="RiVhKGQ44bodc8hM81Xa-1">
          <mxGeometry relative="1" as="geometry">
            <mxPoint x="1260" y="650" as="sourcePoint" />
          </mxGeometry>
        </mxCell>
        <mxCell id="RiVhKGQ44bodc8hM81Xa-35" style="edgeStyle=none;rounded=0;orthogonalLoop=1;jettySize=auto;html=1;entryX=0.5;entryY=0;entryDx=0;entryDy=0;entryPerimeter=0;endArrow=none;endFill=0;exitX=0.1;exitY=1;exitDx=0;exitDy=0;exitPerimeter=0;" edge="1" parent="1" source="hJDzLai_UrfbL94a5cmA-65" target="RiVhKGQ44bodc8hM81Xa-29">
          <mxGeometry relative="1" as="geometry" />
        </mxCell>
        <mxCell id="RiVhKGQ44bodc8hM81Xa-44" style="edgeStyle=none;rounded=0;orthogonalLoop=1;jettySize=auto;html=1;exitX=0.128;exitY=-0.207;exitDx=0;exitDy=0;exitPerimeter=0;entryX=0.142;entryY=1.038;entryDx=0;entryDy=0;entryPerimeter=0;endArrow=none;endFill=0;" edge="1" parent="1" source="RiVhKGQ44bodc8hM81Xa-67" target="hJDzLai_UrfbL94a5cmA-67">
          <mxGeometry relative="1" as="geometry" />
        </mxCell>
        <mxCell id="RiVhKGQ44bodc8hM81Xa-45" value="&lt;font style=&quot;font-size: 20px;&quot;&gt;RWANMAIN&lt;/font&gt;" style="text;strokeColor=#d79b00;align=center;fillColor=#ffe6cc;html=1;verticalAlign=middle;whiteSpace=wrap;rounded=0;" vertex="1" parent="1">
          <mxGeometry x="696.5" y="230" width="118" height="30" as="geometry" />
        </mxCell>
        <mxCell id="RiVhKGQ44bodc8hM81Xa-46" value="&lt;font style=&quot;font-size: 20px;&quot;&gt;RWANBCK&lt;/font&gt;" style="text;strokeColor=#d79b00;align=center;fillColor=#ffe6cc;html=1;verticalAlign=middle;whiteSpace=wrap;rounded=0;" vertex="1" parent="1">
          <mxGeometry x="958" y="225" width="118" height="30" as="geometry" />
        </mxCell>
        <mxCell id="RiVhKGQ44bodc8hM81Xa-49" value="&lt;font style=&quot;font-size: 20px;&quot;&gt;SWFACTORY&lt;/font&gt;" style="text;strokeColor=#d79b00;align=center;fillColor=#ffe6cc;html=1;verticalAlign=middle;whiteSpace=wrap;rounded=0;" vertex="1" parent="1">
          <mxGeometry x="519" y="499.5" width="131" height="30" as="geometry" />
        </mxCell>
        <mxCell id="RiVhKGQ44bodc8hM81Xa-51" value="" style="edgeStyle=orthogonalEdgeStyle;rounded=0;orthogonalLoop=1;jettySize=auto;html=1;endArrow=none;endFill=0;exitX=1;exitY=0.5;exitDx=0;exitDy=0;exitPerimeter=0;entryX=0.02;entryY=0.51;entryDx=0;entryDy=0;entryPerimeter=0;" edge="1" parent="1" source="RiVhKGQ44bodc8hM81Xa-56" target="hJDzLai_UrfbL94a5cmA-67">
          <mxGeometry relative="1" as="geometry">
            <mxPoint x="1159" y="515" as="targetPoint" />
            <Array as="points">
              <mxPoint x="990" y="466" />
              <mxPoint x="990" y="565" />
            </Array>
            <mxPoint x="895" y="610" as="sourcePoint" />
          </mxGeometry>
        </mxCell>
        <mxCell id="RiVhKGQ44bodc8hM81Xa-52" value="" style="edgeStyle=none;rounded=0;orthogonalLoop=1;jettySize=auto;html=1;entryX=0.5;entryY=0;entryDx=0;entryDy=0;entryPerimeter=0;endArrow=none;endFill=0;" edge="1" parent="1" source="6a7d8f32e03d9370-57" target="6a7d8f32e03d9370-57">
          <mxGeometry relative="1" as="geometry">
            <mxPoint x="1209" y="583" as="sourcePoint" />
            <mxPoint x="1199" y="760" as="targetPoint" />
          </mxGeometry>
        </mxCell>
        <mxCell id="RiVhKGQ44bodc8hM81Xa-53" value="&lt;font style=&quot;font-size: 20px;&quot;&gt;SCSERVER&lt;/font&gt;" style="text;strokeColor=#d79b00;align=center;fillColor=#ffe6cc;html=1;verticalAlign=middle;whiteSpace=wrap;rounded=0;" vertex="1" parent="1">
          <mxGeometry x="282" y="547" width="118" height="30" as="geometry" />
        </mxCell>
        <mxCell id="RiVhKGQ44bodc8hM81Xa-55" value="&lt;font style=&quot;font-size: 20px;&quot;&gt;FWFACTORY&lt;/font&gt;" style="text;strokeColor=#d79b00;align=center;fillColor=#ffe6cc;html=1;verticalAlign=middle;whiteSpace=wrap;rounded=0;" vertex="1" parent="1">
          <mxGeometry x="647.5" y="577" width="132.5" height="30" as="geometry" />
        </mxCell>
        <mxCell id="RiVhKGQ44bodc8hM81Xa-56" value="&lt;h1 style=&quot;border-color: var(--border-color); box-sizing: border-box; font-size: 18px; margin: 0px; line-height: 1.75rem; font-family: Montserrat, serif; color: rgb(28, 142, 193); padding-top: 0px; text-align: start; background-color: rgb(255, 255, 255);&quot; class=&quot;product--title&quot;&gt;Cisco C1111-8PW&lt;br&gt;&lt;/h1&gt;" style="shape=mxgraph.cisco.routers.router;sketch=0;html=1;pointerEvents=1;dashed=0;fillColor=#036897;strokeColor=#ffffff;strokeWidth=2;verticalLabelPosition=bottom;verticalAlign=top;align=center;outlineConnect=0;" vertex="1" parent="1">
          <mxGeometry x="829.5" y="440" width="78" height="53" as="geometry" />
        </mxCell>
        <mxCell id="RiVhKGQ44bodc8hM81Xa-58" value="&lt;font style=&quot;font-size: 20px;&quot;&gt;RGW&lt;/font&gt;" style="text;strokeColor=#d79b00;align=center;fillColor=#ffe6cc;html=1;verticalAlign=middle;whiteSpace=wrap;rounded=0;" vertex="1" parent="1">
          <mxGeometry x="813" y="400" width="118" height="30" as="geometry" />
        </mxCell>
        <mxCell id="RiVhKGQ44bodc8hM81Xa-59" style="edgeStyle=none;rounded=0;orthogonalLoop=1;jettySize=auto;html=1;entryX=0.5;entryY=0;entryDx=0;entryDy=0;endArrow=none;endFill=0;" edge="1" parent="1" source="RiVhKGQ44bodc8hM81Xa-56" target="RiVhKGQ44bodc8hM81Xa-62">
          <mxGeometry relative="1" as="geometry">
            <mxPoint x="864.5" y="580" as="targetPoint" />
          </mxGeometry>
        </mxCell>
        <mxCell id="RiVhKGQ44bodc8hM81Xa-61" value="" style="shape=image;verticalLabelPosition=bottom;labelBackgroundColor=default;verticalAlign=top;aspect=fixed;imageAspect=0;image=data:image/png,iVBORw0KGgoAAAANSUhEUgAAAZ0AAABeCAYAAAD41MkMAAAAAXNSR0IArs4c6QAAAARnQU1BAACxjwv8YQUAAAAJcEhZcwAADsMAAA7DAcdvqGQAAP+lSURBVHhezP13vGVJVh6Ifse7671L731m2ayqLtfd1d20ARokeAgECAFSgwCJH3ozb0BDM5rRm5GeJPQE4v2Q3k8jIUQD3aJ9dVV1eV9ZmZXe582beb13x9v3fSv2Pvfcm5nV3Yz+eOvcuDt27DArVqxYJnbsvQM1AjaAnxQIBOz4fcEdtRAsrfGCq6/2Pau9W2WCAHHi1YbLPwiK6+BeTdyJ7r3BR6QRicYy9+7GXw/uVd/3gjuHeA02ErAxrx+tZ/EiH4q/K3RHiw0JgcaLfl0b29LxBxjcu7BxHRwfVxmUR0Fxa4BBEPSOAi+u+hqrvHf1Vo1d/h7oust+5g2wsax/fq9279bWxrx2zn93aXLdGDTG70ZzP6nh0h303nC6vhbv7C711GEjgoJ1eHlHQu2umb8/qMs0v4qGfnwIC7n8jfjfrQ+Cu9WhtMbK6zS+syf1aj8kj0Djd0e6V0Rjs258NyIrXPy87vC9YUMVKtjIA2uXAwgG1+ZTvRuKeEitUzqNlVSrVYRCIVQqFdeJQOPE9GEtfyO4dqgg9F9Z/Ja9o19Kx40KyFCo8h8jPrlVk5jFr6aqa8SvEQLB9RWtv+qaVg6ri79ajTkaEbkDvLbZbWNUH3e1bUi6ulyER6V5p98L7trc9wGN1YuuG42Cqmq2P9eCXWWe4F20vJ9Ur0MHFbPgyt8NVO6eV62c6KPovetYPyEc+Gn1+oXPhjEVfFi94lmFjRBUZWqAZTnyFlwDDmoNSifIAbdJo+xl8r5FvIseNJLTLvFcx3vRxnhXPO1O3NjdJaPVSxyr5M16P+9WoaCOA+tTnV6964B1KIk13kG3dXm9uOVVHxquGU5+v+ptOmisM9hQxvpXHzuH2zqaqT6vrMbLj9dLbKjLL2vldGR+PzRCY10boTG/HS3YKVARz+iEc0X/iW8jVMgH5XIZVbXvB+/aRpBcEs6SUUYHpVnb5M3GNglKL5scakhU2zy3vASVs6h/bv/cdauX7VW8fhteyse/tXaJB3nP0j3w0+1nRwcOP5fmQz2N8Y11FIsFRty52hNEIhEM9Q9i05bNaGppRjAcViXOlvMy3aF0FLLZLFZXVy2USiW1yckY8nI1QODOCS4QsYOaBPbjORmwcWJr8HwQoRpBnfQnaM2fqB4IN5tcrE+CwdXuYI10DjbWa+V4pEixoxtrV6aRydegYhfUD1129VlJw0s42GSyst5A6c+r88Ogsf8/CGyc2AK15weytcPVo5tNHv6F1GfFG6Bx4jicFaSgvHJ3AeUTg0so3g1sDPjnT4h7QWM/fLAWVZYdc23wxKOxD34/7wb+tUal05hWq1UQrtQQ5nnA6KR6/bqD9THJZHKIx2KIhMLI5nJMubO9Rt4yQaQjQyNNN4IvEIPMGGao08CrS6dWT7Xi+s+gMW5oqg5+XkGxVDSB6PNDY37rP493Gw/luyMvs5jCs5+Hj9O/Bj6N/L4oKK7g98eyeHHXvihNijc0ZnTiNRm0fl0q42dp7LfqVXUqU6c1cVS5RvDxUJ0bwcfVD8rjt2Ftc77oKNr78UaQDCwWKQfVvoeDjhvB+qLy6hfrUBY3Lj6d1nAQGL6mVNa3Z3m9fL5x7OfRUdeEa5XK0sXJK5JFHk6KG928vDUpTE8mCFy9DfWpTzwaLqqT9fnglJ4qc3l8UL2O1i7Nxp8hSqWzfdt2PP7E43jmYx/HrsMHzHhDSDLIspImDTUVi0WcO3cO77//Pq5evYbl5SUytBvENU9njdqqxAUJX1eNrorQdiaE2SOlGUG8VtUldtvi9t9Ld/8JSnQVeEd18s7BMYFkWbz0hsN6pnD5Al4dTukqgyfUvHJ3gDeTyxIEHjNLk/v9dUF1sgoNlI5UVqrZr3Ijcyrdv/aDgozHQEOFijnm9Nu2f+vq9/FcS10/jromJtNRCtYCs+jqWktrUBIDEwdNKatV9GOdVrva0lFgbTqw3N55kEe/3rUca1Bj22XSWj+r2k/UQfXfrZAZP7xmk9or1Ii8pTnBGBKtlGT/Hbg+OCiVylQ6CVM6hULeS22EhvpZiap2wtDRoxECHv8IVK8rQBxYwBfSPrpGOb/qBnwax/sOUHU29hIuXloDuHH36vauC9dG8NtVstq1tkluFTV689RHgaLNRby6rKwHfn8EvkA3Ie7joHos5o5+nX5fG0hV5xWBCU8eXXlHY3JrvW/uqg9uVgt8Lgs28I6u+tf9o8koq9GB0hvpL3B8J1q4XI0tbgRdW6OFq0eoGr4KRmOXRwaW8azlclCXsz4KXrmN4+YyqBKVdjUY3lZ/o4nPtmxA1yrQDDApZVWz79Yv0YdzZEM7ft/9uAO14YLkhaV4l3QueRKikjl08BD+/i//Pdz30AMIRMNCzaCudKTN33rrLfyrf/WvMD09jZWVVV3WpXXgGM+lh+j8BIMha5wtGVJ21cfNy2uEFJV1yoPoJGHpQ828FofwxgFvZOa1TjtozNsYv3OASHYWbRR+G7Osr3kDGF4ujxZcGsFh7urzB8AHJ4z+OwLra2yhcclzI93uDsrj8pFdVMjiQfpCNp1t4GRhf7iVrTVHsqfFa4x7o64rBvWlFWYwDI0vOBGM9oqv5bf66kAekkMtvOgSKKcEV12RNJRbA06hRo+bQkY53FhosinNK6d8d/XON6Yx73rE6q2Kzr6SCnKATRjqlO1u5Dtla1Q8PlTvZFCXd2OjBh6H2SXGefRLb6xFWQwfd3pP8K873L2+M+5wFa87QeNb0Gvg+G3jPFSF9VyMK5ebt6K3S6s21LPWfVefQUOVpkjvGJOGvBth3firclLS6pNyXzv3h6JRpqidqtxPIiDh61Bbw1Xpkleuz147jZc3gHkzVkBnru2NoPnlIu6wBnfS1+eftRR3Xca8+u1X0aiopTwceHPNo4ELon8QMoFUaYASrcTzgFYCmLpWdg1UtU+ZO8DqWA/imaC3SrF/7z78m3/7+2jrbPeu8jo7YNhOTEzgN3/zN3H58mXEYjFTQjJUNoJjHteMCGKTUFXQLSMpDIk19nB560rHAzkFyu3Df0+loxxGYy/uwNXvBsaRTwLD4ef/5zX2pz5ZNoD1k4NcZB43afiPDZn34cUDAQnvNVBL9QnWeOG/EzQqnY0K7+7g5RGBxGgqY3gzqN82eTWKwtzR6a61+gT2YI3OBFXdgEvAszR9UDtGLwaVa6xKFqcxjxHVjYF5uOuI2FDAQPkaJ5/HS/rPuGtdcQbWWReydfDOjQCuJ8bHdu6neGCNUMnaUf8sQmBra0XqYHTY2B5x2sjHAiPZxgp8vA2c4bQR/Kt2iSci1V2yGfh5GzMozRsJO/eXZu2c+KwNJeNEQLjfFf+NSevGnZWwooaaGWygvbAG7pq7l9ZYpeHpje36C66EgzVa+zjW0Seso58Xl6JxgWXv4A3Vo6z8+WVtPBprFaisF/OVjsAO6/vnEt3cuhM0D0mntcZoDjpozL/Oo28ANwtcutVQ78+deUtStFQ0kVoRmUCT0SZWpWd/Z1aPBne58D0gSG8nEY/jn/+L/wOPPvpIXS5Q6boefv3rX8P/85/9M+QKBdtAoNYr5UZLxx3VDZ8kjeSsySJlFvFAHT1vgKwO03yuA0prrMe/JmGkvGvlGWwAFZTqjj5Ka7gpvoZN48Tzx2ZtUriExmWetWvr+6TeGsM5Lcm6aiiLQb2rKqf8QsMYmidKs3qZaBYx/+QN1Bu7B1iv9ef1yRhPfzyaMCaE6FVaYx44WvFH+ukGuEvU31oeVVIoFC0mJgiHoha3eq1+O7HgT0ATD6xbNVq9fp0NbYsgOlN/62CV8aDyBIeHK+/649dlNbMty7YGNvEVUXnXZ9XlL5G4AsJOdblrLp/jUwXLa3RRfl9I6VwxjqdZtY2gOhQE7uj4Rxau35NG4EX98YL1w8ugdu9QCkactUTDxWhIvNbR0r+2sQKB13eCo9vdQSXVM5FIXGtr+N54WFv8k2Hiq2EydV04NuKtHnvUW8PRhJdrQdfrQtEvp+oZd+24cdCcrgOjLivL+nEbS+Hijq5OLcfxoH8NxddgQ//VB+/n+uoHCe4Io6zEq2fdyooXt9zsWyPfu2m01rj64urXmDm5qKtKLxbdkqmseoUKZaA8czdOXh0+7/rgKYK7DbVTxDwSP2vTRlTAM526hg0DW2Hiz8baaOnn9uqwvEzR0kEtrBNLF6iqDBVMJFpDuJRHjromQl6IVYuu3AZQ243o+vd06zLnHiA9Itn0j/7Rb+CnfuqnjEYCp3QY/+f/+/+OL33pz1WTXRDTKqxVrHTXSRElQO/ELZeIyYQY3VTL57ptV1zPrSQlHsJhFwoFelFKIyhLjW0qj+/pGAPrmuonDtaeGiH4R8G94qqzrnjWkglKNJHKqP5bbB3UmcHWedaIWk+2PjswPPlPTYgyPg42iTXWOleSR9N7gSvn9b3eD4/RNoC77PLU8/Lgj1PjdYHOfYXs1+eEjZ/WECfiyhoIadJqAnl0tz/h5uWz/43QUBeDTyMfPx2lt52nGUDIIWXxRiY3utXHxXGITq12j5fsj5PfeMXoSr7j5BJuVq9lcPg4WI+zhIsD5W08OrDWmWQevQWXvhHqvM0CJmTseBfwhEwdVM7wXA+Ovta6SzBwbThY61Pd8fOg0ciyuJ2s8Y95wQ1tajw0Rm6ciL3hpD/xvLuu/G78GLy8Iqs28NjSCX9WB3M4b5Qx/ln7Vkz/fFwdDRztFRqWIpnZMw28/zoyj1d+I2hZ1wcbZtYpXHQfUnXrp+XLWjUinWTgaEIcrXnXF7994WT3VoQbDRKfVvXW2Yg7U7omtU1s75LoRW+EjYco1yrloime9cK4Me7xtPpnoRFcPndFOPJoCAt/LTFb1PWZODjycF6pL67QGvCa6nDAArUYg8PZQP2NVGiA1pCeHEdp4hZSpSK9Hs0lL88GsNrYljXlEfZ7KR1/s9Xf//u/jF/8xV+8U+n8k//pt/GNb36DdHWMp042Kh0xljErO+EYUErHI6LS1Xk7c+RTXIPlD18AYYRaWhBuaTaDRgJGdFAnzYLQ0Wpv6Ig66QWPyu66i1qnXEu6HGJp71zWC/MZszFN/GRxD/9GEA4Shvq5PA77gKyDWtzqVf+sLfbZWb/Cx0qrYQvqj+XzB1f57Zosei/tHmDlLLt65+W1c/7TwHlp2tWkJh14ES+f5XWn9bioZVXY5GAJo6VKWiFrS7RRfvXd+m8dUd2ufscozqoSaeyK8rK08YK1pbjjAVe/V9ZKCSee6/6A8Gd9SrdrqodBuS2fRUR7q82VkwfBZFej8FVOnmumaTIyrjVqW/rxaKX+GG7KZ/VbTRa3RlykIbC8MjBe8fqjsQhHKbjYeEVJVov+NwJTWJdDyWG8DhroKLAz4l2tSFBsqMkhcBfw6rSD1ydFG8D10dFS4CY76aYBY0EbQoIZkpp8og+D8jmcfbopvzuz/6Ew/7NN7WiyFI2aReyfzUt3YqA6y7Wypfvj6l9vxNnNMQ94wdXC2oWP6tQYrFXrjY0PDRcM3Pw3T8XLJ/6TInXjIgjagp39CTdrUae6nyO6eRyi/NJeog2jCkLHyijCPLVqlHTUfKihop294lcaaeFwGGUKbnk6dwpjq8mLCk9HTeHl0r1rlqYsapR46ShZ5rVd7x/H0TZoGV7eTjm7pjTiozFWXLTRhQ3elnCPBCuIsp/piSmkLr2MtlKG7VDmmeW3HlzrCq6d71fp+Ju/pHS+8IUveLJEKBnGVDq//Tt49tvf9ojrd1gNsClLcgUa4W6NGnJ3ZA2gKdWG6YHtyO8/BqoeJEpslgNUpECs1JLMUeYQFImQXEHPEpLFHWIbPFZE/DIJSS6x6tn7CkM1kGN7JHI1RhKH+SsiyiChWIxoKSmMVDmEUjiAkilUBiKo5RDVI0EY4UQJBgpkwBry4RbG80xn/bWUy698xogaVJFezKrJywnGo3kIJhwlvFSrr/DUlBMUooELDcALjoJkYo4jDQ+eK7ez3mukjbuHJhxIC29sDBf23YRrQ5oPpiCZ7JSCcPAuCHiisZUY0UpTlN0IMX85XCN9JFbWwK8zQNpqXAKkS410qrBg1bf6PPo0gjMGCNawaOb6JkyLXna1K+Yv8oIJSaZpRNb1g+UVhJPYXAJCO79CjIQqJeJcQDEQIx8kbBwLZB3tTotr1UMEJZRqzGctM8noJi9JNZI2GksG4RekIhApCzzRvDO68JgPV1FiWqlaoo6jQGGa64IrZ7E6yhx3++/wvSeQtxxl1kNj3x21vAZ09BsTMFofJ4/GDjbWWs9VB427y3InhsKKqJG25A9ezrOz2t5tJgerqnIOBUlbCfRyver1bawtX7pjnUYenxp4hsQ9QUj40NjXOui6y2NdIf+UiGuszDSOu+ZOmHHOHpdzHUncnNGOVM0DzU/JhRjHO1ahcmpOIlfIo1IsUY44fvRx16yR/JZylfwIFyoo1Irk4bLjLeXx8tq50HFnjDteC1qiODJJ4yOKXH4VTUnytOaUiE5opJXPE0qrX6cVFKJciwejlFHiTW0BJ26sL0RZFkaByp/KUXIxUCT9HL81grZRB8IRZOen0H/mRbQWV0wWVxl8eq313YW1uAPfSBFoXmwEX+l84e9/AX//C79MpePyr1c633nWHoQSWB1MVyEXLNnAJ8Tdnt0xtFTOnRpI967k6c595JMY69yGcClAQS+CMFcwTOEXZ1wCvMiCUROGAWMeMRMtTQtkVAo5PXNiwpl5JIQqJGqRPa4EEwhzMCJVErlWYKtiJh6IS6zCYYhEiAfLs6wUhKxXKQZ5azEOWo2zqUqGjFSIS1DLfxxk4mKdUX/twAqZ3ywR4ms4E09HDjGolI6GmMKHuIkGIq7zBvxA0AUPlKIBU6hPUCZaOdVhNFYCz10qT9Wm2lM+EkJJDgnL6sS02nW0V/te1XVQ/0JSuKI142UiUKbSUTX8zxz+mDNu7nmEMb/PCsRFDbgc66COi11RefWPhgPpq7EUhNQuG6iw3RrbFUjp2PJGQzmlijYaKzNEmB6RQqD1nYtWUQ5EWFeE/FBBhYpTv6AJLUcr0Uft2ARSqv75fMs0taf89WUVBV6SsI2wwQLrlKKURannfEQv4ePq14GCmn0qs2+itQMdXdwj0XqQ0mEdGy+t0Y3AMdYoOXBHnz88EgoFD4d6CuFecR9UlypSYb9+gupgZRIHYQ6S+EOCXDSo4yKBLdp6eQ3WtU1owHtdHxsUiaPfvcG3pH2o11GHtQrE66Kx+CrC8VFeeS7hSp5X3NiLV60E6euPh2SaxktzVuopXA1TNgSRlxHE5iVpbPlMY8LC5FTGWY+QpzCXkC8VaaiSLyrkRddXl1dM5vhYae6/yQxds4zqH+cUKJOYIUzDOSAP8XspHatDgbixw2EyXokTibY44jwv8Kg5GuVcQDlOnqRMCxWYz+NVH4QCcQaVTmZhAv0ffBfthWVkIlQ4oYiXybXtcHHBHxe/rg9TOv6pynzh730Bf+8Lv3Sn0vmfqXS+RaVTvafSWavVJ0QwIK9kPWh4TWA39LLGfJPpAuKPfBIzHVvQTCVQCtPS4Ji2hmJIlDmA4ZJN7hoFXNwsyrJp8SIHqMQ6tKEvGkvZzS5VXaKFKwRZi1nLQVrirJIKRgwn61ZWtQQpu8cCWnwLmVtsTqensNxRTKdUqaVEOUocZMmpHw6M+Aw6yk2XkAoRN9UtYofIBNZfIyojZF4xtwWrYT34jO+D+NAxhiZ60AQYK7OfXbcrfk2eaGPDtiSjseGpPybK6+IeDozZUpi7bKAJoRqFu0KV3oCNmdpVWQWrVzRwk1JB9NN9PHmWUjyqQ3RrrFs1W3nvzFKEhCecGvM6HqFxIWXHmHk6wsEyuXK+AlVQNTJCRKsIZ1omwqtMdF5TxcZDE9AEA3OrPi0QhTg5VIssRU5tT/6pTv5nXApGQkv4xMg4Pu9KMRbJ4joXTdWOTzMDD0+VzbMPRr963V4ldwGbS7rsHXzwx9CBLhqnujih3i7Bz6ksjkZ25gVBY7wRVIlfp9pgYD9MCCiFp26bMeO6EUyhoZ+2soruRTMQSFerorENHf06Xf2N+H4vpWNJrEJHa8+Du2RdA1N+5BMGleDw1yEACnJJAU5wrzsG/tgabzMe4sUI81Qpo0SFVsqh9nAciXAClWi43r7GzOYM6aV6y6EKbq0uIpPlzKCHUS5LSqly4sS8dn+RhV1z+s8Wdc7yWmYKkZ6SYM3xJGZK9Kx4PeQ9bKl8Vpjg84Ta17Ks0svsdyQYwa6mBKboaU3kCminUV8K5k0JBasxGvZRxqkQacjL8/c5xEB4VKmQwmFk5icwSKXTWlpEjgpHSse1zDLEU0uyroDat6d71hRqg9Ix19gDrSTYnGExLTf+ipTOrzR6OpLszGBK57kNSkeokoE2Kh2BzsO0MhtBOfRQn+kxDzFBhZblXDWK2INPY759K1JFTv54AINbhpBaXMWxwTacvn4B7Xv2YmxqCceGNiGUT+P6rREMbd2Mm+Nj6OjdjNVcGI8PdOLC8BW8srxCfqLyYs/2bRnA4UoZr18ew84tu3B/dyeu357ABwsrGCcz7NzUiY/u6sTq/ALO35pGIR7GR3YexPiVGyh3tuGtiXk8vH0A6RsXMEqvKxVtQVyEkxL0+iDGVbxEy1fsWc6VMEPFKMaPUuHJs3dizhOTxpw66j/jXkWqp8gMUnZ1CvFanNJUzJ+lGV/RxptSCUnWWyETyENTbjcGLugeBmthuBdIWRDYiBSH5fQa1EQLk6FUX4l0k1epm6G6XOWxcZIKKmIuMs9gshk5MvgK09IUPlGWDVMoqYuN4+3zilHC0tmWEGC6781IQIsx9YyE2hN9/BrqS6iKe8pKIEVfsB0xQcSJT7SaR1u0CUVK/TSlYE43cpWR/dHyikB0lnFR75O1I4XmEtQuh9QpKwYpFl8w6Vo57E6kgHRN3rM8AEdch5vMALfxgCesxP0c1Oli+Qk81fzwT/3euer8UgKleGGjEFeSF7UlyLUzF6xvLm3jvHXg12lcQfB4yytnhhXpLlNM5Kf5x3PyCLOXxYpMV3xtpcNvT205XBVY2lINvk+l49PG/jfQycAqa0ixSeV6r6jGWpftoJUUxsWD/ngKrIs6uoOV1bKa0pvocfzMgT588thBtMZT9mB84y0EzWktX2mnbpZewXPDo/izFy9ioZxAurxkS5CiiTVB3G05jP0WD9iP46tZKVWWLAL3t7fhpz/xKL7wV89hORREU7Vgr5bRWIjHrU37z+pYjzYpxKIxFCMJlFez+OL925DbuRP/5E++hb2xID56bCeuTM3h3FQGsXASmUoOhTLnCM1pexWO8PH4sUZlVeHwpSdvY+jS62grLtNworzR8ppd1+t1SlQU9AKZLkzKWpLz5rugcc43jq/SRU/NYrX5i3/n7+If/MavIujtF6hTtKG4wcbzRrg7I6/BxqsieJgjrwkiqzAcj1naR48/ioO9/fjHP/4MHh7sxtNHDmFzcwKP7diCRwcH8OTWLfjZp57E9nAQn3/yMUQjYTyycwu6sivY291LOViwtdlctogHSfxmCohUfwfSSeBzx/ZhgK5lKlrFQGcPJqjM7t+1D/vILH/z/iP4qOrJreBxKpsdgQKObNrCfiUYgti1rR+PHdqJTx7Zjx/ywqcPM/D4ufsP45lDB3B8704yWIn94ZTkBJb7LKFomys0MJx8WjrKc3YWaXEUw0UqLIZQkROZHBfQUqJCgWXJbKRLJkSLiYzZHqzgb91/CD800MUJQSVEblYoWxANGby0Dw1kXFfGxf10fylIAlpLaiXSV3mkEuz6htBEK/DRgSH83H378KktneikGNID9mVOMOGyPn/DuX+NR7UhHJwicmmymss+Xg24Wn6dNwQnOKTkQ8iTwSqRLH7+6QP4Gw/sx7buHqQ5Flm6urrfJDDlwGAKx9jcBSlwihK2E3KBk8rWsj1vTkqtpH4xFBVn2+qjFIKEhilKCh8py6qWYRnsRod5frIEFWT1MjDNjhuCXSe+Fvw0xuvlLKis6vXjDde8cvQ7GPx0L3/DdRffUNbSdPTz+2V49MqpTxUG4UPOtTS1UwopTfdeeW58XyQNFUp2rPC4FnTuruvo06oxruDKu7QayykID46Qta+2/ODwF9d6QXNN9NZ9DFrueu7ElsEoE0wIcj465eMFU4guuBngzQK2p9FvIx/86LH92NMWRx9lyLb2GLa1RdcCz7e2Jey4szWCHz26C1sGe1FI0OiMkLdiEfKllrk47xnklWv1xudF3QcrUbmUw7p3UkQsksGWHjYUi6KoeROl4dmcQpgeTJVyqkJ5pnrlcSEZ5bWkneseTpyYDzK5M8mKmW8o1YKffPJ+7BjqokFYxWola7cN2ilTalYP2454c44uoa+g3bwQTZzUlvIWaJexFJxoaK8NYpo9SmPz8PsHq2+DvlCLfnsccNboh+9RuxSP79HIbYrqfVXRCBVDlPPzbmUpcGQ2sa0iGUA3meLU+Z3RJNJTK7hv8zb0sFOtsQQGEknK4hKGl1dRKpTRTgHQxHJzi/Oo0gMqzc2imcInXKLVQFdyeWIZxTyZl57P2cvn0dKWxPjsLIZ62nBgUxeuXbwA3e/JpwvYsmkbdrR1I1FYoRuaptyv4ccO70ZuegJjBdBiCWJ8eBi3z3+AqyfewZtvvYMLJ9/HzZNv4ew7b+PMK2/i1skPMH/lKiLUoHLpIzVNRn/gGKiESB0KJ/aTCsTdeGcKyaIcsvS0PCExbwYnocR82YgmdhVRehT7NvXj0S0trEs3KiU8OYFYXswiq1o2pISpH7SDa31wbTlh7eHlBf2EoUD1OE+KZVQXyzq2WAuhUAJbB3egmVbYZx44jA4K9/qOuA15yZobzv1AfCW0TXDLEpLZwSsODWNO0VJp6qf1laHupZBQwtBhW8ZgawKf3DWI6PIMMrkl2zoiZaWlNZUra3IzSJlZpapXEatLgYTnUXXLELI2CLLkfe/I0c6B4vJw3EOEQtQ/KkiNSahJgLl0N0KiMq83Bk1A5WHeoAnCtSArUsuXomCIeUKsR0aMC668uzfgxtDqYx67Z8H8tuxpPy9uuIke7mh1iCctr8PNlfPrcnHHq8qnOtQf4ualWZz1uDp8/vaC5Xf1u8B81jMte7oguoqOfrB7iQrMbxuDGFewjUM8F97WB6YZjlajgjuXRe5+PG+gi/D28RAWhgnpbZZ6Q7AyxD1IYZwMR9DdRK+glmO5ign3igxCetAlli2US/RqKljU8zmlIlJ0j1ua4siwnhg5YCcVwqF4APe3RXB/dwy9KSoKMlZnpYxjVFYPdiZwtDOJ7niESqWGLF3ndDnLvmnzUwl9xHV/axz39bRgb2cTmilL2+jVbKZSO8Q6H9/ahwcG2jDUGoVuvdQKeepdrTYFsb25Ce3knH1b+rCttw0DVDDHWlvw8cF+PLVnCFvYboD9lDLMkxZ60WjZUU3UIr0YIYgmMu6bm1uwY8s2HNi7F/t27cEgnQN5X/LetPxqaxGusAsNoFPNF5s/nOcq47K4zJIGHvgzT0kMFD7OLZS7qB0/YVMu/rqcKsoX82hua0F7VweaW5qRSqWwefNmCvbNphXNTTQBycnMo+ql42Edk6tVoLuWrVQxnivj3LVh9Hd2olAKYH5+Bd98+308v5DD1XQZPQNbkV3NIccBn6dyyZPiWSqleC2MWCGAGBWF1ieXqIiefvBh7KGGfmd0BXNlmgLEcfNQD37i409idmEB14pVvH9rAisU5qscmHPTK3jigWOYHL+BZTJ2jopr69Z9uP/Iw+jaugPXaegNHDmK+x49jlp7H+Idm7H/4H3Ys2cfQpUYopWwrc9KWBW1A4zBvAejEy0XSrQw/dhwJYpwOcr8ZEQedR7Q/SO7k8Qj2w7Q49LEvLZSwGs3biPH8zytywIVkSaNhI8bNg46x0o3Pus/xh0rrA8S5LLjtXHDD1oScxNUgl5eqMPVth6rzg1hIV/Atz84jTFOnqX8KirFDNNpfapulrW2yWHGjBb8sopr+crdAwgrHxUDEbMb8jELWlMPkC84jt5RE9VxHQP5RkaMFnu0iSTICZqkIBgK0tbLhjA00EuLsWzr6tFqnPjIi47x6G0w0AYI2wRB/lUtrIvDUw9aow9ysgdoGChI4Evv0s5huugjfpX6oJXIc6LHWhREXy20uiD8bLnB+qdrrID8yIElqV1w80tBpV0tCuqdM8g033hF/a+6e2jCnRKKgfzCuG1rrQedc3RZth5Yg4I2oMiA0JjqGTnDh3XXOF4ur2x7rd87HvTjtiuRc133YeVfSB06NUg+Z1BZu5tnfRHOMlSUx+uP+mz5vfoUavTgFRgvB7TjSiFswe6ksk1RXqrbTApWKI9XcQV5nuZVG96uf2QdC+JhHYuku+HKBPlu8p7Vd9s9KhrU8ROyLojmtvrCvmrnq2hUrGQQj2lM2ItQmNjxyLoLHIux2UW8cfkGXr80jEIxiJi2SOeooNifrmAU/+NTj+Cff/Zx/MbTD+H3Pnscv/7ppzAQilHhdOAffuIJ/NJDh/BrTx3Hb332CWwZ6EeBSqUW1Jua8+gq5/Fzh/fjH3zicfzio0fxP/zIJ/DM3t2ILJfw1K4d+KUn78OntvXhNx4/is8f349igpShk2RLVqEUtvd1UrYU6PV34UhXFx6m1/Wrz3yEeY/SqN6D//vnP4FDmweR49wvMdjuPd0jkiIhFeURMsV4/+CBfWhNJZFdXkGahv/q0iL5pozegR72WzuM3ZzW3BadLJD3jf8ZjLxM88iMst5G3QChL/7uF7+oHK+89DKu3LhuNVjhu4FaI0iZKIRpGUj5FAtExGv0xo0biEajGBgcpPKYc3WR6bOcINH+7cgnmhGl6yZkZPWOz81gIruM5y6dxRQF/o3hKayulnB+fAYrwQim5uaxc9MATp06hTPLRazk85jNZJHqGcDoCr0e5gmTcBGGaQ6cLI/y0goKSODS9AJuLc2jryeF0akpVGLNOHH+Ot4aG8d4No1bq1lcp4Cfmp3H5fFZBJs7SNQAJmcWcOrWJK5mC6aERmdX8NbVcdzi+XQ6j9O3buL8/DgqZKhSqExFI0tLk0wTWUKSIyd6KO4xusW9QXIszSAaWJT/TEDRS+REpN7Fvu4W7A6X8eLkPD2gGIW2lBJVj8ZACkqD5p07S/dugezEIOvUt3zr6axDcdXFuVe/JlRsnL2gdnpjZWxvj2Bkbg6PH9qOsflFXOck1HqtxEI9v4Grv37uX2OwbnrtWttKY349Da2fPBUJeaU6+vFgORydTICyjO5HxekNniavbO0Mo5+W45u3V4lJK8tTqZs1JoXrgilFBqvX6nN1q+Os0c78eyMaIwWhp2vuupdghfTPu+KIZUHem5SFNrPomnmkjLmdg8yjvH52++fVty5IqGqBiLTwguu3AutRswSr0+q1WljO4e4qceDf5BXaoqnqkGGk/Np2Lq9T5bTsLcND9WsZUTjrXKVLPNfRauf1OnhR1aX8DpGG6z5YmgvOXHIgWvt1eIUtVm/NTh0+Cma88Nw1o2NDYOJaDQ42xv1zO6r8Glou8F+QcqSTbf3E/i1oC8eo4HiB81qPCuSiEbx4dhiXhscwMpvFMppwcXQKu/t78ertOZxayKM1UMbPHu5Hhcb3F597B+mbN/HZRw8hU4ji5HKaxnMa3zlzCSO3Z/F3Hz2CaQrzpVweD+/ajL84O4mDLPc//Ohx/OF7N/G1F99CLw2gTzy0G395chg3czSUh2/jzQsj2E0F+cRD+/CtS7fw8c440LcJXzt5CaHMJB45tA/PX76FP3/rLH5hVz/aDh3Er/z5V/Hu+XP4qfsPIdiSxMvXb7L/ZfIpDbUQlT+VZsvcdcQpO7VSlEo1YW5sEguUu32bh9De2ore7h6MjY9jbmaWtkQY6SwVM/FwBpboR9pqIAQ81xjpaDqByUcPHMTxxx8jjV1mj40JOlcBd2YRG1C/Mg/EzNrRoG2Cei2LGLK3txd5unpaMuunBp+jspmZmralNikl5XEWkIATSZqWXs77p9/Hjelb+Ma5M5iPt+C5t97HTHoRJ0aHkaObGUwEMTo9ia+++RbO00sJUnCepjKYoSV7aZjE0ytdtE7Jnp24NopMLov3z5/HN06ew9nr15EjjrVYEueHb+GF85fxDSquNBVeINSMSyPLWCnrZmEQr94gkUNNVJ70AkiRDC2cRXpL8xyYEvu/XCxZuSxDhgq1kGpBJhCncuBk4qxTMLHpexBecDR09POWmC3NwNG/ASggq7SsaNXqpl+BuC9QSkgQq5CEtUbQCW0pEx29CnXUuX48SgVWZLkw6GFApfihnlfBr7PhuvK74NrQ8kQ8nMDHH34MD+8ewuJqgROJXgQNjRDr9/Hw89pyRsN5Y7rdB1Ga+sAgQageGGco7tHkDtKQcHohofYx6g4DW0Z7Wxfu372TVmoLri3lEKTiCQT1HFGewpKeJ9vygy1vMs0UrzZ/SJxzrCTeeYV4EBfio3twWmojS7Beh9v3DcwvcmpC6ai+1eGODhFUuRfYvFuV47gTVfIBA61QHcU3PDCb+6leYa7w/YCPk2hrJYQnD6pbaKk+9VUnwkOgU0X98VgDl7FR6EsZmJJigXo5Zf1QYA7Nlbvk1HzxW7FxUVade/PI+rEhWIEPhfU4qybZBsYJPLHNC1pKI0q1QBNpS2Euc4rze4yafrxUwc3ZZVRTrVicmkVn1xDevLWCKcq0bKVCj1kcSeObMu0qDbKzywXcWqwgP7eMbckoUpllJMm1R6nQtvTFEMwtmTicyeao2GhQhlMY6OiwG/Zvj81iJNqCUyM36T1lsa8ljJ3JGD6yew8+9+RT2NHRiiYqh6QqII/YjEiUkadhigSVSDRJD6gdbWz36sI0RiVHIk2YuHoRg61JRFmXHjKX7NZbFDQKop+khDYVraysIJfJoL+nB8O3hnHixHs4e+aM7VzTJz8K9O6kuEvyeLxfIzgZR3paIBVtkPyxdkH8VwclrYe7jSZdX9vhRiuEiOg+zrXr17C4uIjZ2Vl7Q7W+87BElyyXzRphXC36r6BWNNUraCcBDm/uZ0fpsVCRRMNx7Nk+gL17+9i5RbQ1RXCcgiXU1IJRdnJHVxKDbSlVSastjGBFW3glNHS7U0sQcoOBlUgCK5zFejpaVlU5mEQ+nMQqy6wwzSzhAL0UCvkAuS5P1zhNUuTJeJo9AWqeIK2cSJDWABk/ECzRKiggGqowzvbYRggcYEZqWgIp63keEVaiYI2KftwpIH8gXJobLP6XVWAgOpGBia/Wli/dGsdLt2aRD2kCrIFKr7Vwb/AH3QJR85o1WGe1Gh4uv390cb9AEMuFEL7zyglkVxbxtTfO4vpcEQkt/3hZzKK5RzBoaLsRfEFlzoHiXr67ZTe8KCYKrDPPcRu7PYHJq9fx2oVhPH9rHrU4qRdeIF8scbyLVB7letDzCjpWaeFVyGmaqqqLHGJ8aMJNgQhpF9vG+znfFxBppxDcUX37XqD+Kp/RwQuKi65aEIx4cSOIFxrzfz/g42R168ifLFF5D0qTglUQ+OOpg7rf2IaLWqoF3+OQ1Hc/147JGJ18CPg8Zs/8bAClWz0MpoitQtZtCWynIQh0qPPZXUDF3HKc8+Z05Cy2oG0JthQnfqcsk+JZCUQwnq1ihdRaLFbxwsXbtit2jt5KKJlCM4nSyhBl/OpSEZfHxmj3Vp3nQG9J2kR9KEs2s9rmcgE/sWcLfuGTj2GwKYqOCHmzSrmYSNJQajaaByhPi9k0YrQEIjEqAioD8XmU3RpamcI//uQDONpJo3jsNoqLsyazAjSQQfwKhQw7qGeSwlQKpEspz7oyNIjZU8otVAqIUwA0N2lTAPnddnVSboa1h46yTA/fsy2RoFzmbGA/4pTLEzOTyKysWh45EXohtL2FhqWVWYpa5Xza+2Oqa2rBBf4om92J/jlw7MZzY2SLe4XvAf41NaYPSC0vL1PBLNm3eBYZn6dHki8WTJOuBy09ETgSWk8UL3Ww43/n+HFsodBnBSREDY/uGMJn929n2I3PHb0Pjw/0oCus9ewgfubJB/C5vYNoKWXJNBG7X6IHwrQqKUViywZsx25WcjQ1mXSvIcIErY9HdG+FSJTCWQZaxGFZCBUqILIeB4mylWW0Cp1FspKz3R9hTyiJSWMclKg9dFZkGhWM0rX2TQWmtXXrngitnnok5LC4gVGg16J7Gt4lS9J1+xMOIe30oaIsVjCZLuKN+VUqRN2ToD1ZDbINZqzPajGKO7phbAhah7G1GCdcZI0ql9rVvQWqXJ7rDonWsRvy18t5wc5DWOWMP0Wr7ctXFvHazDKmULAND7opor4JDz804nFHuuqzfrjg+qF7YYrq3o5L8pINREvRX0tDupcnttdDe2OccF+6PYvnpxaxyjGoFQqoaKlTT4evEy0u2JgwXUFKzm3M4ORlu2qOURNy4iMt95kwYFApgR/38WvEUaD8SiuxL1paM4/F5orzS6xy1WCVqITLL6XgKzkdzcuyQKzFL8ynD8/pTQtaulO9jYpH1+8GJgTUMjOpPuWzh2pZRvhpN5Xa1LnhzvyiicD39NxSoYcuz318/b77R8PDFbW8fvzeIFrcA7w2lEMspnuBqk598NuzhO/ZhqvDyjDoqCB61I/Kw7ju//Bg52dm5/Du+DhOjEzQ25jE+eszmEkHMTw1gZZIAG2JGPZ2hPDDB3oQj5DXtLUaCc6kEK+Hsb0lgf2pJLa2J6ik4piit3FwIInzo1n8+du38NaVHPOmEC9EEcuG0VwKoL8tjlqRhi0t5uO9LThQyuDRrXswm4uhPxZBqrUJ37xwGW/TuBpP1zj7pDDdva+tsRR2t3ZzVlBSUWYMNoXR0xzGyFQaW1rb8IkdfXioNYVYTxeuTtE4I4Mm6FlJaurxh2hU90C19OwIkOB5lnIvR9leyxft1onu48TjCSpDtcJAwopujWDzyASau+CoaxRmCc3HNeBQEvwWbSA0ypwoNmHsgoGWxGTh2zRgspbOpFgy6Yw1pmW0Mt3LYqnkPlHKmhNJehhFCvdyCatZTv4oB4hSPxukZienF4sZ5Kiw2mNJJIIp5IpBfPft06itBhDnQFfyHM5QCKlECAe2b0Z7ehGPbGtHZ4oWqx580tO2tQKVg4hXRJITu5kmRmtVu0EKqMU4QEkJtRIClSwnrHMJddNXQQQS8/mzJlglEymwv7ZP3rpPvGsMsoS0xENroVajpaxlGp7rtmqI59ranCyZPUWvSsJMdqAmPYUFmYM6zyaOKleadvrI35N1RcLxIutlsG3UbDNMZRMMJpCktI1LWAgVCR8pWRsib2x4sGr1j5JIglRtCH/rB8vYU9f08vSEgDDWbb2y0jlmtluK9Unw1AWZF0xh8ag+B+NR5KlcqzQA7Ma0Zi7BDswsUV5hvnK1RGupRH5wwl/sLDqwZ6IG+6GcHAUqM92A1xsFFNzNXP+ZJOLu1a9SqsNUJMs4hcDxJw1Lcbr7tApt55P6UnGbB6yU8bALemqcF2k5VikehD6JFdIuywiiGhiCWtP9DfXZF6wSznq1js7tyXzrkTtaBg9Hko8YupjopqOWQKUoIvT6taxoz/YwV5TnYeKqfH4bTsmsVan7LaaTWcb4iGlqSUcmizp2NLBKeFD1QsSLa/7aMjiP7s3oPGe9MnzCErKuGMeC6cqrolaH+IKBceXxW9TcV111HHWJwJ6yDtHYb9fVo9UIpev2tH6uNS+oXmuAwdIEltgQOOoOAXfqpauEYjIeG0s7cHn8YD8ia00JKUOSf+qfV1C900aDHNlgvpRGcXXOduJeHp3CymoBLcsLtst2oVSjQI9g3852bO6N4Ok9A9jXk0J/7wB5nsYvca1wEvW3hPD3nj6KH3nyQYzkInh1dBkXRvJ4tDuFX//YcfwkvZZwU5L1lXFrboFtFPFzT9xPDyeJP3vpMn5k2yb85g8/gT1H9uKP372Ai9U4Ll66jp97/H78g089hoMH9mMuR/nJOfj25CKSnMy/+amPYjIYxksnz2NvVz8+fugIXptcwc3hMfzyEw/hhz/xcbydD+K/XbzGcdEGIM1VzpNIE5JxCkjNikiCxnMZzS1N9IbKtiksFo8bLdrb2tDR0U6hQRkXi3OuyRBnMQU7eBGCYppR5qWT2BpC5274BWju+hsJXn/pJVwevsaB8UaDI9X4xKmY1od0Jo2mVBORiiGRSKC7q5vakG5cIo7WrnbE6J61EtkKhXCxSI8hXsNMpAvNu/aTWDVz/QQtZIiHd+7Ha2euINbWYSLxiSMH0EXhdvbSDUxRgbRpP3trM3qGBtHNYrqNsxIhU0wtUcBk0RnIomllFk1UKj0U5O3FLFL5FbqhY4iUiWeEwi0aR5790iSMqAJvZ4+mroSMMTe7amhx1thblpnm+uxNQM2mtZmuuWtgXhaFi3Zd6bLtyaeg0i49vceobO2FydQhXpP4pKDVdl4yibbzurZZkucWaE0EKEilNMIsH2GQvNJEN0WiwDLCMcB6dK7tyyZIVY83ma1aHq2XJmQo0JnPnn9h/bYrzPrEtnhdu2CCapfHgDxLKil7DQjP9RVAv+2gljXVlnBQmuEiHKjGLa8LymPrxmqbcVntIqc8T+3uM+kkJuRY2E1+5hM9xMwm1Lzg+NSP+KD+cXSInokh1W39kSmh/jDONAUVJTq2DTTG+lNU5vFgjLk4Lp6Ss+eseCZeUI12U91rTsrAlC8Rq4jm+vHcxk2B/WAWw1u4uOBAQyGQYtFVX7nXMwhUhc4tzaOnTutpOopwSnN0VxX19gnCzYRrw29NQfBMxS0/cfGqU/+k2HQuaJzfViv/2aMPDO6K+uz4qhHMOGWaUdC7tpZlrc5G8IZrXV0Oa80PF3eJatMiLs0KeHUyak0LJ51bsmJrYe3XAMrHgkrTuKrKIA0SGQYpyo5ff/xBDPR34rUPzmHrpn5Mnj+LjoGtWM7l8UtPHsBQVwtZ1s2rWDiCF2/M4tJCGh3VDD66pw+LuRxOjM9jngrry+9dwOWVIr2OeRQKWtjN49LYDbx99TbeUp5sAfPTU5ilVzG8sIJ3L99GPr2MecrM564N44XhSczS6BwdvYVAOY8JemHvXL6C129O4eZyBnM02G+OjGNquYAzjE+PTWL81hzG5rO4tMw6b48gk1nG+zfG8JUPzmJ0aZkGujYRaKWJ84TyJkYFlCyx/9kVWueraKISSiWS9pzOwYMH0U+529fbR5mfNZppPi8sLCLVlLJ5LhBvOSfFgWgjE5IEtrE+tu8gHnr8IyYvbFzsjQS8/r/+zu/gKy88S2vb86kJWoLxK5On40OeA6DltB07dtjH3vSGVd3bkZBZJXFK7FgX4xcv3UQsEUCSSvJ0yxH0PfBJFEnobEQ2PtBJ1D666zBeO38Zvdv6KahX8fT+LahkS7jAQQl39WB/exKnLl1E964DGDl7lZqW2ri3G2+du4JmEmmwlsHxHUPYt2MX+to7UcrmkE6vYHJ5EkuzC3jv8gTOBduR7u6nwqKLWNCLIkkJEopkN0Gg5QQJBvVVwb5Vwev2uV1CI0F9sEnsgZRVlAzsHgRT3SEOrixLCXp6hMwja1z12AOkysI0jYGGwe3q0LTVNQ2KKuUUVJxRlZM1KsHut6s0xXUqgaO8SqvR05CXoSeHdJ+rSMkcotKz7a70DqshOuasX4ynd69p0gbJfLb1UnWoRRNuakTYuajh5MV5gUcleOVZznCVgmE60TAwpcY/CWS9FypbC9v9GFlUyhIv19BMi099sDHgUZ6nw8JvYw1sHZkgqjjMCEwSTi64hUMlRmO6K6K4rHAOEPPp1UoxOpLxsl4LG8RiLIpFWntl0sTRg9kJ/vKS2jCvknHhJrr5dDCvlRAkDRV1wtGrwAMZ1jY2Ho4qqqC46nFlXN3u6CrVf9FEuR3vuWDeOUHehVIEwk+KXPWpiNXFIE9Wwyca2HIIi1Zk4TNd/VMDyqp6hN/dQPND9Tkc1C77qkICr4w8SUcTh/t6WE8PH2SobQQ3pvSDPTnjt9kIyiPvUfhrrsWL4hFSg+fO8/c6fxdorE98ZDlFZCEf0gOv9FKyGXzlZ38MifYWnBwb45wt4YPX38URvUlldgl/72P7UCtSedBe0WuPFooB/OOvf4Cv3RjF9lARf/hjT2MkX8Rvfft9BDMZM7wKxM8ZZzT2yOv2yAnbDFZKlBHinRDStDXFLC1heu6FIsLRKFYKFPL0NCr0OihCkaCMzaxmzVuPcK6WylUk6TFl83nOdxq9UiK6x810OZaFSDPbzZMR0iS4DEq9xDhHPpf3GSH/aretNi5V0cyQf/9F9M7doLwoYfvOHcSTBnOZspLeTSQiwzloMn90bBR5tplMJp080o90bNQPjhep2GRHU6n9wuf/Jn71t3+bOGgVgvlr4k6ClM6Xn/s2E9zg2MGfFQ2gsdUGgtWVVbpiKfR096ie+nJPkMonlohiYnQUK1QATfEoos0xTN33SeSTg4iki3bvRE/rahpJHNZ0I16IUyjWQgWlUADQ0pYpS8K5exoxBEXI6jKipRUkaQ3siJfxSz/1Y9i+qQ9FauIKFZommLDu6mxHsZTDzZvD+Ma3vouXb2UQPvgAxnQjjR5YlBa7LFebgN5M8hlzzcPzJ7271qhoDDyhLNAEtedpmKeJrnKSzDKYXUBl7JrJcL211oQo6xka7LeBkSeymlm1DRhx0iydI460MISPBlHbfZNkJhFdjCUoFArGvH39/WhpIT3Ynphi5NZNzGZWbDmynCkjunkfVrYdxu1QgsyhPGHsKC2jc+wyabWMWoHMWKGBQCsrmWxG/8AAsrksCqSNtkQWyFh6MDdJN9tejaT+60cS6JXuJd0ppVImbyLCCZGix3v06DEzQhL0ckdujuDWyIhISK+c+aJJ1B79ON6LtqEn0ooVuvu9kQJ2LZzH/Ogw8qsZTgUnoDUHd+3Yhjg9aZFfm1MUBGUtRZIW2k2ja2YkkT6irZ6nEILJhB5UjmL/vn2kPT1r0n5+YR7XrtKj5sQOUulkaRmGt+9C9vgzmCJuWtoT71gbHC8F4aK3Dysufm18RY6f1z346/I2cgdPqbiIF/OpDl2TIpOwFPiCXnxgwKN6YXXx1LHaGv8JnELl0WtboPxarlQuLTlZfUzTtNY1nYuuartCnpIhIByMn5WVDVEkqSqLN7Z3h9Jh3HJ6WVS3lI5A/bGYKq1DA6INcDelo4L2Ql2Bx+sbQTImymuSH3kySVNBOLh7Vh8OLkNj33wwgclBEn3aS1n846O78cnjR+zhzeGJMQr6DA7u2I8ExzBFni9yjpfjESzRSn1peAl/9Oop3MyV0R8u4vc+/ghG0nn8/nsfIJVdJV56VET3kUl34m3WvXhUu1RBjyNQ0AjTQGy25UhyGelYMvraS2hpDEYiEc61CjKSpS1JGm001GIJhKkAChG3lB0sSV5SoAdiPM+iJRVjuzR26cEEqQQDNDqDyRKW8/PIs/5wRW/jd6s8ekwjw5FunRxG87UTiBYWUcilsXnTZlMsAo3GwiI9Kc5B4SMPp1EWNsaFvBS43cvlGAWqBfz8Z38Mv/7F30OIZQVO6bDM//bb/wR/+dw3bRAFdvP3LkpHl2UpyNspUPALiba2Nu/9PCJbFTOc0OViGb1trZywIax0bUPlwINIm2Z1dWsZKs/BELGbAnEOgB4co2XAmVOjJSyLxhiZ/OKENTUz8yToojZlZ/FQdwq/89N/g9dKSFO5tCRS6GxuZQvOsouHIljlwE/PTSG/sohvvfASvjGaxuTgEeUwoSUGkDAxxlMbDeAT0mdUm6RM83PZVU/pKE0vrdRkks0UpWDrpsWRf/NrCN46iUfoWh7etYflXX8Ge3o4zJoKtB5KeSdQee02rYhz58/bzT1njdGF15IbaSGls2nTJuzctdva7ujsQFNzk1kkwk116G5Qlcx5/uQ5Tog5dH7+F3A91ka6sXecKIM3zyHy4n8j86bwo5/+GDrInNr6mGpqQktbh9FA7S4urdAtTyObzuGFF15AU1Mzhbs8MdJV1he9KeGtfj/62HF0dnUhRsU3tGmI4y7lGqC3mcbC3Jw9s6X9/V/7ytcxfvhxTBx7Gn1UPMuVKHqxgo63/xQrY8P42JNP4cDe/UZD3QfpbmtHjDjrredazlV9ZSqc11973W5sFnI5tk6y0doyL42QoYd7/PhxeuDbbTJ2dnbxWgAJKqF8voA0+TIaimJ5pYSXXvg2nr85hsSPfQGLbX2kISeiJ+salY4UjYSadrVpndoff19pSGCZMOa56OODLoueJvQblI4ZXAw6Vxl5V8ZFalsTVXUx6tjv7kpHdSrm2lAQxV1dBjzxlY7AXj5JsLpUiKemTJTMa9YXXlMtjfPg/5+UjpoUb8Z0j4xt5DgtTJlTCFs/7gEOVcNayLqjwIvad5j06h3m0cteN0dr2NHbDImzmpaZ2Zj/cLP6WJCHEKXHTgV0ZTyLqUzBFBFVIQ60NyNdKePq8iLaOQ9oaaEYkDFDQUw66e6XjFJ7EDWoTUp6I36VeZo0xTl+9CzodcnglKEdI9P1xuJUAANsL4d4MoorCwXkKHv39qSQm5nEwFA/MmyrTOZKFzj36M33dLRjOUvlJGOTnsatmTmkWpsxTmPz9tKceTdJ4uneJh6DZlKsnEdi9hbaR8+iurJA+Z4zeSfQVnB2wea+r3D8a4LGuAjrKx0p7mCliJ/77OfxG1/8X+pKJ/TF//mLX9SYvP7SK7h4/RqzO+HCmow1HDsLdNSZYwy5Vi3NLchl8xRQWdu1try8giUKh2AkiK6WTsvL7qJ28CkUNVjkUn9tv6T3ODCuXEOpJrQn6B1EQ2jTDominvmhVRHW0/McIBbRmmuCeWLU5O3FRXzx538Cm5j/5q0RhKJx7B4aQgeFcEr3mThQkWQEiUicwpEDzXyfe+oYlojj6HwOpZYu5MTYDhWiIQvPuncnQfXTNV0k+AyugyilS0rTTVpTqEzTh8A6ONgLZ9/CtvYwnv7UR7Fn2yb0dLWji2F5fpbeijZY5I3pZJm3NjejRMF44dxFRMioWqc3pFhvmSNeZPzw0aPoHehHgkqiuaUVGeaXAC5xIrZ3dJA5t2BzXz/6e/twYWQUhb7tmCbjh8koeSrClsVJtI9fx6NPPYVjxw6jS3v+W1rMu9FYh8kUAY6LNoCkiI8srdNnzthNegl3TRvt5c+xzUwhj66+Hhx94AH2nQzEskXmW85ksJBeZWVhtFLot7S3o5teWRMn8PsLeVT2PowQra8CyzSFimgaOY/eZirBH/4suro70dLKfpGHlpeXkM1nMbe0iKy+byJKU8GOT07i8tWrFDwBZOmlreQznGAZrNBLLHLCHbzvCIIxWofszxKVldJXWV67cbRsIQWaaGpB51AvXrs+gtzQAVSSrd6Iuv++A6u4BI274vhEaOhgw8MgDtB1BV3zQXlMOTSk2b0dpuuenw+qw2uOYLW4+lx0HYgXVZ3KGB96eeyeU2M7us6jn0+08rJaui08ah5yDIy/dZ0XlKehGuLllKAPutZw6sVdiXrZxgzranOgy75huz6v8CAleEnXrT7vupVhEI9KoFlfmdB4/V6grKrNjhvyuyOv0uOQcRGg1X+bc+Hi4gqurZZwfaWCGzRQzswt4gzTTpN/zyyWcWEpj8tzC+RLznmWr1WzyAQqGOe8mFlZpUGrJewop2+QCl+q22uJ51pClRGjMXEUDtuSvOivpfcix0TntvDGtC7Oxc7mJLYP9VE+ZLBIL2VhdZVKgyY8cdo0MIgkjcgclcT88gIbqdCYbKHBmKc8DSIeq2FydY4GajsKVExLqznKVPdAtjbOSEWEOW9y4RAqLNcVoUKlXAENX8kd94G6KCJR3eehEib+ws2tBinIgnLxIBnc7lkatdkH8piW147s2ovjT3+0bhw6T4fxf/bbv4u//M43Key1W8vZO3rtRLlAbVyliyglwYo1cK5KHqX+dGTwLaQQNbh9ezvWhMXUILKc1OnOXnOzREptTwzS2szSquijsvnElkG0UZks631GsSji4RLmpilYZmYwQlwqejt1WfdC2E6qFdXRc/j5h3bhC888hgDd2i+//C4e/tgncLSvE6F4DQvZNBLxJPNXkYrpwSsO0uwsCZ5DcHUZv/sv/z2e630cSxRgUXpNej2PBH+9Uw0gdnHd0gXHGLYsyFOlaHIL7EBayY3WUofus2+JlFF853k83N+Mj3/uGdTosrZHYrg9chtvnDxpijJCmhZypAsZLca+j49P4CSvdXZ1UxEl7WEsPYSr3SKz9BoeeOhBdFGQpynUpfS1rKZlM+0YPHTwIPbSC8qznVg0ha899wZO9O7G+7UkmthWJpbEgfGzeOD6m3jyc5/D4GAvavQQtVT3wgvfxQrrjLPNvN4uQQYs0nqSbHj//fdteWpocNCWzuR5hCnU5+fnbWl1957dttxaIKO26MuwZKyyrCgq/6cfe8Is0WRzAumREfyz0xM4f/iTaGK7q/QEB+PA4RvvYF9bGJ/56BOocNKKGe3tE2c/4DjGeU5vsEDlqodRoxFMTkzh0uXL6KW3qMGp6MYozdIs+y38HqASbKJSlmckYdre0UZlEbTltU8/80n093Qjx7ZTpN2//ebLODtwDMupDgoCTRiOHfssoaax1a6vGCeqWMAEhebW3cAr40SFYxm7Vcr2FXf/CKxTglN1+16V+EkelExJP5vy+YaPm2MMxKXuCejUHeyothX3QXHV5o7Mw8kv3tWAqlmrmXF2zcDnc6eslNFBHQcxggcS+l4yUW5IX4sa2NwgPV0W/dMSE0fT67euq31TfgYaaebjn2ijOSavUKlRlrPPKogGfjsm6AgyiKx+AQuxoGqUPFJT1rJLZlnJEdbIROXx1UFF6xOcv1qryNFzdXlICcNNwdXP1vnftSuvxd1LU0t6TlDP2KkNu2ztq36j7QaQfDDw8iqL80I9nBXXRR3pKTSRV7ubO2z5W+9+02pSimUiwpFH25VIvGy3oHaOSmZYFcKpSjmij7uRn4ucp5rfWhb3ELVPe2slRCesLF6g76OviC5PMb6IBBVqkLJZ76g040TyW8aKN26immJ6T11wlV5fZsFukYhW9h5Jem9/+zOfoafzTzl/9TEH9t/3dN58+VVcvn5VPSDh4gwRanF6F5EAYrRiQ2G6iREqH4YIhVKElNPrbCL0TCzO9Jg0GQXrQrQVk317UNm+F8WmNruhLY1eDlBAMr88gcFkHD92/Dit/iV8+YNTiLbGMDdyFVcovPZsGkQrmWBhsYQSPZ0QrQgRTzdCy9M38Tu/8FPopHZ+54338Pp7FzAxtYqpmSlcmZ3EaXo+tydnMTE6hszyKnL5PJZLBbS1dKCVnZ6bmMazt2gltLUTJxJThNTgeRxgE41REVJxmxwksN4MoCUXpWugJYSMyXiuPI5lWQvx1r2F9jCV6NRtWg417N63hzTidQr486fO4PbUFN3lsjGA1krn5uZx9dp1O8pzSSWbbEKvrqZNoSgugTpN5Xnr1i0qiDSWlpdNWYkJZllOXufOHduN2WOxBC5fvonxpk5M0GuK0UIpUMF1LU6gd+Y6Nu3cgba2FiQoxKXA3njjTVu+04Nh0zOzmKNCGR29jbGxcRPetluNYMtapKV9L4P59XzW2NgY5mbnzNLSZKmxX3l6v3ky/8F9+8zrFH8VFubw2mQa07079VgtvaIaUrT4O2ZGSKuaeYIhpinzO+++i8nJcTMYlug9657X1NQkrl0ftpuZmozywuzTwJ7C1jKPPSu2uMi8epUSLU7iqNd6KL64sIjdO3eir6fXJqme+DlxZQTTLb2mkElIThAtpRgKNvkF/ithlKxbjHcDXTejiBNZy3BiCrfUpQntzhVUh0Cnlt87Mer6FwVM8wV+YyFnXTrwrtrRr8dPW4u4aF15eOmWxkJCUTytd96pZp+/fajj0ABW1kvegPI6cG2tZZR1LTChymS1p+AEuwM/ppwKascXalaOQSeufS836/ViBMXcmWvNzU0l6Vw011KnKUimySjQddVgrTBdilCeo/IKQZ5uCMrNYP3RbHOcIpw05nWZIO+FEeHvFayHepf9NA88tBzwRDWLVyvUIGnNKSocu2FPI69cKFOJaM4yD5NqzFOlMaW8yuIPtu1sVD7OS81vJStY3Tz67eko41uPf5hlwDlVTjSjlOxAqaUHlbYBlNv7UekcQKVjAFXFGartfSh39COxZTdKkTZ79VnCHsqQjNTjIlV6Orvo6TxNOeJcfI27YVB/aFFEY9CXGeV+r7YPorj1ILCNYct+VAZZef9OFBhy/TuQ79uBXN92ZLu3IduzDRlejxw8jtDOQ0jT2i3aemmVxNLnpOmyUfFoD+szRw8hsjCJD8ZHsBBOYGBwCE0csRvzabxw7SaG9u7Cnha6dNTWui8kK1MfcNve14v+jk4aAFV8cOo8picn8M57b+Ll99/DdSqeTZs3oZUEW15axnsfnMV//tJf4Ct/9U1cuXEbBUqEI4ePIT81gQgHQbaIvLj6eooHNigMegeac4W9MfSPLmr0UpCV5E78enSURaAdIGRQcp8Ehu5/mXdCYR+nMNZyltZIy8Qlk83wPOzujzFdgl33QyTIVV5Wv27gy6vQt2+aUinDYXllxa4LAdUlT0MvKpRAtvV2jaflZD/Indls1u5naQeKUI7Rm9LyqLZFax7pXIJc3o2s7E7SuqOjw/hD+GmLvEDPaZm1wzLqj+JOOZGP2K42KEhpRHlNs8/Iw19Ak0MNGU0CbnmQef3XpyuIN7UlU8t6SbanG5rKq/aFm96AKzwV1IYKqe8Kuq5+Njc3u/tPrFdpLpA+zK8gfGQRStw66jj89COCnlBh1Eszy/deQWU8MKGzdroO1I7jDMdTSvA9BJ+v7gkb6/TbuUdbd4BX/8Zm/PO7VuP1byP4/bZCDNYHP/jgxVW/gnkXDOq39d07bwSdig76zouOUhBRZ7Lb/P9+QOXcfCXPiSe9ttS+KQWXzcDyOpa9Aww1r593Cxvhbmn3BGX9HtnF7+JMfSBSHCNjRoHJZjBpt5oep1CfAiX+oxeDEmUD6SVPUcaTls/qL9tlUGH1VxuobAwEG/peC5SZR5tNIshGkliJNWORYT6RwkI8hflIAnOROGajCczyOEfZPReOYzhfxiodjIztilPnJAdUIxvYQBs3lEJQgopRPcilhyhDtRyyPC4M7sfC9oewsukYlrfch5Wt92N12wMMDyKt9B0PYVVhJ+MMy5sPYS7ZilphFQm9maAq4V5kZzSRiQKJGCVXDTXTG7pxCbW2GLooHLqqEWymFt1CD2SOec5OjVHB6D5QmYorShzDiFE4b+pop6UcRDFfwspqDrFkBEce2oPNOzZhaWEWbbrPc+40Tl84h5VyEb0DW7A4uYhLt6h0qPDaWzrRxZ4m6FKKIHpLskCD7IS34wdZPLokxlSqBs1uCFsfHAO750p8oWWLA3Z0JQL0GBawmskw6hhH1nmhkMcKrfc8hX+aCsMHCUVZ6hKS/ifDhU+UHqZu4kvRSFFpp5j2ykuBmdVP0L2GEmnTOLi5bI5ClRFbFiUwj6yymZkZE7paCpPyKbOcFJTdaNeSFNuJUmkL9D497ZaTl+XTRvjZMhuPwkF4a8KZYmIeLdNpt9oSlb5w0rNRet5I4l1PN8sMk7AXXaMsn6YXskLvRN60cBTpssRd+EhBpkk/KV/z9qgIhY8sNqOT8Nc9JnpZ6oevwAUqI6UjL0dl3K4/GUBsgmQSziP0GotUvjYhCfqmkQwNDaRNZh7Nc+FRxp90uD3/4gUfVNxtPCDtaKWIp+wtyR7N6qAiXjETvjzWlQ6DzjeCq0H/HZ8KdOan+EEgmioINBbiC3/cNoIvdBwf85xBCtNfEqorEg9Uj4IEin+psW3/6INdYya/db8qnVtaPbIGPv5WP4/usitZ75c7NIBSfEy8Ejz4c9fw5D/b2cd4I439ubwR6jjc5ZoPG3ngB4ON1CIeGi/OJQWjNdMkWWwceG6KQt6Tl2bjqvGgVlVfFVStPCMF27AgGlhw+ezHsua9kz9VQMuX/thKTpUCCc6DBL36OGUOjWQakhGKrzAZJUQi6vVg2gTBmcL+a1FRn+yWZ6OPi5RQLOvT2z5d1Au1Smgw7H2J6Q2tmJAsV41zkrHhfMVuKusmbKacR7akZZMiClVOfiokhZIXyl5wL1RkbWxEn57WU+Ix3QcgYlEiqWczIpEWFHJlJNnRPUPdeHTvoN0sLjZ14NBQGx7dNIh4tkQBy46zHttyyC7ZDTB6Pjpfml9Ciorr/uOPoH/TVszNZVANN+Obb7xNzRxAOhHFtq070EONrJvSZQrSCoOUa8qryzwdDoBHgjoYk5I7tZslyiBlY0LIu25MzaA05TUm1bqoly5aSsjOTk1iZWWZdGCatafV3xqVJQUtFY4EogSpL8SVR4Mvy18KpWxC2739QG9DsEAFMb8wR+8kY0FCW/d7tFTXgCEVhvaTsh/0NvVlUGGkt0LPzWmnHBESnsKJwcdlZZXKkEJYAtpXaAJf0ej+jxSi3xf/qPs783PzyNJjkqJYYn1a/mMGEolCjEpO93xmF+aZm+zJeqrso7Zdz87OYJntameL6Efms40EWrpb0SuWFpewyPgSFZNRlbhriaFUohIx5SPaOLpJCeoo3NUnKVE/qH859ssmH/NIQQ0P30A5l7VlANWtNwVoTN2ZN46atDza5Bd4tKzn4J+SVIVSdI/GlmiUVddUzivr+qdIPalhxAj+SQMIV/5xorOPzLUW1oPh59XrghsfG4O7gOFFqC8TKyvPff79QcGUmFfWV2iuERoZJJC94ZrpmlcKuiKFviaKCEpk8OlmuHh1qX+KKouBF9FBdK8H9leGju4xyPiR1+vTQWMpPFSv6nfegIemNbxWk3sZrtK/N1hxgkoKX79+XbC2Gypyye5c94MUhJvD0Uur1yh558W8CnWbQdf1DSK96sv/JpH4TlvhFRc/22vAeK7r2hFsb8Rgs9rdqw1P6reMEucKSlaTzxiicgp0D5+MEWRcb9mWwa/dnVJQjcHuYFI+62hppsgIHh0lWcW/1jdLc1Afc39wNalltZVUgV7dT22nB/uK7KyCbmLJd1kLmmQBMhC1saxeHrXdTw9FVgJytdRNNqwvA/IXqIZRodAJRiuYya9geGoRTXTR9ExIJZxEMVfF1aujiIVbEabcjBAZEdleG0MCTVP46INKFIHY/+j9OHBkH3b3d+P4od3oSURw3+7d6G3vxo7eATz9yHHbbvgTf/Pz2DYwwE5ksFxYxEwMyMSFm8ZhjRgGRggjlx394IZaVob654KNoyoRMJubbEqgYCaRa3rmhqd6cLRWFvMHTPhmqSx8wS6BrnGXN2ODwQFy1RAvBg2Ygk0eBm0qkKDNZTPI5jKm1CRQlddZSQz0LFzdxJrnKiO3R9uHpVSUV96NTVDG9f48KWZ3wz5vilBlxDBCxgSfw8rFGey+Duu3NP5y+ZxtbdZRykvbdLVbTApHb7MNS+lz3OxlqrSedFM8rPsysqa0YUCMaUCc+JOS0dJbmPn1NgF7fsmhQFBe0UUWl+KOTgIfP3k/UoAKUs7qo2jog5YDbZlP2PNgwS44Ianx06jrXXzaElviUeca8zXQicbNBV2XcDDLk2ccbq/SNfCL+8nrqlsHrm4XGOeflIPfvl91Y5AxaW0zEzExA0cUcuOs2deQmUEH8ZxdEy0UKLCN5xqz6qSe7uaBbYnlkckW1Fk7MBiQr8ziVTscD+sJ48LRgl+5V69kUojI6qigevT9IskeG2WlMVH1WLXCRWV1zrARVLWB8rqDtV+3/nku+tgrlFgrzSCTZ8psuN0F1LYfVF75LN6QX+cCo5URhsDrNn94KhwyNL6baIQ/0BrHQ51J9MdpBMkYYpmd9BgOtCeRpGYQbiXWUZUCoLHeU8riWFsVj25pxo7mOPqCZTzQFsNntg1gf2cLOumB7ErU8KkdfTjS0wXd4X24I4nHtvXgcH8HIuThHHnD3fBwY2g0VeC56CzlJfkvhWVHzROT62tcbsAy6pPNN/7kHfses6tNvOXldYJREQuWRSDCWWCi9orrGzH22d4Y3S1WqcbtJYRsREe9ndRPU7wWitAFjDAeZWuyWj0hIYYLeGvojAv07e7F8goSQz2YvD1Fi3OSArSM+aUV3Bifx0o6j61bd2JsJs0qhDoZQ5o7FcXl27cxubCAzoE+HHzkPjxKxfOpJx/Bj37iI/jk0YNYun4dSQr4L/zNn0R/RxMe/MhDePDBB9DMAZSndfbqWSx3tmGVglnb+aRGHTF8MKSJr4jtBeFtuHsEJqEUXG+Yqs4ZeCk8WBLpoiUmu0HNQdOylgSfLG8JQykALbP5y2k2kFaQdoOa5NGYl8EEpK4xyErXt9SluDIsLy/EBItZdQymmNg3KoUyPVO9oUA7WSjjbaVPY+xbgKpWFqHu68g7krci5SFrUeAzlS/MpaSkkPQ+Pf+eju6tWF9yefYtYw8Oq2I/r/BwbzxQslSK64fuzNf0SnZ3QamMMi8nhtGIykJKVUpMXs0axYW3+sk2iLv1lf3xlYroLKWrILykdHQ0RUNcpOAFGlJiZRavPBWBCSYGeSvCSC1qi3NOzy8rn8bdo4XxjSQkgxSVPEr7fAJ/Ni+8Ony0dbAo/2niGfnqM/AuwMJrvEVc1ZR3LlpoZvjB/0krCQf7iifxEy4q4lfj464gS1dr/raUbIitB8vjam0AnTHwmo5rdXtxJtfb8v4brfineWQyhMHut9h1Q9n6Zcac95NA1Pd8FJwIc2nKo6PA2nGX6uD3S0vQWpKWIWa4MlgxHq1+xvXwrjwAfdJCwlJC06dNY511sPKuj6bcvbgBkanHPbB5Sx61Le3WqtrUri6gr1bCrzz+MH5OH237zFPoomzTG0Ie62nBb3z2o9jW04oc546Urj6mF2KhQ83N+NlPP4Mff/IB/MLTD2NvIoiffupJfGzvbvwdnm8tLuFvP/UYPnrkMP7uU4/jsY5W/PiRQ/jbH/sIvvAjn8D9B3cgQ7zzpIl9VFOBWGnFx4wIDzf/zSr6BqZoUlcmll0dddEw8+tnS7JMk6zUoKpGGzVdr1sYayB6WA31AXSxe4Ku+oLwBwHn8ah7WYQjOXz79Cm09Q3ih3dsJXIlLNUotGppxJsj+PxjB3Br5DJeWqJQjWgrK2cbBVROGjeWwndefwclWscJbaUulm1LYGdbG47f/wAeue9+HDq8F61NcRPEek6nQM+qQ/cpljM4eeoKWnrYZpHCUkszinyPPn8YaCwcOKklerrP/KpWV6+sX6Mbg9SLLYtROOuoZSQ936QJ4oMEqS80tYxUKus+hrYT6zUariYJUSkeyyevqeDyyzvQ0fjJQBGVkZJRTILIw9UbQzGNFJeW/WyZbWWlLsAFUhzWjpbEtMymZT8Jb08xCZRu+FIZubjbiODvuNL71yw3T7VWbFNQ42r4uYPRjLRyGzDKpni0UWJ+bs7l8gS8PBzRRA+oqj3DjUE4m8Ag+J6kcFE9qk8EUH693sNwkcdl9HT1WiBo7hguxFVLrMqsiSjvzV+qdIEXeC5vyF/q8A0rTTqBKTFFmFWKzZSbmlRoANVt9bNxX/CpJgVRTu2qaj/IE1Pb9sJa5eFBrzgJVzThGUhb7Qa0t7CrbQYvq0FDdB0YOe518UPgbkrLVbTGbxvBJ4XeZq3idl9M3fqQ9o2GvG431Xnu53W844IuKL3xmuHnpdXzMsnPIyz132x50tU8Vq+cl6VOR4EUtW+YGG1dcr2MQGMoBejjq3TF9UzQABN2NXXgzI2bODzYjWODffbQ5tFtWzBQTOPTRw6axCxGCiynsYwgkWjHtz+YxJe+/SZ2dccQpdJ56eY4/uVffROD8Qo+vakd/Zs24f/47rvITQ3j0GAvyiw3PjmH5ZlxbOruIFZB2FdWJUt5pvCDgd9TljWB4ukC/pln21ChcooG7rpG24V6y1aVFfAr1YkyOaFhhJUQYTC31gtmYXtBlduOqTqoDolZ2SpqrELtWCYx85jJ5PHi2ZsItm3Cvj2bkUQOQ030TDYNYX4xh7evjWA1TAs+kOPEySGu+xy5ItoHt+KvXnoTs7kK8qxjcuQ2piamkJbHQEY5cPQIDm/bbZ8HWJlbweTEHLLLafS0teO9G5O4FdQHjuK0dssoECNtm3Y4fv+gXhmp6pE1sCTSxT51692nkBiIROMUhCXs27sfLc2tqLA/ZZ5rS7SEul5Vo/eFiX4ShPbCSlob2rWmShN69QWFcVx73ZlHS2B6MlmDKmWxe/duClfdIyqyLa3DSlDZgUdKTAZ3rn8cDV6Q99DW3oYtW7bYE8haGitSIAvkLWjXWFnCmiCPiejYNnnt5IqGOT3lPTFR4657ZVrSEj6qdwuZX1amPqxnTCfm46QSH0nJCQedG4ICRvWMkKTAsWPHTGGoLt+TUR3+bj55ejpqh5poLDz9TQ1WhvVql528SYHKK++uXbssblYn89kLQT1lT4wceBGlSiDJwmNW8ixRVZqVpgVtPxcLUImWwynkahzjEutkId0LlHDR+rn6LJDgMeGjk3qDHwLMY0KRwQ46esGK8+jXbSesOBSIIZehsom3s38UTBFtwlFuBXbG4utBbfhB2UgW5WR9bl6rbi27uwzC3g8Cv+714Kes4XdvsLaYz89qzdwD/Na+j2rXger0cdHBFAODHZig40bwstj4G/ConXVCWKsXWjYX2OYTP48HOrV+EWSMaDewU6hMreqNI7pSwaEt2/DByCSmJ2exhTw8QCP89Ctv4JH+fvTFozjMtGe2tGH3tiZ8d34eN66cxuGhbrw/vYznV6p49cxbePqhrbiZLyHLOZPhfJ2kNlxMzyFB7ylYKOOpXdvR1L8Nb1+5aW3aG/rN+nFYri1TbwR11uuw8qq/Hi8ZH3Ke6dVKOvpBFyy30ZRzQ0er2pWzVB3uDo1IbMglijmqbQAvjQfF/BxSOOEahQg7LF8nWqrRggyRMBU8d/YMTly9gSWO7A1a/R9cuo6TwyNYLNvrKlmSVr7qqIaRqul9afRgWjvxpW88i1okbDSYnpk263x+Vc906Kuls1iaX0R6cRG19DKS7PXwtWH8x5ffxeWmbhTtmzg5Er5sTCDirGFMxWm/7w3eUDhmXuusTUe7t2Lc6i7Iq5Ew1JZoPfSpT33rXodA+SREda+mXKESspv1brlIcd0D0z77shcqesuCV68EsRRTS2uLarIJ4trVqd++jk7t140DpiguQd3Z2Wm72RQst1debctTMLzYrikAHYmbhLd/E18ekBSNjr63oTr11nFdV6WmaGz7q+jiFKDqYQbHS2JeC0Ar+6I3E0iRCISngtr0PS3FjT6Ghwu+t+Nwduc6ikbaXac3o6t9+9iW0YT/Wa/dUNUfj9Z376gcWgrSub7V5ASV/XM/y6PvLJWxlYbUDprsA1G9vsQ9bChjQz3WpBNP8HRN/n9foALeeJFGdlSwWteqEV6qN0B66bGCfS0x7AiV0UzBUqM353L6uf3jGvhXLXh990EtWd1e2Agb8/ugFEv18eXxLsWNNlLEuqglGrVldDZQ657R6pXXNQXNOV1V+H5B5W0sSBKrh+eqR2m61giWt94370gc6g36Bbyj+KCOkOVRirtofO1dUJvqidrMsrPfuXQL/+n100jPL+DT+3fqezDo2nVUN9Hx1NYBNFHLbd08hM2b25GsZfH07h48vH873jl3BQny5kcPbsMPP/4gXjt7FYuVJJKlILbSsG+ljFydzyBFY/DK2IS9TitMBSQamwFheJAGNj4ubqn85+jh/fz+a2AUDNyxLksaAv/xz8urcwP/qHJO2jrw0z8EfOayJYB7qCtXrQMfR3UiUtOaPIkeYOcrYcSL2mNewVItjWsLabw1Mo73ZqZwmcJ5vpqHNh7I3dQAlQIRyqsoJ1QIJWrxWqIFb5PoX3r2ecxmtVYfxgKVzMLYFBZmZk35rBYo5LV9r1LA+ctX8Ud/8XVcK4VxO5xEngIyHMhS2OimOgWQrA8SSK1pucKfxPcC66MpFZbzjo3ZNVjy7URSe9MyQdt3RT9t0Y3oQVt6EnaPh0LRt+a1O0wCU/eB7Eih6S9X2dHb6WbbowkaZL0FVktJWlaTG+7SeQw460UHe/eWxswQtywGJmyFn9HZTUJjHO9oy2nWpttJV8eFQR6av3ylox+X0FdZeRk6N57x2jW8hJNxNRNM2bjLXrNGd+3GU1k9l+MYW3U6ZfJhwcfBjysIbykvxbULTk0LP6OFgThsPaxdc2DoengK1iaNgxi9wB/dvxU/fWQbPn1oB9pS2qRCxchCEqhiL5WRgNOkrxspfvBAtPJDIzTy40a+9IurF2UaEB3RKv7Wsa34+Qe24cEd/fS86LluKPODgtpwnLUeNqBfz+eO4n/NAy/xLuDTUctqKiO6uL6yAIOMVH0SPURaOpOJc4U01RKm65LL5xrwgwONl1XKYPT2wI/7SfVx1dE0kRdIaCm6sFYhtMWA7UhC2BISm/Gz8c/uCepoY9wQBJau/DxqOU4N1uhpaEv9HA3ot5YruDifZdtlHNqxBc+fuI1nR6bw/KkPcJDezuhqDt/44BJOUt492d+FZx47bq+Q2j4wiCc7U/js0aOcawEMDO3GYqQD82PT+KWHH0S0qQ+jrHc+X8Tzt27hyrlz2N/dSw+NRhHlrx4adRRz8s667OHrg/VBfdMFgvXLixs08KuCSUHSTfPL/7mJvTYuAp821pgNAK1QX59oomvS66osVTXoD7driHl5RcEKMc0h6bqjuO7FyOqr1uIcOu0Dp8VKBZKjtZlm63puJ8l092QILWo916PiQp4CTG3qo121YBEr9FBQIJHKMZQ6hvC1ty/h3/z7P8drr59AZjGLAr2EWqiKKPNml0cxOnYNf/H8S/i9L7+I18vtSMc60ZkpIZhjuyS8XgVOW5n468FEkp+4afeGTWz9swjBCEOG4zWjjVGfSHqTo8a4dnOtKaIQLeQEmVHPIKXq9KyUqxgbm7RlMAlnKZsyPToLVIR6GFL3SkwRKe7RX2joWKSCKRYryFMRZDJ5KipO65B2hsXZ13G4796wIU7UfGmRSiJLi6mMGGnMXPSsIvQ+9Llv6y0Jq7cZzNkbBSSo5T+VKaRzOd14zxpeFW1NpsDWsqpesaGXfRYKWcaJs+4jaat70YX6tm4GfV5C9UjB6JUb2WzGlrOq7KfIYSqZ/QulkqZc1VfxlDzWkZFbRgPR1BiYQXQxj49Bb5auL/WKXqSLPjylo5+noOeUeG4WMvPp07sz0zNsV+Oj+ydBNCeTpuzdS1OJjvKKh5lLBw17SFv8qeND1B72qhSm1cGMFd2UjeP6TBFdpO/hbU1YpcFUDaTJt3qFlMujUN/xaIXdHNFT4G7bLEeEAo4dtWDCTYGIOL4ijixYb571GT5ebYIy+SERiWJHVzuC06N4aHsfqvk0y5BGKutnVTnWK77U2Nh2bC/4YPObGfS5djVhgkk4syuSBQr6IGONWtTq4HV9p6lGftTP5oA1qPnvB4ezaOLo4vJZ3zgG9hwKk8Uz9ol4hhT5JU7vLRzMsKoCr3G2akk0SbmRoPEaCSAZY7whpKL6imcQqZgLSfKtXsdCjIg1PV/S1T4XQKTjbLeJsqiZoYnGbRNxShG3JNvpiIfRHy6hNaxPhZDHyfMaG91jDurIOSqFo2VnrZhIDvo/NzbElTRwC05GRisXYbjE+fj/eultrK7O24s5F4Ip/KcLw/jTC6fxtdHb+OrIJL5zdRzZWNI+gLlMxXKtGMcfvnoZf/r2TZy9vYiZchL/8dXz+OPnT+H09Vt4MZ3BH584hQ9uT+MPXjmBb82v4k9On8PLF27iP3z3Hbx9c4w055yT0UocSpSr2lHqNguQSyjHNNx6TMVu9mvoGYS9cGdUPXBnHIOagqWtgRSNzVnNTfG05AHjDlSWVLKPuBHefuMNnLtySTKUzKmLFHCMF3ccBoecXoZnXdt/NisuM1RcvM7QHujc1i+N9BQ2YkLWa+nspXvXFdBEQ0w3x+1TufzTNyb02hvtk9fuODEjG7DO6wlbrZFrGGthMkxTC9Ik4MWbt3Hi4jWcGr6Fd89exonTV/DuhRF87dRVnKQlsdrShXyslaXoXbAeTSDtIpHFZLRVO2QU4WvvXZIwEOOLSA39sonIo/WVweaoynt5dGpfe+RRrx9vnhvHTk6OPQf2kmE5YUh8Lai9/vbbzMv22Vd9/M68A10jTcyL8dthmrwhKQQdC1Q2egGfPXSp68ykNxwo98c//nH7nIMUtT4JcPHKBSz37sBMpB3xUsVe6NdbWMTRSB5bduyk+91KoVyyNxucO3UG49NT9s61kt6B53pi96UqVDy6h6Ik3b8RDYSv0koU7nq1he0sE84MWsrStf379+MorTAxYJxpxdVlvD2dxurQAY4hx5t1aPmnJ7eEAUr1Y/v3Gi3DFBoSzq+/9ob12W76M7/qEV3UttKlLLRrTrTQEqHRkHnUtq7xxHoRo0KWwm5ta8MPffazqBEXcWWNCuni7SmkO7ag2tzOCejGzYwGH9QkD27cFdOJFxpA7wVrLpTw2J4BnBmZxolpKnvha5ykEVcd+ueCXfHasx1TSlYiI4r7YFOCCZLPAvGbzjWtxJv+cpQsaOsTBW1vtIKP7R5CggmLBeDG1CIyzGSPMjBPvR/Ewo+th42pnshkW7ZgyKNmixLsnWjWD5fH3cNSHsvELELQXbcy1knv6AVXdi2Pykp46/kQ9VcfQ9SNfc3ZMs1TPbzYWsojcOE9VC6+i/DNiwjepNyqhwsIMQSHzwMjPDKevH0V4bEriDDExhi/dZF5LiLA67h5DjWGKvNXeax4oXzjLLKX3gduneO8yyPZN2RvNNFnAsxT558PRjHvXAeLMtGEr2hgae7oNhbIDw5ialUPLuuLxjQ+KedmaSgt6B4o+TmbL2F+MS1JJGrwF6Ksq+LmzDxuLyxiOV/ATDqN0aVVTK6kMcP5tUKGmFtmfGYJU9lV+wxCjobIqmQMDaL5TMbqNrkl3PizXZdsQ6B+mCdeP9OYuP4Y9tZR71z9U4xH5ZfK1TzJjt5AR1X8z7lKuap9ywe3b8UjzzzjfU/Hr5/gnlD9cFClasSO3rkfr4NOGYS8gk7NSmJQXB02I4c/PaDk3sysMk45yduQwtMNfltPJ7HdxKKFQnlYn3gkWqZWwlI8guX2boyEEnjn9gLeGl7EGzf1RtgErge3YjTegxUJKpbTMpN2IQkXgYji1uwdcYVYvKQ3Jrj2bWLcBZR3Xd9Zvw2kAXtGDS9B19vfh+aWZpRoaelejhguqmdS+NNNePMiVU4HMYEX+M+u1dOUpX7OuISwJjeDPYuSyyGR0PKdcHM4dbS12830cIQeJpna/yCd7rWobvesDJmCSqO5qcme1rcdaWrg/wJIQer+lZa06jf3GfS9Hb1Sx74kynw+7fTV2eamZsNPaalkynDQpgS9jcDvt9HqrwlSXFqCDOqTEex3jcpT7wrsbe9EG40DW370wG/vB2lOS8c7OptQi7XgzQu3ON5UskF9qkPiwvGLoM4vBJ+1/GYa8/lgfM6gvAqKCxrZ0qJeumjY1kT6kd/OXDqHzf2daAnpK6lrvOr3b13BBvB5yw8+X9tUNKLIIlaK7mUF7SFCZ6TyXEpH+p55WZpH5uVRBqWCLwcagxToWtD8l6KOsVScbZOGlApmEFb1JsiY0TWwsozYyTdxLDuNLZMX0XXtxLrQefU9dFx/F91X30H3lbcRO/cyUmcZzrjQev51tF18A52X30b3tfewdeYyts26sFXHucvYPnMVu+dHsSvHtqbG0B1NIGovoCHSrvuujzbX2Uue+/20oGte1kbQ/NTPHj1hjzSHBUXKA701vY2eTVQv16SyqNCL09j5D7DqDe9pGq+1WASrVLz6YGaOvFeg4lD5MK9LSaVJw6TKUi4V9YocjltB84sGmcZTdQl7U/i8Zmh6eAg0LpbIsDYuTOfPxpHnlocZ3IGymxE9RmJQPzI08LwPGlHVRvdVLq+S/EzCTgiTzKzEIeqEvh8XotqHbgKBRzGp4vaqEHXCgh660iKWOzdiCnH+ikG6jTEqD1nSDAEqkQKzFWlxVznEyUKMbm6cbm8FzXRvrWEJLeLDcUaUAqSJVm9Ir8rRqxgYD1Nohdq67EHTeDWM1mwQ7VXtgeegsVYtnzmCOZpImW1uitLFpvXBCRPQWxTYtqlAtdUQfFA5TVybkOq3N3Ca2DYMogdziSGLZAy9vqZKryCWTCBCL0Rve81mcuyDEdyBVUAmFM3tqL6SbmQWvU9NR2XR+9f05UA9TFaVe0wrJr2yZIPudm9JQLhx0LZs7ZLT63foxlAB6d5GmQLXvbNMz87ovokEcpkew6p2v7F+YW/ejaeEpCwlyLzpX+cBLbVpSUjLXXoOSctaWsbKUVlk2bZ22ym/hLp9NZFH1WEeH/OTQvRKytYffUNIbclLUX+tIwRtDVealg61PCdv0KisDisPy1hfbIyUpAkQsDdNa8OGtkvrlUCiter1gzwjGQNljpH6Lsyche3GU6EODVFNKNt80hD0qqdN/S34y/dvYLhMI4N87Z4Od33wt0FbXPixbn22XW+xlncgMAHsogaK++eit/hXHg2bX5+RoDTNiUg5hgzdG72+fsuefbgytkThxLrZL011Bd3kdf1jOdapc1sKIgIKft/9oHmrB2PzREBf3HWWsigVtOc49AyTXtGSJx/QRgctHWjLkJRFRc/nhfSWCBkfnIMU2htDLRS1Z/v0TkYLHOdSuMQ6Nd/lAWiJiuNSkfFJbMo5Wu01bB/sRndfF3q2bkLXri0WevZsx5ajh9C1ewe2HjmG3m17MLjrAAYOHsOmQ/dj28EH0LfjAIb2HsHmfccwtOeIheauTegc2IGBbfvRu2kPeoZ2o3fzHnQP7kYi2UWjIo44bVA9oqHnmsQrAttQwz4rlBlMGHtBGzjs7Rc8svOOf8WjLKf5oGtMIAWYh0fd18rROCrm8s5YZxk9JOGxjYFWB7R7tca5FCEeMRo12kEXKFE2MOhjbnpNVpEVqC4ZkQGW0RK0vuasxu0NB6zUl1UaRy0X6mPK4hIZZMJNxritTmmcWUaiXBJIEkvyXWxb58d14FOH/9lf9bvM+aUXIftQX1478c47+OAi3U0xnvXUW17bfpQCXd/SdltpBcLbHV2L6xpWnMFkJhtWXTaheHRLVqyTvTOBTWWRo7LIh1rw4OYteKSnEyPzabZMm4ITSK/iWaqm8bn796BzaRGT1Eh6+7WIo7XIh/fuw97BIVT03rCCBGAY1SgtPXoTP/TYYWzrpMWZX8Yy6Z2nIsuTsnroyYhLRNw376v4O4/ej7Gx25ihZRUMNPOaGMYxiPu3Bjq1/jIohyw5TU4xlOunE9TN0Tjd9AvormWw7+BB8zr0gj4J+NNnPkDfQB86OrvsY2ydXZ3oogfS09uD9nZ9c6eboYteSQd6epSvw9La6L0ob2eXyjCNZeTRpFIJPP3kk2hKJc3a1Zc7PzhzGiP08marKSTpzeSjYfSVlpG6fR59mzahu6eLzCgFFMXVc5dsaa17sJ/tdaOvrxe9vQyMa9fXwOAAcehEf/8gtmzezGM/NrOOVuI6ODiI7u5uDA1tYtkeu9bT04sBHo8cOeKWwdjG8sw0vn11DJnN+21NWYZHkiMdnhhGc2EJh/ftJv2ojCJBzE7P2Ru3d+3cia1bt1rYvm07du6kMNm6GTt41Ifatm3TtS3MtwubiNfWLVuYZ6dtAd/MMEDcBgcGSNdeW4p76MGHaQHqg4EcJ/LPs++exExrL/JJjjnHRsMq5tbEEtg5QVyr4J/7CsQBBQ4ZajiTxYWpBWTJ03qVRlivEpEg188mOGuwYuIP1eHxkv4rYtfqh3XgT1d5GJZV/MlUee9anhM/qq1kMIKlbBqnxydwPVPEm6O3MFGk8A57D+ASpGg0Oa0eJfCfpqKOOhc/67/wtSu6zsmqHsQpvAZiTRgIJtFLRdJOjdlNJHqZrS8cRG8yitZACb0s38cyvX6gEOwlnj08rgss268lQca7WaaXc6eHbXYH8+iiidjGfmYpYNkBckqcyihJw5CGaDGD5tunKUPcvURHDY6DDLDlJXrVcUyPj6GVfFfW+wMpY3o72rA6P4e+7g6sLi2gvTWF1ZVFdq7EudSKpZUFLC3PIZ6iUA+65WspD83wBfa1Zet+ZLIVygzdGuBF0YbENGOURkyNwl5zKMjgH2VMSTHIGBQh7Ud66j6eeN2Nm+jLIHIrl6o1gc+jFxRXWclM9/ouGgKkmb3qhmXcA67KY5KN+Og+JRWlbouYAnFGjnwr+/wK61NuPQck41WGnAw364uuee1aUI3ClT/RxE9XHuclcc4yk92z4y8zeh1dlHl6OYDeZBDnZNu7aRCPfuKTpIkePGhQOu9S6Zy+IKWjSlVrg9IR8p7S8YnhlsjUMhOV3U9XXKfC1s0yr4xUkNOCOheiyiRrIUgL50ceOILHKURGrg8jVxQh49SwJezZnMT/7ZGD6KFF/v7ojOGinR+CJynUDm7bjKZkEmdujKEWaUIxlkKQzP9THz2KgVQAV0duYpQjktfbEkhgWf1al40QCQ1Kgnj84tMP4fTZc1imsktIpbN6WcDWjNcfH3TqE90YROckvt30Zh/tGs+bqfgm3noF7YUMHnz4IWO8Cq0PWe7pXBZ9/U4Y9lJAK3R7wl5CXgJfAlwKQAJc39DpoWDX0pjSlLeLyqe7m+m93ejt7KHg3WHKR8t2MdLq1e++jJmOrZhvG6THJ0s1hNbVSUy++Fd48NGPWHkpHaFboHWVam1Bd3+f4dLXqyPbtza7qEj6TLH09fXbcphw1NdCpQgH2A9d07GXx/b2DuuH8vWxnD1/FAlhaXYKXz13A+WdxxCU0iHlUrKeb1xEPD2PJ44/iDLxJK+ahSZCunaoZNlvHZubU/apAt2P0qe6U6mUPX+jrd4pKlwt02kZU15OR0e7fe5B93IMPyqgA3t2I8IOy/jR4P1/vvSXqHRvQbldn1x3Xo7arfMwg8bX7v1JEChOo0eTK0zBpMnMFF4PYjpbpBert/qVaclq6ZhenupjWb3qR0ctHGmSqpRQ0HyQwPGaMzCe8ttXce8o8JWOTXXhy3YjtP61u6vKQrq3Vo1FMMc8E/SkV3m9Eo7QQg4gQZpG5ZWS8hJUwseasQYUUb2cj4zbjXw/nUEiPcFW2hbnEL58GuFbl1Aau4LaLcqL25dRG72K+3qa0VpaxO23X0SFY1oduYTKyGWUbl9B5dZlVHgsM295lEFHhtDkDTw6yHEtrWD4jecRHLvE69eQuXkO2eELyI2OIploQjXZYl8dFjJlEqG1nEHvzGUk6IFpA4m/EtOckCJZxZMfeRyXLl3EDsoTGWGtHa00OB7A4tws7r//Ply/fhXbtm/D3Pws+aUFvf29yHivlEo10xSiVyBP2CjN+TRPgZrYthuz+q6MGNRoUiGf6sXIVeJTwLbsArYhg01SuuU8+ioZDPB6H8ekm/g2rU6xbBnpsO4pOh4QGA9YfYzznz/2akNRu8bO0f+jcpanI++KZjmFeZx9j5IvExzzOPHopUGlGrNUjN2scZBUG8Aq2rSJghVp9UOv1hH/aFOXxFsLjcJN0TIVRR4d9NBDeuCafCMjZoCGczCUoCFRRWcqjEUyawsFd3OU6qtcwVamheilLpU0I9gySZa9TaXDNoWxlE6MeB8aGsDxT3wKwYi7p0OaEhN27N/+y3+N//gXX6IEkiZUT4tYpV+V/tjPI12LETk6z0w2tuXRmJNI8GBBnXXDRLBrirhzI5wsSUYaCSvtXGVHd1CA/NynPs2OA9PXruG/vH8eN8J6hX4Bv/XpQ9hMn7CjezP+7Z99C5fmiyiSuHEyxi987AkMJDlRKEn+319+CVkqlAIHtTkVwT/9ycdQmR7HG5dG8VcjC3Rf4/ZFTkpB4hnDfUNDaKcgDlEg/uozB/HnL76Cm5U4UmSU87PLGKfnpPeG3Q3qfVSHeaZzX4DIQ9JE6KVgHP/P/w7Hm4F/+Fu/hmhMN+nztLwKtsQ2M8sJbAKBFOUQyA3VkpbiWparAytVmqxlueWiu5aKNDGYTHc6RKut3ZbF9KCnlJq+nvqH/+L3cWr3U7ix6T60sM1Fejp7lq9i6Y9/F//j7/5T7N27k0MsfPT9Hk7W1RXkqRSDnFRqzwctn7qlLbFVw7gSDy2z6NTFXboIYw+2crz1nRvdyI/Hwhi9fA6/+Bcvo/q5LyCmB1tZpitMJn/tm9gXWMH/49d+GXniEyDn5mh1RCMJb5mNRgnbVn3+c0H3BGMsBf43qckk/pwAoZXIuuy7RppwHPdP/OJvIPXET6K46xDJTA+a2bTcZNucGTRRdTQ+VV2MJytRdFDQp6JFjFGQlzkg2okl9S17hQSE1FIzDSapIN1DWgolkeN46eNZ2nQgO9ofYfOCWM48Zp7LGHOWqKOprulU1+RR6Vgl3TVO7fISKOgipRymawnME/GKLFa2KeYQvvLoYoxvLhdtx9YiaxvVchZxlqXLHlr9VjMb03jr3KUplZhFkujUN5le+AqCZ57HvqEOpLp6ESevybPX0tA/+LVfQ7ytGX/0B/8OucUVV57Cy2rinxmyOiqdINxayXe/9Q//EWY4X/7zf/z3dBDplXAcihRUU5MzuD22itDuBxE8/gyusm9xjn+e/dxamMXWd76MJnpaWgyWZ2F1sp+Tk5N2P1APDGvpV/R1bUoM6h2BebPqNU/a6KnrpbL67Pvi4pIZTDKw9PiB3pWo17zImr9SS6Hj4z+Oi/R0opQj8jYqlFtlKpi2aAThG9ewafgcdvU3Y+uuPZhZyiGdX6QckO8RQz6zhNmpGxjbegC3djyMsO7ZCCnSQMtkMiakEPy5tR7IL7yeouL6G7s2I9DVjlvLK9C959rcEkI0vNoG+7AyPYtdNBjPLOXxnSs38ZFAGtuqk2gL6UONCdzIRnGZ8mY8Sg+sEiLXhJBi2weoMA8k0zRICjT0w5jMF3Gh2kzl1oy/9dijePHaLDa1B3FgWyf+9bPv4qmdNEZ7O/GVN07g7z58ELcyEfzZe5folRaQoDUz/9a3sAtT5BrKNtYXL6XxM48/gl/9/T9EiGMiCNHR+aL44d133sUZeTpUNOs8nW0Nng6TTeiJFDy6ZQNLtv8eHS0Y/bwTO5CovoXpGJ3tcFaFOXA/fOAAujjgNybmMRhvwcnRWxijANQnVv/WsfsxPrqAYoiW7eIqRqfn6c0kUCE+923roadS4OwM49T1CTfxJewoYA9v7kEpk8VsrozLc/qKZASBiB41LaCnpRM/fuQoIuklBOlmD8YjuDUzjXhrM3700B6cHb6FWVqqRoYPAbsuGihQ2Kinup8gIddET2fl7AlsjgHHH3nY7p/Y5gFaHdr1JYu9hVZ4S4us9hZa5ylOlIRZ7PG4viGjeMoektRDjdqQ0NLEfPokdxOteuZrkuXPgVS92rHm7+qSInr/rXcx2bUVCy39tiMwTyHVTUs0f+p1fOTpp+mJdHKIKcSZP0c6acTUTgtpIBw0aZMUCgopeg5JBeIjnPxjilaoxZVHgXEpGlng2tggfKRI5cIvLUzjGxeGEdzzkN3g1Nb5BKV8gO54d7CIxx9+wNasZVlms3mOoawsp3DtzQGkq22/NM5qCDoYhwkk5Bwovx39HxWX8AhSqod0j4HK50+//h2Et+1HuauP1VCQe3VJyShKDjA+lzFhyoTtPxDJ45HaMnaHq1jUPSxawWXWJ+uzEi4xHkKS4WhlEQ+EOPFtehcxzSoKFPbu3W2qzuGn/lmzBE0PtS3Fo6tqux5nkHASaMdRE3E5EszigcocdpUWEAuFMcfCGc4Fe6US69cvwfHdFcjjeGgZB8NZeixV3KYSyTC/wHBh5X4wwWfWlCKkCvHLV2p2gzt87SJ+/PFD+Mjxw3jyiadw8PARHDt8DEeOHEOI/Fum8tg2tAmHjxzE4aOHcOS+YzhKz+KoHY/weBTHGJR2jGl7Dx+wzUDVUgZ7t+3Ant0HsOvADhzcvxcHdu9FkvP09O0ptOw7gjkKtAiNMdG3o5pD2/hl0JYx5S0lq/HWs3Bz9Gb0ainxoX3okLyoz2RoK76kzsLCghmTem5LOx91TS/G1Sul5FmL3zV/pbB031GknKtReJJPZmQw0FiR7JKHU6OxK2W8enWYdC5hdH4aI3PLOHttBOdGRnCDYWyUx+tXgIVJlJopk4b2s27JQkdrjbHA6H4HqCU9qxZDU6mKn9y3Be1N9OSp+Pa2JLGbMmFLXyd2DPYgxn4N9Xeg0tWNc1eu45FKHj16mwstjXAygioNz2k2OkEjUBynNwm0sN+7yMNbmrTqUDMe0thPF6mY2PFH92/CScrIlXwaezs6sXLlGp55eD9yzTGcnJpDJ3Eu0Tm4MbtgH/uMB8LIjV1DR22VzMQ2OSZhGvFHtmzCg5/8DIL6thbBY2N1z52o8wrGgH4awz2h8SLjYmKRylx0l+QFUVUs4jM0/5PiVQ7o2alZ/KfnXsRX3zmBZ0duY55MwbmDEgn33946g//6zjn84Xdfw0kySD4V4zWSje7lW7cmcWJqAc+dOGs7NnSDMRTMoVDWA1W38J1bq/jutXHbVFCjS5inhVqplXGgvx0nr17Ay5fpzlPw/unrJ/H68BjK0Rheee8KmbaIGAWJCbmG4OOu/vh08YMPPv0MKPz916zIO1E+99Zl99CjXmiph0VLZAj/3WkKxvReHf6OMrdJw00G1WUWv/4YlwDTDUQlafLpGzw6UXvOpvYRcpPTLvC6LD+9FUHfz4lEo6aw7J1l9JrkOUmIyLtQXO93MzzppWgzQrmkZ4x4nUyroLiUqXDQtmlNdn+NWNaz7qnoeR9qFmteaBh4+Fiah6YUrqVbf1Senh1xU4/u+DGDVeHX4QUDL1F5RB9bt6YKqIMJV4tYcD8HKmpHdzDQ9pZBTuRtwTQGqWD6eVGLJe5NyFpw0dIV+8fzrlgAm2nYbY2WsJP2uIy2Mie2760IbAx98KI6+PNvI/j0kaCSAddLuvTrvkhTGD2sN+4VEr19EM7t4SAG4gEMRmvopCcZlvKl9RihFnPenBQtvTWmO8W21mvRTgaTfWOJYxejMTE+NYkLly7hIoXQtes3MXZrHK+++Bpe+OqzeP/dE3jvgw9wafg6zl+9jIsMF64q72Wcv3QBZ86dxdUrVzEzM4ubwzdx4ewF3L58BbOjE7h18zYmJiYwPzNDz2MZGXq+K9pCLJ4Xb6lfpJnoZjfxGfSbmp6ycpcvX8b8/IJdX5ibt7mztLjgzbOCfTJD/dGOT/FxetW9k89/kFlfnL1CPG/cuI6J8QnXf/5Uj5bpNGPsjcuiH9PVTqVYQXd3H9LhOJaT3RjJAzMUFStNnVjq3IHpniNY7d6PTCWGKtvR8r2ThU6GiAWsW5ayHqQctClF9771Rc/lfBYf0Pt7+/1hetxBlPp7kaNRG1hdQm4pjdbmDszOyMsoIke+qIaaWH+KtcRRpJIqU+jre0/aEBGpRqkUUsgHo4hRiSV1y0ErL6EEClSsy5S9N24P4yM0IJKRCFZWM9jR0YRIUy9WMyEc7O5HtlCjQqLSphFQEn8z2OIteVP98WfXxr5J4a6DxnOfyQVidAWBDrpmE14/Hb24QJXy1Av+dcb9soYGO04TMszOnqArvUxLYaCrCW8Pn8dStWwColbO4sTIKBY5dZZKBZxeXsIylVEk5nZEnL4xiomFVUyS0IUSXWI2olCga3yRCun0jTEqGhKXGkwDGwhFqM1TWJqdwbn5eQwz7+XxUZyndbIQiuMi8XhlZApp5itVckSRwt37bSSdmK4xCNz/tSM1INsUk5H8VHZKlxVqr/qP6KuaUXdO78wCLQ0Ft5zkwt1ASkYehJaftC05xnp8RSRaaxu0wMZDXF1HyIvwoJhklNrTZgIF0VzK0B5O1YQm0Sxw0tnreHTUBLRJ6Ca+v2XUD6KTP+Zux44mp3aOsW49rKnmG1ASjpZfJx6JXTsOB6HvB9030zLb+rBGK7es13AuHJjHvsRKWpmw0NLTBlA9dl/AG0mXw8PQcHNxbTBJs4tzxGWawjvDZO32kVI0D0ZCnMJcxtRiIM48Ycyzs8tME8/Lw1NNXjcNNGYKfqrGRPNMKwrrMq6DEJVEBHPk7dvBBMYjTZishpHXshv73Qj25DvTx2tx3KomME28iqRvkOPntuJqzkiYSuFQoLK/6rMooXGxEWIebbsv0ACZnppGitZyE63sSAv5poMGAhVad0crNvX3YP++vdhzYD+uXLuGN998E6+//gbeYHjz9Tfxxquv45WXX8OJE++hv68PR/cewIN79tHIaEamXEAwFaH3mCN+FfusuLb50oJCiHNFVrg2pAQYxPOaO/6WfN3H0f0YeTiOlhoDKgTKCNHQHjRmPp3rqPESuP5JSWsJV5t8KKxzNFppXIn/xKeips0H0kznopm8T42RleUxmEjY8zHzVDhpCnXt2KvFmhDbegwthz6GXOsOjg2NOhpqenehMPTH1pcv+jWC8QUbrEnh0GhRO+eWVvHu5DyuZ8o4dXsGL4xN4tXRSbw3MoGr6SK+9uZJLKSzhuRlKpbhQAxTZRoJ+QiuVEhbkG7yGDX2/OUrUUzRuB6lJTRZjGGiGMdtKsd58m0xmUSgrRczY+NYpgEwsbpK2RvBl984g3ffv0FvhmVnVzFOA0GbMYpVGsx6eL/q7v37vfHp1AjrOFREtaM7GCi+saBO3XLSXx9sEtaK5FcyBAXB43Srf+mpg3h4czuaqS/19UVt4RzsasHT+3bgs3v3YBMFR4BusO4/BOi2PbB9M37y8QfxmWN70Z/SB9/CqARaOXma8NThHfjRg9vwUHcn6yohQsJGstTmtQSG53OY1jfH42EsRIPYv3nQtP95ejszHJWFaIbaPu+WWf4vdZMErZd3kzjAySMBbJY3j+YN/AAg8aUJIgUh70TfrPGDP4kMGN/IyD4ODikGjqHOpcCEjyay3uOmnXaJuJbX3DKfgtL8Y0JHpSueYD7L70KM5bXUF2Owbdd1kPJ1QlVT3tawhYv+6njrCu0yWtO2jMe6tUynYHXSW/rQwLbVrguKx2mhM85+6Suljt5OMRndxcM82HKUtSx6ORw07vYshQlkBU79cBTnQ814M9KFE+Sxa6RBmryrm67aEhqsxjmhJSICOB9swXtowzsMb9LQKQRIHzJURNt/VR/LuWVsgeMTnUmoqW0TZu6Kxd0WVgp/HqUkslQeJ2IteDXcgzcD/XiX7emz78LXcGZphQwF4NVAEm8He5l3AKcjnTTEaHUTh2LE4WE8xYZsbNh4zfoj/uE1Hk0RUjDrtfdVWrbC8cKVizh74zxOjV3AC6dfxcjUTawEi3jtg/eoZF7DxQsXMXp7lGEMo7fWwtjt25iemMZffukv8aU/+RNcOnMGb125gu+cfpeC9CzevXYJr779rr1+SZt5tNVX3naVRql5u4xLAZYq9Bp51Atq/RUCp3C+B9wjiwl5LwjqPKlTpnG0TD7qreP2cDMHR3TTbtgCCRKu5hGkYorS4G2mgRwjri3RGHpaOxHjeISkqXQDXkqHVat2cdq9wLAgzaNSiJSF2UATXh9bxNjcGIV/Ad+YnsWb5y7glasT+C9Xp/Ha8gq+fm0Yb529iFChimtUMqepGC7QczlBT+diIYUFvRUmRONBNy/11oxQAbMc/3cqYbxRbsGpXBsuVlJYZm8Xi8BX372E50+dxrnJMXz9gzN4c2YZZ+kBXpmcwJtXRzC8uIKpuTk0JSiLONclk2xOORK6ThLs1IsLREsHPBrjMWoWIoPYUXG77A2GritJqY5dFXN5rKzFvLINae58fdBfSZVRKMzS9R3PFDFNTVvSogUZTlZjKQ1MzS9hZIneUKGCBK26SDCGYDyFGytLuE0FdI2EWKJbl9c7jfgrBao4M0btny1iphRApBTjpJEA1EfUSsjEkijqm0HltO3++lsPP4BWuu/VZIoWF1DgYFU5UGI2dx/BsYcsdvuyn1ngWm5bAzGkH+rAiaLPverDaOqvnsxPxRIY6htCf3cvtgzxqB1sfb2240tx3cgcGOhnGLAdYQN0oRX6tJONCrRTO9e6GbSrzXav9WBgaNCWPfwxkodgy3ScBBos98yPjvKq6JZzUugbO7oJHImFsXlok71kM04h2trS7oLuJbW0WWhp7UBHRxfa2jpt23Zrq3aINSNBxaAyMVM+CVtTl8eka7pPZa/18XCyDRNkSKUJfCFXo/XpeyPKq+zafdbd1WXGSEwP5TFEtNWZlpbdIzIG1/vrFOShuaB0KRT/eQirTIF9F81sUmjGEyRUChRY8mb12KE92+RNALFklkJvmdbgMq2+lVoEq9UIVhDDtWqSk7QFr2dTuFVIYJ78ukyvYyUUwyqPmUiM/JXAKC3IE7QcT1RbMRpspvWYpPcTxiJxXGWd+g5qho2xeVrvtMDJu5Rfap6KiYFH7YKTlZ+NhrAcjyBHZZpNxpBjWI0FMMW+nafAOFGi1Rmlt0C+zofjyIZjSAfjWKVyydATWok04yISeCcXwqV8gOkRCkoGPa9F40IvQA3RYMiQL6RonXkg5cODyKczkYZBOwyX6Vloq/6ege04uGUHtg9sRjyUxOhsAS+9cxYnPzhHBcF5x3ELkR9CFL4Befa6V5lqxhKtZm3pP3PuNBaWptHX1o3DO/biyOA2PLFzP7Z39yO9kmadNBZoKFQ4FvLI5XEIKb1vUEu8wsx9mypjaRLS9eCBcG+UQwZeX2xaeMGVY4TKzJbxlI1Hzako53G0nOdciVDpU+FYAVe3lLKM50R4AcFwmQZzDUfaUmiRzEi1ccwT5Hvd93OrAk52aJVAdTjJsoYtm2ea2jW8lFDjPEWR46W3RxfszSIFetlLpQwqOc6vAj2z4gI98CJWOQfTlJ16gCrAdhcKYQynwxjJh5Gj0tNzTtrIEggUyWM0+DXAxGO5AMyw/9NsJ0+vRc9HFYNlzJZzWCVPBCm39EHOinY0kM56iX2eXk2eMlQeTiVH2pTYNxkFohkRt2A9cvFGcLvXWNcf/Kvfx3/5r1+ip6SbdRRQbHyFWjvzsZ/nBKGwLGfMuzFSeZVqp/dfH0h81qGHv4rRJHY3h7Gdk+mdsQwtMVpr6jwba6J27pZ5UVnFXCDFNE5Uokw/BPoK3tP9rVgZvoZziXbOUk4e7RfXtyeCdNEpEFcXMlhhuZJuWgtvMvDOzZ1kdDIDFceObdvwTGcbnj15BreiFKIcxHfHFmxdNhoosI/OItdOLYGzgKzzjDda8h7wuu4TdbW1YOrP/giPNJfxq7/2K+6zBVRsEubvvfs+RkdHaXk7V1uWrHVWnEYaq4168CaAL7z9AbRTMp8ErJ7teeSRR+wWhe6rtFEZ/MG/+Nd4d/tjuDxwGG3lApYohPZlRjD9R7+D/+n3fgeH9+5m5oJ5S9nFVbxK61QP+KkB/dQPWdQCKSpLawQi4O49uYkp1O3IcoInnnjCnuHRS0PVy+nbV/ET/+4vkfobv0W61pBj6KZ0Db7+bWwvzeKLv/kPTHhQ97BfETz//EuYoxWlOgWqVVPUVc/xIE4OlOCwc/d9hIhdqJdV3qFNQ/jsZz6Dcj6nKxY+/Sv/CNHHPo/I3mMoaK5xjKWY5VHozeRtNGB0I92q1NFrkr20uWB9Jh9KYLln0BrEh5oQOHKs1SG+F92poDPaKRqKYyUZR5oGVYTms6cumV2/qnlwweIq2qLse5mGBKkpCHJ+2LIQ89syo47EW0drxuYJ26LhYctBTBJ9RLYIFUCehlCYiSkq4mwuaw96LpH4k+EO9ivMVlxvZGkXqbx6mpJY/daf4m9sieLxY7tQamql10NlEKVIJE3LVGY3FvP42je+Sis/awrUgEfjCSGgU+MZxzdxduVHPv0Mdh971HaKNcdIHRoCEXpswVQr/vNzL+HLb1/CwA/9JG5QuYbI2xkKv02FeQy99Vdob6phZnYG169dtz6p43fyaX3YDAV//iif8BIe9lNZ0U8GC48tNJy2DG62flxPF9H1zI/hfKzTjOSY5glBnwfooGJsmxpD9sQ3sUAPOE7BvIVC/RIpGD3+syg37UT6ra+g/eJ/RXTXTgQ++bcxlyXtSVyh4n8WQQf7MCTxMC7i0RQjJ7X4UduYdb8wUqbUFc4BKkKiUaaCkJENyr0s5402W+jVYqg1MUn3hKiwmLfKECfeCRp5eru+W0miIqcMijGuuS6vrUpZQRVunrA4TS9djtCAEL7ChyPHukQvLX9TLrM9OQgJjov4afbNb2IX5qikEra0m6Bh/zOPPYJf+9dru9fqSucP//W/wZ/8l//KCaEteuo8lU6pgvTTP49lToxEJW1MXR84ca8niP864E9QIZZn/Ue6UtjT0YzvnB/33H7nYVTpdfzogT1YuX6V7h/9GHZOUGCnS/Egfubgbkyd/QAvkXAVWrsadG0nHGxJ4n56EmfPXsINWn96mZ0UR4QT/pc/cRj9dHvn09T8zVHarytYzpOQZOxH+tvxv37rXZzktUg4TzwdI/tKx1/zFuiz0HcAL+kGZ0dTCoHXv4GHo2n89C/8rA2WBmV+chr/9g/+nXkGus+gm/YCs7JF3XVKR4zh6OQrHdWjex6auFJWst4z6Qx+/dd/DTu2bDPB0sq6/88/+g94ZfB+nOvcg1YKqxUqnUOlSXS/8if43E9+Hgd27qBlojc5R/GVP/0SLc8ziFKwyIJU2+qjMQbhrkqHV+VJ2aRlMAHMo/DRmrjeu/ZzP/ezTtCx6MTwBfzjb5xA+omfofFGi4r97aIh0HP9A+zMT+GXiJNexROjJLpy7Qb+w3/4P23ZTt/4WQNPMBAffb7aLU0KL+JKOtk76TyhZuDhpOUsCaX/5Xe/6B6g5WSRp/fb/+4/YXzTgyhu2kFrkXhycukp8Gbdz7tyGp/fNYQo+czdSyINbIxYJ5sURfTGAxLB6lMf1aBopaU8taudUfbuOOGhHyNaWkjJYia/nrk+jhs0kOYPPopZSp+4rFBrwYGs4o5YHPn3n8Ont7ciEWU/ynpbBvsYzLJd3SOjcPCMH735QvRRO7Y8xqM+5JaiMNLc1Xv+NB6ihcrKk9QGAb0o9/yVyzi9UsTt+z5Do6+ZSoCYslMRjrHe8t5FuqW//V/xkfAc/vk/+U16Win82V98BZO3h5EkXgXOzYnVIsYnJhEsZ71xMjayuBMawkkcTN4lXpzm2DE0QC+rmX1g/8NaBi/gV37lN7FAxffbf/CHuDYfxMBnfgKX6ftFciXzJreY0vkqWlNlTE1P4/qVq8Z39ooltdUIpL3jYos6NAjiZ+W1e5HkGb+c4c162ppbsGlgEyI8v5ouoPsTP47z0U4zyMUTggrJ3kFDt03btN99AUthPeNTo6wsYoqeb9fjv4RyYgfSb/8lOi7+KSK7tiPwqZ/GTDpnH67TqBU9FlbrpnRIb1vWJ7JSDDIn/Ic7NeETlMkR8m6VikM9KtB7LhJfLfFSnRB/vdyUiqTcTPoX2N8V1lXmfKPXyXIxxYlbhIYxpS9lbQAdeadgitTb8hhXazEUtWoQKqCpSB5iR6VoAkGZ+jJmdA+Uo2j3b7TJAfYQrHCYefub2F2bNaVTYh3JIuXfow/h137/jxD2lI4bDxYSsZ2A09B4QALaXnfv1OMbOxcN6kHn9aCJJQvsw4NVxbLSoFpiTFL4DXR029Pz2tSn18VHqPhIIntrbKcmlISccBReLKsb021NLSims7TYSEhe0pcTNdFi4QBS1NwxkYkDJEbR63ICHAgaSHjz0i388Vvn8fsvnsK/ePkc/s3bZ/DHb7xKt5HuYj6NGDsWZlu6+WsvASVzarJrcBQ20qARJAw14bV81kkvJF3MoxomY1AYyXNZXJzH3Pw8ZmdmMHrrFm4x3L7pjjdvjuDGjWFcv34D165dw216RApjo2O4NTKC4eGbuMnj9eERTE5MY3FBN1BXOFHoUnOWa8Los9MdHZ3ePQzhI6QoYOjV7N2z1/ANMb/WiiNU1Mv0dJYW9YXORYxNTrDuYVy7cQMjbOfmzZtscxg3N4Rh4nhDR14XPsMjN3Fr9DZm5mexmk2jJGuQQs3e7KDA9oeGBt248ydLWtu1mzl+uj+ke0riB3mP2hk3Swt2fmHBbhLr3sD42DjDBOkwbvcJbg6TVqSBdkAZTsRjjHQaHxuznUeTk1OYoDDQzqRCPm+vwkmQhyLEw923qOHA1h3oiragXGtBNpRCRvYM50Xk5gf4eCqP/ckc9jYXsa+tjP0dVextC2BbkuftFHzJMg72JXF8dz8e3NGLBxge3Mnj9h4cGmrF7q44trUEsbkpgC3NLMf49tYwtrVG0EvvIEnB+fH9PdiDRY5ZATnvBmwjaF50kMePNkfwQzvacKwvgn19IRzd1oxDm9rYTjsOb+rETrb18N5NOL5/C44f2MqwzcIjB7bjoYM7sH/vZgwMtKGnuwVDA13o6WpBd0cMbS0VlIszNMQW8dkHD2J3U4zeS84tU9pIibc1ozXlpJRrWF5etmVJPcty6vwlvPf+Wbzx6ms4fe4UxkeuU3JRYXOeKuhZF3la9iZw0tsZBKyLcd2nyeYKOH91GGfPnca5C2dx8uQpzE7eogJzX7AtFsro7e2ynWWGC8fOKdmgLR+X1Y7xt+abBLVT7Ar1uWklHahHfrrrnatTeGlZuBFsLikX64rT+GGtZGfyKH+q38lJ8TBZppk+MedaSF5atWibkGjMIx4poS2RZnmmFVY1HWiQ0QiRYemsFEIDvkzTCpZkhK0hhcpoSdLrjkoZlegJ6i0EMjSBAaIbSjA9UkYPDWzdS+yLNSNZi1OJx5GMZbE3uIinAxl8hHJrUynLivO2LFsORGlIJNh0DM35KnZSGR0LF7G3sohNPDZxIsY5R/piYSTyK+hobUGac2ioNc75GodGo6LnaYwGjp6NIGNYwVfkch9ER9mCCmtjIvoSOVeRLEo/poFVun++Bq7Kvz5IyGhimavJQaKpiioHJcqJlqRAMjdWr9ivFpCtUXBrsPXHowatSmbUA4USIFpT5Nia0qHtSRdRr9cpIlNKU8CV6WVwsOn2FiI1jGZL9HKqoFFlNywznBzaMVNl2VmmBfQ8BRlIuEmLS4npaMzKIBwamdmAaaKSI7YiUr4OKNtpFZHorMA9r0TrhX2zd9R5RPSPG0Ff07TASVbSJFP7PrCMvT+NyiQcpUIjTWS9+oNtIFrVCymdgafK47fp574XDveCde3cBTRB7R4L8bKf2vVQ2VhW93VscwWt8LUJ+d8bRIu1ozxPvaRSAyYPVpNdArWpksWe7ibMzk0jSyE8RyNhlsp0dp6KkPGZ2QkKXSozhRI5rZSjYNQ23CzHigqX8XR6ETNzEzQuJl1YmKISnWQd05iam8Xz3/gmeuitdcWp6cJ6DY97fsLjIgva7hyhF9tPoRKPh3HzxihGpyYwOjGKSSrfydEJzNCziIXdDkbdL5OlWiIva4lXR/XnOr2Ryzeusewobo5TSY/dxDiNmHK+hLffew9vnngPrd1diNBzE11smU5BpGHQfNInRwa7+5DsbEeBgi8eo9CKJNh3rfFLKIuemmdlspy8P+121DZ670Z/qcC8LrhPjJeQI1+v5jhH2cd0RrTTm9hL9HBjFNhRbN+yFYmWZps//ucv7F6q5ADxE14eO93BT2tUXAPRl+rPfu7Fwi6H5MdG0GfuxyYmsLi0aOXKWpaijFHTIoqbK5rHPJAeJSoYrQ41c+z76SHE6c0uEKdxeoGrxL8gA4yFJEcEG+eazu2SZIKlaGmzhL7CFD52bCf6kzE8RC9vz5ZtJog+RWPis4cfwCPJZvzS/fdhZ3sHfvy+QzjU3UmhUcJuGtg7gyUMUrj21nLYVFtBm8lAbabSXKxAm6l31KLYRiU0RIN4kMptoLyK5moebVR4n9q/E3tbozh4cC+qHI9PHD2KHVuGkJOXRCW7EaxPDf2yMeFc3khfZ9BYoBBnsDfD+gNCZdNYzzpCNdajuAX+89SZOqV15wgZX0olQhWuN9KGvKCdadpmqkHQh5IWFhZx5fYk8pzk2s6pa2FyW4qu/YXhGxheWTK89FS3PnikdwjVyKQXboxgnkpD3zsJ8ah1ee30WSzk8cH4GGY1CfRjWbmtaU7M12+MYWR2DgEKiFAhw1BAjEyt76Z87e3TdH+z9s4g6xT/9ExDuML6iY8UnikM4qilCllJuvloa//WEv+TjnWe5jXFNYFl3UuealeO214s0OSRFSjpJ1BB/lf/FDQplMZyFudRKQIpYW2/VvC3j9oykAZbeQwngcprqrFt9kVNS7D7u6fsP/Oqbivrkq2v/mR21t3aUeCX86F+zTuorPLIahTYM0VMsTSdc6y000v9ET7yBCMRCr673CtT3eqv6lR8HR5+P7x2HOg6x0XmpQdWgqeuiwFT4pyGLFc0oyTEMa4UtFQRpKWYxBIt8Wo8gbdOnsYLr7+F777+Jl4/8T5efvttWvnn0dzRgdbOTrTqlTvtnQwd6OjpRf/QFgrKED44ew6vvPqGhVdfeR2vKLz2BiItus0csOdHIjIWQrI65WY5nP0gylTKeXtrRjiVwsUrI3jvxFm8+ea7DO/h7bfepXfwAfsTpUcwiObmVjTR6lZItbQyNCPRnMLl69fw8uuv4MVXX8LzLz6PF156Hu++9RYW5ylQg1EK/BIWl6ksqbDCpL0UjtGUaAgTe0aFtOro7UVTe5sZVgkZOqRtmcI4EtZGHaHMkeTcFN9K4UjxaclUhp0Uj32U0At2zvkToKEh3lXxHPPZegLL62FkvSE5o0chKN+0e20dv/J/kIX0Ak4HwpRgg0se8X5KX4vruktxz90wjefiEXfdy0NQvxbp1S1l0shQlpQ110kDe1WSgLxr3gnbF91KlHd6KW64XLSVmWgijjznHE1imrwUA8ysuzJ6qFQyTzJBfRYC+qlWCWf1ST1SX3U/5VhPEx7d1oUnd23BEQr+vUP9SIbLeHjLAI5u3oQHaSz83EM7cF9fMz55/xD2bO0m78awhXkGyVLt8SiaaT13E79W1i85FiaegRrlXaBCBRlGD8eyg/m6YlF0M2+CCquJNDm+bSueOHwAewd7MNDcgh199KQPH2Nn2A+bopzPPjl05g9FHUjVDXNVUJ+R1mkW0htKdYPMFA+D1pX9TI0Vm1DVcV0QYXXvgoyIoi2RaedHhIMSL9FloycSpW8WTBcQzhZt+3MpvYLA6gImpmfwzpWrrKSAdHYZqxT8udUsgrk8RkZnMLacR4V5q5klHpeA5QW6hkWcu3wD46UgslRKxewqCixb4TEzn8b10VlkOamKhRytqgLKtKai+TItPSqj9CwFTpoEzCLC6xG2oxcGnhoeJpOtoLw6x1mQpmLLEE8OEAdLe9y1NMCumNIRk5gTKMIyLuEpFSfhKEKP3ByxB+eaQnRj6T0lOMD6NodTHqQWBa2WoaS4VEZP94vZJWSoPewFeXq3mKCtrZVlpGDISRwoezBOODCupTF91E1fULWdXWxnYXERq5wwAdYVkgINay99Ca+//76VkR2rt03rw3KFLL1IKU8xul4OyQmlNwL4wlz16fUh2lUmRevuRznlpvYEOkqQaEeZ7q1IoPrMpnzijRtXr9uDq8Y7DHoT71R6GfPLer6CE5r0EBory6Q/vV49V2FMa7XIG6LBIiXLtuThiTaKaweflK08JT14q/V9eZN67kI32VWH8F9cmmcbnPTsFi/j1ZPv4PqSHgKskmd5YL9DiHNStyKfoVdMvlhdXcLS8jyWvZAlvkV631oi1dPtql/TyN7JRa6nzOF1kB9LyC7rhKZGibTJkG9Wq4gG4iZcV8h9+aTeCExeyC9y8uoDZUTCn3fET55xNRHGaj5N3tabu1exurCKpZklegesgQI5k1nF7dERCmiNIenFMfa3F2tM9XxVmvS0j9rRercJzJAjX+tVQPliGUkqPN0vaaPw16tMtDavoZfnp19ciohoXZqZofe2gDYq4mXSsrA8w/6I6ymkqSCWchnMrS7z2rK9eHOVc3KVeKYzK8R9LWSy7A/x1TMddARs12NSnxLnXKWep0e4iKa2NtycnMXY5JTxjhjGLa0rSC45L7Wrtd3ezacx1qv7JYgMa4/3LM7MfvBB10UjBdFdHyxUn8U3At1rDcbCqJBGWQ0qwYw6+8l8pPCmoRvTQhjlT6gYN9xWyA83snqusIj+WBD7qABayNfJcpY8pvdva9meuLI+W5lQvYoTNeFqc4rzM8oxiHEu7j/6EGqcyx+j1xFpaaJC05Id60gkwRmOpaYQXjx5Acf39uC9s5zbPS00tHNIx7RhgF6oxrIaowLUMnLSlkg5WqhoTmt3pvgkTuOvnOPcocgLUXLT69a7L28trODc8G1gbg4/tG8/JnOU45UwldFOVMs01sUjxijiFxdkVa8zWmwcGJSNHVVwFCZIALKvDBKIZHYbIJJBqleFPPCqMKIJlM2yeiAPRpZitBimJcMBo4at0l2rkODS+7HaMjpL84iMnweuvovY+DnEx84iMnYOuH0WoVunEeExMnoO0dHziI2d57VLCI9dRWz0EhK3LyLJY3LkMppuXWLZC4iOn0bi1vuIDbO+628hdvlVRC6+htCFVxFkiJ5/BXGeN11+E61X3kLTtXcQu/gqQmeeR+iDFxA65Y6BD76L2unngVPPInzyO4ideB6Jd59D+eZ5FPQJbVoGASpUeXG2mMvg7oOxjwzkOmMqUppxfZVzAXOcQGIeygN6GSVMTU8Y/Ugmo7cWepupUOyZm4h7VkYfZpP1pxCm9aGlMy2hySqO6O0B8RgFPxmIY6blCwnsJU5yGwsb1RBmZ6fsLQI2UjZAbolkZOSmjZ2Epba/6n6HvSmAoPdRlSnoJbS1a8r/xLbh5Al0ew6HSkev6tEklCIS6GjKgPmlHPRSU+1cs+aZpv5NT05YW2rfgJFyoeReTcIyAk1H0UXtSxErqH3t+tOrebT2LuVsnyggPkYjzhZ5SQJtPhBezfQmhLMvWBRyxEkc7yYLKEBnUWWfdWIPScp6ZVkTBaIlaWYRL+hMY8Fs7JvezlAwxWbLR+yHPVsi74mCXkaJGQhqiPW5fok7AraMpHtdIY6jCR5KdDds7mjKx2vbzUnh4o4CrUjYnVErFGZd7CcvFqhA9FVZPSit5SsfN9HfjAOW1zdZXKB1zmOVyiJMQZNeWaVQN6vKCXcTTh4W4nXWkV1aRGZpyXhOHxNsso0nNOa0xiSiCKe1Ut7x3sGErOXjGZO0mSNJi1ovk9XyXC2X8676/5mJ/CAyOLnD8eL8ER/I2FEON9ZOEboWHLi4SzVLkUEbQ8R2RpsNYI8dSPHQawmFo+we+Y30JqewGTcQhofxitI4v2rarkyDTZozU0G2GMFClQK8QB6t6t0VJKs15fdnDawuoqXLYhndn9aGqBuFFL5zZgxnb8/jNr2RjpY2bB7YiW9eGsaNsUnMUzn8+dmreH9iGi+fuED54laELtE9vFoNYZhG5fVoGBdpvEyTTkGm5Tl2BRpvaXZ+nEhdo+E7QZSnskFcJp7zVKXLVC4v3RjDu/MreO7yeVxKT+H/+/Kz+PMXnqNS4tg4drJg5GDw+bMRxHsmDhtAdDAQMU07WTWN4LPFnWCuIC8qKO4CqyxHObE5UGRc7d6xTx5T0xeqGVrbaeSmbmLu2hk06VX7i9NIzU+hdWkOzYtTSM5PoIVpLcuzDDMIT4wgNDGMyMQNhCcVrqNpfgzJ2ZvMN8b4KFLTt9CyMIbu9Az6s/PoXJlGR3a2HtozM+jIzaItPY3m5Qk0LbEcy7asTDJ9Dt2FBbSusgzzdPFcZdqyM+jMz6OP55gZQ4VCPc5JkKJXkOIxkad3xH4FZKGy41LOooNZzJq4pKXWyCUwjYv0x+PeA/vJxG6iiNmjUiQUmHqIUcMhhWOTyJQOGZWMrpdm+teUNxZ1CkECUvXq/W1Dg4M2qbSur3R5I1JSEiDmxVAISiHEE01MU9zhoDcxb926zc6Fp9JUVgJe7Ro+apNpkohSNk75uHe9KZhSUmA+TXp5ITt27LBnesQ8sna06UNLJmrH+EXp9B5LtL6DQVdOdBON9IkCKR3FxY2KO2XMyUvFrKMtSwlftclJox1j/jKj0oSXlKPP8Xqr9rZt22yZRP1Xckz3JShwXSsObA7wT4JVb7KWMmzvkDXdZe/m0oOrwqd/YIjkCNoH67L0khXSCpmcLctE2HZXby/au7ss9OgN3kMDFpcHq/q0hKclG92sV7vyQN1k8/FxS00avwgVayfb19vHu3r60Nrdi+aOLnQNbEIs2UTvgN6F3iydzRKnnG2g0NP12kGnN5prjIeGNmPLlq2kw3Zs3bEdTalmbOrzcIoQB7bjPkmu3X00qIiMgtq3B2w59o4vI+SPlPv4HxVXWR4paSpFa4Q1mnvKwQt3A2XzVwVc/933YBQX/UNJjk/DSkAdVEakYjAFyPx6+4UUj4wx3wN288PJNa0KCBHhbjRmYb00VZ/iUJreTi7DRkeF9rYWG3fRSOVlzGmKiG+tAuHjxdlzokk6aF5xqrWTN1uTLeStFPK1OOkScWNMxWXGpkpZWaHkPANLsz7xH9M4NUwpPPv2RZwaXcWXXn8fr43cxrNvvIGztybx/MWbePmDc3j3yjAuzGfwzTOXcS1bw+kLVxAmT02UwjhPJXiayucKeXyKyikTiNHHsafSONbCO4BlNnqzGMA54niGuI7pAVKW0Te/Prh2G9lIK0aWVnHm9g1MrSza/c2xkVu2W02Gmv8z/NUhjY134t6l6NJ0bgcGktGBOk5UrKJ1bLLhvPFMR1WwFtwygxinuDiD2swIwgvjqM7PoDI7idLsODIMoXzavmwXpzvXpGUVTtLKwjwqdCMr8/MIrK6ik0wUL9AKXV60pbTq8hyCqwtoDhTRkySuuUUU5scBEqIwz+srK2ilxdfE9ssraaRZz6p2PzGUshnEOIABTo5lni/NzmFVy0+LC0yn0CZz643LaRK0lOekZZurS/OcZAE0tyZtr3l85jZyV0+jdOUsKlfPochQGr6IpQsnkb59nUypiSPXmXShsrVdW7QwRD4toenpaQkbLRnpQTdZ5xLezRT6mhyaxPI+mrSbK540ZpeA1/0NXRMkEymbVO5BzKQJVQlX8ak+gqajlLzS7GE5gj7loJv0jFBwuQcwQzzKCtanqTXqq6tpCht6FPTIJFBVvymTSMweBI0Rj87Obl6Lo4n4Cn95PO0Ugtpy29HebkJJk1UTVAqkQGEgT8f3Vmwt3CxiMaXPgVr+kaKhNUn8BGJU3d9THRIGetmoCRHiozbN22FbopsUnd5coKqUT8pXaXowVfg7JZFgnaQ/6bFIw8G2S4vn+CuTBmzI2hXY8ovH3Nr2vW/vXirATfjIox+BXm65d+8+7Nq1C9u377AHdycmp3Hm3HlcvHQZFy974coVXB++iVnyZEdPN3bs3o3tu3dh78H9OHjsKB567BEr+8Rjj1u/NGdMsVPx+spQwc0oN6H1UKTy6NmnXaxv56692L5rPzZt241WjsvM/CJOnDqNU2fO4uSpMzh5+jROnz5j4czps2axd+tzFX39FLID2LR5C3azL51d3Th84JDhlmym90g+cW87lwchYejQMDlIUaW3p8ur1n2adHrVFL/jUQl1Glq8JuGi7C44gargBLcLa0Cj1BPWKq9r8sz0MLUtt8poEi284Jd19cnUpmFHHtm+fRuOHDmKgwcP4tChg4wftjdr9LO/4jXNL4lYx8/trF/7r2jtc/z1ULE+JbJv3z7sJm337ttrYffePXaub1apeXviXvNI4AbI6jReJkinaadvkQo7yxNtHAoFy5QvVJ7yDKitxOOmtDyZqrlnP/ZDgf9M2YgNtYttNRzA/Ko2UcWwgDBmaaDdoKc5ky9huRzCEll3icZvke0u6yHlSBPShRpSdKdy9JLGq3qYOYoJ5q3wGEAUJbahuRglnlJORbY/RnJcQhyXqZTyARqrHGs9PGryoswxYrsyGhOkle63x4h/lM6F7k2JSxVEh7phwKPa8O9/meesuE69MgYaULfLiGB5HWGkmRVdzywO7kyRq1pBuLyAwtkX0DL+HjrnLqBzZhg9M1cxNHEN/RO3kKiuoreF1msxx0GnSx8qYIneST4v1zBPq4tUCJEcemtAJceQp2zQnnNatPGQLQskmlJYpSWX5QQoSOCT+bMSLhKunEB5MpaWGrQLJZmiENJbi3U/gUK4REEnRk9oHVkOLU2YGIV5XjtptPZNooqZOc2QJvF74gVsyt+kF3QdfeVbGCqMYHvuJvYuX8P+2YuInnsLIbatFTa7SUiiiXnk0kvA6bUi2v6p+xTvnzxhk1Y3UzXh6paPfswrxjSrivSWteZbbH5cQdf0rIU8HgVZn6dOnTSLcw1Yqw26s0IcuJhGWVahvA5tRz53/hwTNf6cnB6jCPxJ1RgMPF7QEpcUmhSC8JKAVzzV3ISz585ifGKCwkRLTWQ64eGVt9IW9TiI9XFacnzo+ueyOPHee6Z0VOfG9lXFnWlevRxTY3Ye/TSB3pCgrb7vn3zfWbzWuILaZ79taciBaEvKmzKSkNXWYL32/s233sRLr76KV157HW+9+w6+9ey38bWvfQ1f/7oXvvZ1C3/1V/8Nf/nfvoxvfvtb+O5LL+Gl11628M3nnsW3v/MsRsfHTMBKeWo5Uw9pSsFp7KxtLwiEoQS7cNQylib1ifdp8b75Or793At49rnv4tnnv4tvPPscvvLVr+Gr3/gWvvVttvOtZ3n8Nr7N8CzbfPbZ7+CVV17Ba6+/zj68gpdeeRmnqJgk3MWTerPE4soy65d3s4bDWhA25EkipB2e4s+lJe3Om7U5IhqJj8Xvd4BP6kbw0jRG6reW52QGaIl2gcan+KbMdiTg7M3gpgzFa45HdW5zgnNZ46nlNBkiShNuuq57WVLqtuwmXuCfvHPl8xWcD84jdONQoGeooBeE2rIp6VOmceZvgDDFSvBLW1coL7TCEwbHkQpmiryTKecomDNoKy0iFMhwsvz/mnvTIMuS677v1KtXb6l97e6qXqr37umZnn1rzHBmgAFADnYKAAnK/EDRNE2HKYcpS7T9ARYjHI5w0CF/sWSDABeQFBWUSEsCaVKWOCABEuYQxKyYpaeX6bW6a+vaq96rekuV/7+TN9+7VVO9DUHZpyrfzZs3l5MnT55zcrl5fbXXsox49KckSeLgYn6+WqR6+msfGm3UJQdx9BCfAvYJOMk4yRq+2cTpAi2Smbm6DFlwwEnp5IQmJ7FkqjKoGWnVeaa281VnXnpmcb1iy7kNW5DlXc3I8KlpFEt/bV2xStuS8i1LRqz5Gj2vjwCcWLEmg4St20yxKZL+Y/9RLbxiTfBn1DEFjd7GVy2xtEIQTgqHTOTCkA+fiOu/qYxThMORsrq2Yisa6Qy15qxf2LW3rPsZa/namhVYsNtY8xfd2LUmOWO9fV2y7DljKy9LusNai5yYLAWjvIqypPOFnLXJcaw/Z0WVa6tKl5HiabeswpkGAVuGuOxHyomIBSkn0uXkaGzyQSB1Svnw9cj2vEYLuXaZFOosUgJsTy0qblGMyWcDwsK96syJrAhjW7WCxs6davweNRjfginIkt/Bi35Lc+qwvHcvhqexWaCt8xawKqBQSIPAQFlOTmvU58JszZZXVmxRbqEqa0YjFNYC6MAoJQ4HxDHnjrWxLkXpUxgK40on4dwpPj5VFU1dACAo1QEZtVBuixRvXvj4wYdydLYAYl3dZ9WhNpRHSXmxVkH6ymrFVjmXrhwEYXSMWpjK8I5IB1RatnGDA+WXNUIslcKRJCxuLy5p9CprinZk+oH5c+jPm/tQU/3KdxPWxNB8C56WW1X+1HNVip/DJUt1ttMuu1tcYXeVykJhy9VYP5Hj891+0jV40mFUB64rio81zjEpq07rZY2+FE/lg7PzusjBPDptE5SXcG34FU91Xi2v+ll/09PTNj01bVNTN5LrlI1PTshN2vWJCQnKa3btmpyuly9fdHf16hW7dCW4sWtXbVlthRECTgsamZdLpUZfCte0E3FEpDLTXaIXH9rj3S42h7BJZEaj9Bty0zdm5KZ1P+dfW52e5n7GJoTjpBxnY82rLPw4ns/Ozqu92LAjpSOe4DPlTMfBqSyoiziqP7wSnEjhJ3m0i6872yTI623WLQNjSfVYEg8si95lXdXgLhIRNLxLwxoIDn9OSkOaxPuSGtJdRmXxUWbas6z6rZaXrEeyZkijWID1yz71xYLSM73IuWuMJsAPQHG4dS3H2qQYXHHqVlXd/JMfqg9CEUs9yC04j+jqT4rLKJnROe+0BWMk7MaDhzCU2JhBGUyTt8qwY2rXNa/TRTysKskklhBWXSTAN6QcslIA/bz5qdKWJMEmNGSpCPe1LOfvSRYpP/g+1CBMx+fYeYv8EG045JTDT1dEG/h/TUavep9KU99W/BYlrolPS5mSVdfLqotokMnbhoxPEMJ+4ovICK+wNq800EV5+I415U8bbag96ho9o6B3bJTscHXKDlem/YN0rXyocJ2zLKWMVBZ17dQoRypJRrj6meSkqT588kLiSeWKLlK2rSo3cC7XQG/KIj3t4A/lhKJACeMoJwQ0Ad0YoZGZKtQMbeTljuEjliJHpbds5PxtVgjW1d1uI3t2WGe7iMNnpytMr+VlRc75QjLTMQgCLAw6zdLyis3fmHXrYk0NgABgsXxCnX9F1vDU9IRGOuyEWbTlpXl1uEkJmgXlNW3X1flXeR+gIsG8VrbJyes2u6AOKkGxoOFpRQK1tFSyGXVCjlohDhbWGkNVptnUCZke4TjvVhGaGi1JcO3es8+e+dAzduLwUQltCTeFszXWp82gnBoJy57pCTozDOa7ZpQDDhrncmywCIu9ZeVJZ11VZ6qpI9AuPnWQ+nPwDHRHBPlRLAuL83LM40uoykLzt8xVZnxPw60lMYVsnZAupgUvOd+WrnyyaqeyGAuhPq+2cCuPEeIaVh04JTgkQJjjA248ohPqCs045ZfdSjeYKpVgYNRGeT63S/GijSfxpJ6J4lEGPBIUEGKBM+oQstPTN2xVbVAWL7B24qDE/sc15Q8WsJw6E1eEGI4jXuAxlDnTcxuyBMPICxyElwsbQHgIFxdLuhKjIkG8LDr7UfjQg2gSgIyEVYi8anMqI3BFFWI4PuGOvHgY6A5/Lasui4sowyVXPA2F5xGdOu4C3SWw1I4oShQuihQLHqXPYxw8FSx80nDF8a6TauLhwelH+cmSVhh5oKBQfrj52TmvI8rMp7WQBSG6Y8OGCM7IOzQ8bEcPHfO1uD27dvlb+7QfnyDg5du6+lVdRktd+LEmwJlpuHU55DDf8Ycn4zf9xay2vibalkVb4VRfKVubjI6hgX7vOyO8XN3Z4+/LOS4qi7Zx5FQn3jmBbOAYXPiDnnzqnOlV3w4tPkcAYuhhcEAr2oNRD2ujTFl7aoWT1mcn9Od9Rfes/cS8+QsQ2m09K8NgneP9pQRkTGfqJeuTgR2USJvGPmo/lYlgZq1k3acFm1KW/Nj23SIlzDFHnFbR1cG3tGQYdxatS/KyG2M8cd3FgnX5RqKcdRWlBpA1okFZhjAyh3EMx+L4eEZ4rMuBK5ufND4RXpJUomd4VSFjfarrcY1o7mmZs6PZJdulOhRqWStodHRYRv5ulLJGoAf4orCU72B/p5T6kg0Lh4F8ux0ZGtazXRr5qO8Jd2WpnOX0g+5zoI/FZpPzPgbAmC7wRID0vCMglP15GjxZknYT0EhoR6nYDQ1j5srzduLoiP3Ypz9uTz/5uH3iky/Y3t5BK8hayrbk1bGlTJbUmcToaFUEDN+5oOHLTD2owZiTdgsXYSjGYWsk90zvgLN3WZXLPD7DfxZ111AKlZIU3KKGzRo+K6/gJOjrGkLrWUUMX+alPqE9p85H4y3J+sMt6L7KKEcNvayR23M/dMp+5JlTGnmU7cihA/bwffeqijAnDCarSOVDjjglRIM6GQmXa9BSlzIWtByCsIowU0f1jogQUzyPfisgTzEYncKFqwQG9GILLbTCMXWGMPJW9jS6wpQ8F015VwjGpD9npLAYafhuNinAOJrBxY53O4A/aA8+AMeaEHUBJ7cYnRKhXt5pudUNXTnDtlMhwbSkA4+VhpN52ZrLYnV3R6f1tnc6vbytqQrVIm5ybYDfy6BpL1pRuLB5oUej1rzuM7I4GQTy5U3SZaQEOVIkpBO9wE8dhN0/8DyjN0Y4fAwsTLuCdigwoptu261AKC2Kw+Kfk3G1MD+nUWrZTp9+1z+vzVE6HF/Dt0yC4gguApYohTECRPEyisPQaI5Ebg6x3eLVla2EA68PzMqgYwTgJ0pcOK9Isvw72zeV7X7wUd+EnmVlU2mTMMuy7Vytp3wL4h3O+htkk0PvgA3JDfYN+f1A36DckLtdO3e7G97JIbdcdT80YkN9uxR3wHrUvjsGBqxFQrWqvDlVHF5FqXqfUv1dGYqYLqfkeAZ+2wGjlSb/KkDRSivq75IvvplgG4BOTiviq7HDPeE42hxObtK8JqWJ4kKZ0Y/X1Y8Ji+syvRr9DK3PWX7lhuSdRnXCialcjSNckcJvcBoGa0dLzXbVlq1/ZcZ6Fqesc3HS2hcmrDB/3XJz1y07O+auVS4/M26dk7NWmJqx4sK0FaoYC5Il4mVG/MxY0IfAn94H37JVmhpUYUb5kBHZ6qrtkZI52rZuu6XcUC6j0uPdGn7151vspz/8pH1k/z574clTds+BA/bIYI/9/Oc/a0e78/bTzz9hD6stP/XAo/b8vfdZ/649vryxuSuEG+iXhtZf+se/9Es8e/PV1+2VV19zwYPAZLppVUKXL4dW2/IilKxQGpu/5KpuKubTNeVaJYhbNUxeuPC2dfcUzfIV+89/6ov2lf/tK/bH/88btiGF89xDB+305TM2r4pXfYhe1lhaQ1CGxXQ+KasCw8VVWUlirKKGyjQqi9wooZ6uListLPqQF+LWmUZS47OdlpEGb0nX2tr9kMT+9qyGqa3W1dPnDEfnyrTLShBT863+jTyL+R1WlpUFY+3Zs1f1Q1hz5IU6VH+f5QoZ+wf/1c/ZP/lv/3v7D3/07+2dt9+yz3zmU3bmzXf98MprEvzrxx9T3hkrqFODM2fKZa+dtcPC4YEnHvdToFFYFy6cs137D9vRe+61fSzoHj5ixw4esjMSQizW0VAcaYNURK60qzMyLx3XYFalQA8dOWwnT5600f177b77ThgnU+P27R5RR2XBtM1e+vNv2XTvqC30qT4mZavfXWLM9Xdfsycfe1gCYEhtXbMV4XR9ZsYeFY77pUxPsrB8/JhbvnNzi44PL2y2sVFBioSDAeEh7yxqC14CZNfPs888a/ecOOF4HT52zDp6ZB3t2+8LulmN7lYmJuzFd65Y10MflrLnDCcJLOWXXZiz0cqSfejBezwMvprWSOne+++3Rx951EaPHLKjJ+5B0tiZs2f9yvbxoFDFwOIbRjfsSvN3l8ThKNTPf/ELdkz1OHDokD3y2KO2d98+60cgDuxQ+6jjq8e//OZpq/Tvt5o6DKTns85ItcHZ67YvC45hy+6kRlws1jMah/d9mkXAFBWbKtj4wc4t6APvRBf7BGngS/h3585dvhbx9ptv2rOnTtnliVl7r/uAzUgatKs0pWz88cJxq4yj4dUpO9rVam+eu2hXxiZ81LMm3kUYh74otP2qP64IY/pma9icwEnP1IvpWxQN63Bd4sc9GrmcOXdBymzJ7jm835Y0CjyT22EbHT3KKQgpcKhX+BZ/xibf/J7lbly0Tz//IVsXj12auC4+PmaPP/KI3X/yXl94P3xM7vhRO3T8uB0/eZ+duO9+Oy6hdPDIUbXjCTvoGyuIc9yOHDtux46dsCPqC/con4Oje2308Kgdf+ABq7d12Df+9Nt2+vwl6zl6n42vadSuJmdCblCyqHDljHXmZKhKmLuEhwZJ/R0SPmAKu6vY4aNcHO3C5gc2FejGN6R4I4csXFC7I8AJm7EZld05eswW2ophukkjcookL5SbLc1Z9cJb6t+8ZFy3OY34y+27rWXkXmvJ91rl3NtWPfey9e4ZtczovQzw3F4gPf08L+Ooe/a8LX3zX1h27B1ru37GcuNn5c5YcfyctU8EV1AYruPqOctfPm2Z8fesf/ya9Sq/mcHdUjq8I6l2izTwOjBSQ5KpSAXzagw8Rp/pER/vUZz9bTWfOtWQVopow6ZbC7Yk3j8ymLeJN87acbXRzMIN66qV/QT8gizEgyM7bGlDMldygZOmz2vkXNcIvnzhHRtSWgl0lxX5etWO7dphT336c35aNeB6D+Kq7k5gbiLKjrzfgOadAWeU0SioexmxtufgiH33pT+x9947I0WxYP/3N/4vnxpCWXQXOnyoR3szovixL/2YH/3PvGwErOfO9g77qZ/6KcfBMUwYBHjqqad8RxFWjVsZdCy59s5e+9ynP2EtFQQnLIQgaJHgKNuew/vs/ofu10ioYiUpPBQtQoN53QcefMgt4hprKBoiM32Q0zD27TdetpXpcSnFFluYm7Fzp98WXmJicc+KRmZUgoVwH5rDtEL2wP6DtkMdG+biKBvyYmE4J6uxIEXHydMowtLiss+7xje3/R0QCTjqw8eplpeWfGoluJVwbMjykncihC8LsDS+N5Y3VIs68XFfQFfhXj5KlKmER594zNdvfEedcOeU21ynFIMceFEGX10M02xhWpMpKqZhVqSIVstlf8YiNAuvbMllfYlTszkvjQ6HtcVuMixKaAFHMX9+6PBhTw+xRGq3+kZ6Bm2PLGF2w8A7jB5r+VZbaa3bvATupcVpO339so2L5nwtdlUCd7mk+uOE15KuS2XRRMp4WSMTXEnu1ddfs3MX3vNpzAnW0VTXHLy1EaZC2dH2kBT2rp5uVwiyW30itaiOiIJl9LeouoxfG7PFpUW3HuOWdZ77O1XJPfQMz4JD6Qene3U0HEqRdmCKeHJqyo0oFHsEn13wnrDZ8eY/NITmNzRSqrAOoj7Bgae+w9DLDs79lKdyMcICruGKRQ6/MGJBcavb2eTklI+SaT9GT0z9RnlFmRGIzeivqjIzRSk6tQMHw37yhResv6vTzr572q5dvmLjl6/a2JWrduXKmLvz5y/a6TPn5M779Z135U6fs7NSdOekQN87d9kunL1i5947b5fek5BV/s9/+rPW1tHlxkPjPDSh4mjp6vxEX9Utk2ZOpq2gMHaaIWz7+BRHd7ev0Q4MhC3nu6T4BwYHfPqNXaQRvN9udcin1H0oLxCJ9kSm+CyHghito4QQ7mzu2Viaser0FQn8mvUz6m5luYHpNOIqjf44qYCpsakrl+y+HUP2wK6ddo8M3WPC91hvrx3p67HDfb3ujvSH+yM7euzeA7ts/0CHFRbHrTg/rjLE1WrX0H4hb0fVf4SXHI8YYXkUtR/HgC1sFGxmvWClqnrAWt1mRdUl/6h/3UotbbYm+VKtl2xmfsJKMtRff+U123/giH3znTMaEhXtmuTpv/nOd2xeyo/Csp0dogWF0jpcNUoFqZTQDkoH0IOw8NQU+GCHwMBwYuzDwpJ/IREKB9R9KIngcsKLGWgXbwHyk2V9Y27a9hw6bIeOHrCOTM32dOYlXCV8a23WI40KMryQulJetrfeedsqLBaShRyNh2CbkSX+7W9/O4QlzwCufKGQrbAsOkrcN9yiwv7ypZdceHsqlcFfViObK2NX7K1337EWjqtQOqYcmIBEqL34rW/aIicbaMjsDSemWJDQ6VGD//wv/H27/5H77eMff956uzttobqo51KeRSxv0Yg8dAVHgDOk/Ps7yodvTeTFdB0d3a6csMorsgI422keoaZRB9+5YfowOKYEgwBdYXFeQh/BX5aCY+0FC254ZLdvhd01vFsjuR4X5KH+slyY75Vg5KgXPz2hohGoCErHQQD5FKXaiA9+IURzTPGIFpwGgFBE0YAHipD1FcrjlAF/L0X4IDBXFL4iJcKVdThGk719fT6t5VMiokFsK+rLi6BxnETjtq5LcMrLm/ZsNGDKCNfV120d/T2W1ZC/LEv2xtKslE3FR7YIb85DY+qVKwvrrI2AH0qxxI5GOb6Jz9TKvr37fBcTu8XaWqWY1yVYVSYbEPqllFlubhWNwApFymizLmu1KjxWVisa5cyK9jJMZIRwOCqCEIGel9XLlyyDi0omCPeG8sHAUBiGBtNi0qt++sKEhD3bdUtqT8QBbY+yDdTa7NjYQk8rCbclxeelTAKw1HNt4ftFrlDkHDeVF89iS+PHfbuUTkeR7+cIEfVRNkEsr4qnxGvLy4uOb7SSw0nm3gNcLtRbwFF8XJR4y9a9X/aJpp/62MftwxqxPfHQw3IP+fWxh3GP2EP3P2AP3ndSyv0+e1oj6WdOPWHPPXXKnv+hZ+yjz8k9+5yuz9rHnn3GXvjoR+yLn/9RKYMdznNqCMcZZYwMos2cdySfwjdtsroTP0MOgj2egHgusLhr0ci237dSu9OI674T99q9GnE9/uhjNjo6KuM+LHWH1DjRJiUWPUx9hLajfPpyM66K41bA7BAvqxKRKdzK1JjNf+9PbPbb/6ctX35HRliPRpBdEuKKokSB4xIjS3VdE68ND+6RgbRi1yYX7erEvNycjcnhvyJ3eWLBLk0u2HvXJ+0VycobMrZquXWbL037CMfx0xUXBT8jVTD1zQvyxGls35kpnp60nF1p7bKJlg6b0cjlSrboimdF8uKv3r5k70kGvHT+tJ8f97JG/K9cvGr/9s//yv78vTF7Q4bES2+/ZePqh5nKquSfFBQbnxyTwM+MuoMvKVjQ+ksCsHrtdabXXtaQlHlzCQS1pp8btP+kbaizFmoMtTOqHIrHB2hWVyGrMg/5Vg0dF6HGJ6g5y2z+0jt2cGeHhvM1Gzr2IfvJH/2SPfXIA3b8yAE7L0UxO3PD+ErB9aUbbr0yTceC74osVjYO9EijL62uWIXdTRICM/Ozbp3ykaGe3m5bXZGAkapeUGdBSZTl7xns9eHv8sqCZdVJ2AZallYsSdh1d7MlmnUbCRU6vIQVoxzeKeqTtbuoUVh4M1/EUTnVKkSUAGSHnOo5PjFlD5z6kH3kYx+zvXv32kuvfs8mV+Ysr/iTi+qQJ55UZ8yKNmIndWoIv2f5hu3fWJHS3WcdsqhywmV2Zt6WVU5Ww9marHCNZyzXkbdT6pQHR/fZ+bPv+q4sfyal5B9VYjwuBnnu+efsweMnXGjkpPT6Za2haLAkmPsf2b1PnaBqudY1m7100d6otNv1jhFry6g+5Q0brq1Y/toZ279vt+3UCAzDgHWSC+cvyMLP2fKclKiEfFaC7d4Tx+2Jxx+TRb5q166PiSQcr8JONuWlK0KJqcjPfu5ztkf0YJ1g1+4R3zKNImeNYreUIh0Kemb1/PsTJVvs3a8wjfrUOYtSTJmFMdtpM/bwg0estC4+kM0zKaupRQqYehfJT1x7WALio8895+8EvfP220GpiUe9A6uXsxDdoRHx3/3xL9kTjz7uVi7Cl5FzvlWjEfFmj0ZVOSmLrvy62m1dBstFG5PcX+7ZZRUEsYwOTIS++at2uLfNldh1tftKac2nX5lOZEMB31rx7dmMqCXQO3kXSPTJKD1LMPBLVn42aTAaYbp4TTkzn54XjvlMztakfB5/8ITNigdP94xaKVuwvPjeF8vpgQgIKc1+CdmBpes2nKvaq++ctfnygiue8or4XXhwrBD8XJDCQAyj6vn4W16jlhx4KCPfAap4ldKqC2dmGXw9VDjKpJDRu2KH9mpEXuy2tzcGrVbo8tkGV0CKz0aGrAy02rULtjc7Zz/89GNWLldVXqu1tbTa3t171dbDtnvfHtt3YL9G+KN2aN8+O6D740cO2siuQTu4b6+N7h2x0T3DMgR22L7dO23vnp22e8+Q+GiHrsMyetp81NnCSc1SKi/+1Zs2PbNsvUfvs/mMFKd4qSY7lfMSB2Sat2XhR9FMf5zKwGI9mwtYrK/JZWTk8YrEivpTeY1TrdmpuebGxHJJck5xM9k8XUtpZZDIqGiR0G1RGCcQ1KUQCj1DVhncaeX+AQlu5e2tw9Qpa21hpNMr2o/IeuIE9wcfO2WHjp+0Y0cP2ehIvw1rNDLQ12+dh++z5f2H7HqeE9g8qfJBOahouc6Ji3ZE/fbS5A2fBmWn3jqHHKutwq5UpvQ0Clmct6oM1Q7JxeHR/TYze8P6Ro/bjf7jYXpNuZMvBgIGHduk+WwK5ThncZWDLzGoka/z6svXhNSYDLLxikY3rtBb/R2hOaV/b3beLs0uSslVbVF9bVJyFfm5zCYsGXd5peeMzLwIuXzhjPVJ9vpJ2qIRyw+jAz32zGc+a62iE1ioHkEV/sav/4Z97Wu/IgVQVgcWAwvDRXWkjac/bwuFQVc0Dkg5AYzI0BDLwxfIJCwKa1lTk1nr0qRd+LPfsQeP7tBIY8MGduy3h47ul5DZsEuXL9u1sXFZrCKiKn728iW3UsO0RE7WNdtvV21EQhElBNGZImBHE5b2qhiPj4PNjk349mkWiGHUFSmhfg1HGd4yHYUAArDWmDrYv2/ULXimW5hmoNNhtaN09uzeY1euXPGyEWrUEEseyx9riNMCGI31ShEO6jmL/ky7lCQYe6zNXrmmkdEX/kurK15OQn9djVZTJzl66a/txMJ5++Tf/YK1soFFjeJTVKIrQtqZieaV4GKd6vVXXrHf/d3f9d00vmYhQHnFRccXvvCjsh4flIW84pzq7yMoDxbvmSbo7e6x1dKiDfZ32L/+vX9tf1g4ZpcPPm09UqA3NJw+uTFjmT/+uv3kT3zGDh/cL2uBo2Fk5YperDew2w9ll1e9mY6A/l/5yq9I6Uz4dBKGBswidvHydwwO2c/8zM+obcSk6hDkwRqPj/jUbgOD/T4NxEuYMxen7H/55ttWOvUZK/H+Va3VeqUQMmNv2b5LL9t/89NftAxHuKsERql0CjZGsFMPBUPd2Br927/9z+073/mLsFlBaCCj4RH3CH7u537OHnn0UW9bRqtMLbGGwYg33yFrU3UY6lDnujpm/+M//brV73/Opo6fsgWlxegtq4z7L79tz+aXrLY6YX/10nf80wvsOqMzw3+DO2WNS4CfOHjYRoZ2usHkkgNBp3bzd63krly/bm+dOWsFjQgWZEBlmZZTeD90Eu/88Mc/au/Kgv13+5+zy5W89bhgESLKjyxROoPynJh41T7at2q//gd/oP5Z92nAjQrt3uFCj5HdqIQ61jzvsgCBGqx5KE+xEjvUXnn5FevViHhVQrdNlc2pTTckIEQie+See2xyo9P+Vdu9ErB7fIqUaTzyYVq4U33Grpy2/vMv2i9+6RMaNTyiMRrCGT71lpBDCIM+99ShRWW0+QK+COP3AS9RUpIPv1vFhOuGfkzYqqzl8xfG7Ff/+b+x+Z7DtnHypN2QTsiJtzmtmY+XdczN2EBN9zI6mQYHyN9rH0gABs4bPi3m946h+13sebiceDfyT6A/P5LCGWHX1m7LnZ22pP650SojmulZRWcbOJqDURXrOENt6zIC+MR7R5g2VTGUxeakkn4W1A6L4mdGF0ylexECiiWr/qkJy51+1U4O5m1u6orkqZS64q2jTJUT+TGdV1O7tMj46ewo2lo+a+dXlfbUC3Y+M6B+tupr74xqJLn9KB1eVq/KuEDRhLpyDVUMlEj83jbrrmhb1jXiVTpOzebjcVnVsSijvqM8Z8WVRcsslyyj/rSRQbnQZozuNtzYnLlw1vrQIaybSJF3KvzDx/fbl3/tV60tkclNpfMbKJ2v+RQDn3ZmRxbCsfj4R61c7FfnV2wQJroQ9MVynOLWOcRQYRwWyCcJcivTdumbv2P3HtyjYZyEqtLm2nPqAIyiYC7eZQlTJcsc7Lla8qPSWZCFqKVS2YZ2DPnog47Ot/I7JGTY1Ta9OOfztBuyPrOFvBVl8cNYTAsV1Zm9YaQ82HwAwkz5sWuI4y5Yb0A4MN3ClAeCxI9QSRQaUzA0BfXzj4cJWTo2u714CZOz01pkjSEEK0tSSiJ2UQrm5alla/nif+b73nOyHNRdZdW22d5z37Plb/++feln/56deuhxWexSyBKmeZXNugw08EVwRl+i97f//Fv23e99T0Nx3jvSn8pHmXPFOnrkQ6fsEY2IEHLtst55aQ3821G8apdKeVW4ZezFP33RvvFn37Ibj71gM7tP2mC91W4Ir8MZjfRe/JfW31ax//QnfsJGpWyhN53DLUznPrGQaMTUH/T+vd/7feP0Az+mR+VCH3fQSMLkc5/7rHV2dsjixjpCcCeKSVFQqgy5r16+Zl//2r+y6wOHrO3ZH7HljTVZchnVQeON6Su2+hd/aF98+hH70KlHNXrWCFM9pJNFWykA30AhgYUSA/7kxW9aeXnZDRHHQ/X2aSA5tn0/9thjdvjwYd9wEnaEKZrScwhptiBrX+HS+Pb7//Ib9t3LU9bzzCftxo6DvvGDT/+2Ks6usfds39Rp+9JzJ21hZsoVHEKYqeSWdvGB2uu1735PRsSGHdozKizU6Rw7hCcCQvSUuyjDZGZ5yT7z6c/42hM8zsuvfe3CQ3Xr6ttpv/3H37bzD37Mjy3pUL4uih1pCTZ5s6LhgYsv299/bJ/NrPMydbufqF5TPkyRsg73jhTb22fesdGDwkX0BqgvuaC0c8W8rWqkNjc9bT/6qU/byoIUqB6yMYJ2Y2MGa0e//52X7bs7H7bVnh3ep+gHAIoFZTbYpr4z/n3Lz2kkOHpQowQ+x8DaiThIz8MaByn4CbzORwJZ94O/nT66YIuzfgq/MLIEF94tC1PhLRrdy+BdLKkO4rFd99oYcqK+ZJ28C7MhPtRIsVVCvJszHVVPWYfe/qynhheDlY1+glKBnLSL/Ek4NKG/uCACA/g+PPS+5uNd1Yc6g3dV9efDkjLVFUN8omS0Ob8kQ8izcwuDCwMygGIIf4S3RKTV1OfAuZ2ODD8Lp0hfoEd5D0mwd46fsVxtwUcIed7JkTFJmQD9AGMGAb8kw7yU0ch74LDN5Hf41z5bNeqDwJxmQP1QOBirsu+C0vEq8uOYyyV0SQYSG7SMrOPWDV4tULmSd52KuD5x1Yrz6itSZV3CsaCRI2O+Oi/2iyd8iUUFzS4t+rb5XIXZHtFSSqcoYj1/4pB9+Ve/migdlbp5pPOrPu8eiIq0U+IdeyRUui0jxnHQQ4RuhsXWTlnD1YLVukdsStZtLq8MpUC6Ssu2+PK3fNtdOFVZeRVyYtJw/EpY9AZUsKjhtPD2D5UPQKNACIUlwcxD8klVPsSVV+emsdGzQegoheILM/mVGck8P2l8MYIzpfxUF7/P5aqDerGqk+chP0xMfEYQWKyMwLCwORQRpuYLfi16znd/2F/P+0izPQO2LgteElYNzctcvF/RZveU5q13+qKtd+ZtZ0+fFFJgVBapvW7gyJ/8KHFpEz/bC/q7xax8mK7kZa+68i4tLqmRZfnoHkMi8izMA7BGwrTS1Zlxm1eca50DNtvaLSZpk8XSZoN5jTrXJqx+/ZLtlsXbmWcjhPJSWdQNbMRKni/TYr7Wg0ASs/CCHARyIaGY0p++lsJOqnXduGJQRRA8jCzwMwWHoF2SQl8qSYn1DNmYLLcqU4YqrlU4dakddpVnfBdbT3tBVpkEv+qdces1TE+xJoXLqA1yuYIvDCO0EeyUB9DmCLL4dnlWxkGgS2hXp7uG7y2ygGqVDSm0jM1t5Gy8rdMqMpqYE2f7NBtN2jOrVj3zmj0z0C76a2ThHT/UGYGZ0ciOUR3CFAOJlywzbrAIb8XlaBWmF7r8pWWT8l70qSiUu2Or0UV2Q4pnPW9XKq12ZWCvlWWNhrc6hDE/8nFZq5RtZPKSPZJds75hjbKxQmvq8iIhX89dEz9mu9p9+m56IUxB04ogHHm6rVC0XrVhgY0xSzKmNFpijA0yGd6jE85l3V6TMBnvG/GThkmLUESgMD3D1ykRfsW6hE6dN+A5PT4IeS9kG0A4BvFCQdSHGrlk8STgCb/x2PsBeSleTf2yKiG8LuVSkp+XUbOU1aKReItGi3W+fCll6vcBN8BzVxZcHX+y40ES5h7YHF8I0JUAYeJXj6G4+iMCPCV/WBdhLUn9RPhxB6pk5lfRiffsPCjJB8XSpnZqg2la6lZxY0ojbynXWkZ9XDhHpcMVn5JIRoi3ZFzkNiQnGVVJjoTRpNDxMvSndqwoTalNbV9Wf1sl/6raUspdGXFaALNPLHcAbOjy+iY0iRDL5z0mAGXLkT34eDU/oz42MHHB+qYvWVddfVj5cbZfXSOZrBR+TvXwTVeiE7IYnlenl3EtuqigFj3Pi9c+dvKwfflrKJ1wOHBD6Xz917/uSqe6ylwig16UTt0WpTQKGmJm1TFpCE4udoEoJdIiC5eF6N7BYZu3gobCA5Zt77diWYy/NKPRwJis0ilVJStBW/QpoDW0pAQJ1US4RkaDPeL20qAsBApGgLmGVzjP0dpMwvKyGRV1Zo7EU1XgAr+P2foDOYIU7haZ/lBACBDC+fZFBKxrFl+ZQ8WCY3qgJovWTyWQAnBDRUJnFaFXqVuZnV8HRm0pNyQmUUNrNIeNWVan6dPz3mzGFjh/SYKOdQWHBmIBJ3AoS4u0dKtDuWWP8giMxunBrAXANIVlWXyMwAQ5CW9ycQULqCpF4zupEicdYsqcGl6jVhknIkmHZavtriAzhQ3rV3XXZBhIQnlSRiMICDpgFEa808FwmalI2okNHpSBMgmJwpUpSRYPOyTYfMoEWvtV5SsdiqeND5Xlk7YXDbH4sCBRpMy7t+dU6opGRRKoG61lhSu9noV8wN8zlbEjfKQEEaxOEFEAyw/wKQvRzHcPye9CR+EIeucH/WeNtSSNrOE10Y8Xe9V11DkzvmbJt5/qWaR5xQpSXJygAR8wFcvIAWBthE0Ghb5ua+nI+6Zq5tLXZR36S5nOi5SqNqqXbZ0TI/hEh3iW6Y6M+lSdzwgL72yL+k+m3eY6xGMS7OxoIl0gMT+8N7VsA6p+94oUkkayjAIZXdSEe1l5cWJw20CvrWv0XFH5QsDr7n1B6WE5FsExLzIl1X9uSUJNuEjx0Q45CcZqtih+Ed/199qcRs/ED+mVVunx8ZnmGuseuilIKBbrpaQcR/Z9gHBrtIPTRCpLF2RIkrULepLz3J33sQ1bdUODqT2UT8Utdk7GqhEfYSihS0+st5ZceNeliABXODj8Eu5cRdZwL+d1Su63AhIPiMsIfPBR1Jcwl/KQYqbvroolUaC0kyS154eIJsPAo4CQFSCrxMzKB7ph0EgYS2agupnu8pdE05iI6NCyJiOMmvtLnBlkMXES3BKZQL6kldoRXymp8GN+JY9MktLgFGiUsqSu1wscPRvhmFY6DUDe6h9aceJ5lc97KH3hynnrufGuFWSIVUprNrc4aX2DPVZETsn4nZjSyEajGr7Iy6gcfcunsdXrhQf9seh1/vgDR+zLX/0Va/NjxxQvKp3f/LWv21e/+mthysYFGYloZDnUJ1aSCMFazvDOYSuo85WqFVuShbqujKtSTJXuIVvfcVRCb0SEEHO3zFl1ZUqIiFFaiyIaU2oijBgilA6zBUJin6knOvMR7jLNn+OhMjz3tvGOx0wnL596HPw4pBzxknQ4D+dHEPOOEDtUuu0Rkj6qUV40slvaEkYsHHpHIhLTa3qO1b3R0yGFI0GUaxfhlUbMhXXEBlyWdil8VSGsy/C9dU8PbrqExbZQOCMohAik9rlkFIG4Jct0QqiFdbYWZIlLEKoMji0CcT/xwJuQUZHaSCXUZM0zpC/IGs2JoeiUbbKqWZytSv5LtCs7p7jXnbTKxRlTYsrzhA7wIlMkPCNfuIGmUxdSQnVErF3qIsEnpJVPqAv54qNtfaqOaRxGMaUVX/PLKdwFjoQM6191MSot2oKgkTDEmmQUQ0bkxekJ5Mh0Eu/FMFr2N80VhwVvRt51jTD5aiwF+whI+PDnQHKBVIdwwirUUx5huChNoa2gTgqtmZrAYpRQVkN4uysumycavKRnvPdSEY3WVAdG3m6JSmFCwFBU6Nw5GSAFpfXVMNWBTs2DdQk0DKYWWbJZNhXIYkUw+IcAvdr6gYDyZbCuZLy0qw+1lGXwUYbogwGhMaafg7WBwlHaumgT3qNK/ykX8QsbfRiZ5MX0vB9lNSkwKdKMcMgU2m1Z/TJTlNGiuCEVpcuFZhDI+EkEJYdBZtfXxOOisCI43gKmdeACbwc+Sic+5oDVjPoKb+4LCduQrGAKmJ2TfKRNKt/riqHFKcwYK3CDT1MqmyrKUWHQExphOrBLjHMYN5hugw4qr1UKETzC+XEIW/qvNJXSZYQL7MSOODZ/5NXenG2GoVVSOLztL+HStl4V5BCSTwak8uc8Mz7kSFuTIWn9LDKlZ1qJPh2mC8Gjxae/waKmRvbjZsQnRYwX9Zcwha3nKBnJL0ZIrWp/hifrVQwhYaN0GTYcZGRgyoD3U1FUtKSn8svJ6BF/i66dGt2wWL+yJhqrDNSLy27FzW+wJqQ6qX3ZXezVUlnUIEJcK64KJ9BCmfpUf1uvFScnrf/d71hPbs1W5lnmMDv64BHryEvhI+ck/1dkxEzPLNr5M+dsh0bbqrkwICZ9WG2WkdKRPnGl87WvaaTDbIDQi0rnt6R0vvZVjXSqKlTI+HSLKx0BFqCIxplnh+45ZkN9/ba+WAqISiixGP/qG2/4RoDJ3E7LnXjWVmXNtdTmROhlIcm7Bog6mJa6e64OUeiCg1v9W8A7e4yCgtJ9jBVHLY2AhpUS0kU/FlMzjxg5vFgHNMMUF02UlEE4ZZA4jRvYQ7SMrHtR32o5jWw0+ql7OsUlD+UfpogESVLo5TVvZuUCJHgQJOqI6pi8QZPXyCDXIgZbVY4oYy+UhsRD22A5wuabcYsAC/r2SfeH+ni9cJ6X/ygMmiEqwvNG2+jiXnU6DA3fASMuhbnbcl22sFSxbgkPt/oEzkaxLgLKSbdzGrACQ1f1u+S6PXh1BaFZ1Gb68xTCC9rxomm2LXTSVgll8GYnmkSFIoFPxCmWJ1Ad0hDiEhNRJdEmvH09BcEicCGsf29WF3jB33xRNt4TW/koAC/CF2XmydO0UAWIH+pEPZLn+vcyBMSmXOpKfnF+3ttOQM+kPNrep2YFbhvq6vi5LwBWP2kRMmwQimsdEYfAQyEtiHMNeROQhKeu0If8SQte7C6EUhWxu3N8ie9nyeRqg9dkcMjYZCfoupQA76+0SJEuSJFWJRBR7l4n6uA8Q06hYGgC78aCA89wz/PAy1jmGoaqBWV0FXLG+X2MRlEwyxsrfvpHR7bDdzDWK2WNLjWqzeZ9ehz8VyS8l6VcClK41dWydbZ328aKLHsJ8pZCp4qC47xw+amz+oDwyommkJGdu+TTgjEt2cnMCLKSF6ora1JKjHDzMrplzDAKcM4vVa0T2aG7JcnUquRHQcZlsY5xXpVBK/XCx+PWl6xTdMxIa3AiAx+4LLR32cz8vBVyrcZZlTUZoRyY2lEs2EplyTdXYUi1bay50sGw8ZVCyJa0O3WBr5j6c/KpXjxBVa/KUMrl+q38ynftyPTrsqWy/sG+++87bqWc2cLMrLWqnnkZOOvMBGgwsaJRuJVuWGu+S2VhiLDJQPhqFJ+rVBOls81Ggt/6td8MGwnUgExvEUynwiLmnQbWZuoiDgdmdmg4xXPWOjbU4YeGdlhlcdnPRavlu229d5+1Hn9CDb4shuQLkjlvmAikheBAlFOEBCZPRQS2CDJcBL8nfiMdTRq8LvTkTSscHoTk/GDN4CcuTeA+b5hQRigr5KPnjTwirgoTc6/LksHCq+vq1nmSdxD3ASifk6djJs0n6qQJElh25FvPrlpJVmFRltd+NdI1tnIztbkuBYTVp/gwR7ClyBv8mjkG3BECoU5ODwHCQeaYUmERRzrRaZmqCHE9rdre81UEHLSJOxURzfu6ZXyVyzZVwbLEUg9p3dJTwlg+CqgxTboF0srpVoAwijEdfeHNFBXnWpFFTiMGDo4tyygqqxOoT3odmc7wUx2SegUghwS2KB3noQSiQKby0YKPndV/0/TWhZwIjzwGzn7FUX/9OxZpWpCHIniahBbe33TFJVk1+oxbpLrSj0MQ/VMX3Xgeys/xkD+mCbnpCu76j0onWPIB8PrImnw8hPoEX6wPQEgqmQP3lLVV6RRUHp8XWS6YtTNRU9VoYqXFjna0SSh12OWlZevqlMDP5+363KpvGgCB5NKkNfSQ1/tZAvFZiKxw3WekVPbIgt7bWbDLEoKr5aoNqVI7O9vtvWrJrun53oJGUIsL1t45aFUJ9IGeDjs/MW5d7UU7NtBtVzQCn5y9Zr0DvXZ5omqP9vWKrzfs5cVyssoWAKW3WelshDVejboOc7IB08caiayuVm3/rkH/fEqh2CHlavbm1IytCGdGOu1q8x1SQEd2DFhre97eKklxTE7bo7rPdLXZW1enbVUKo7M9ayuLc7ZTiqa3q8duoACuXrJ9Pd3W091vc9U2mxi/bqP79tn5i5ftwQPDtqBG/s6li5YVLXxEKDMgrNemQPjQjwBvwxrcopG72q8mJhuQoXvtxT+y451Sx8vLaoMNP5S5trpmrf1dtrS0ZDvbUCCqv/LhlIvS4rSUfodCUGTiolsondZf+h/CezpvvPaGvfrqqxrlKLKQQogw/GR6xN8iVxxs8B297GRbt7nSsoTgur8Nf2Nm2l96WiqXrFBfE6ILttgxbC0iVibDgmAxCGWcC2oJBKYCEj+OxUyfHpClsMGUTuJcsDfuNWLyK3GCW9cQ1fOQ8FxnAdTzC/l6nsov3ns+7iceaZOyG3g0r6T1vMhXoxnH3/2J07Oqrgy/2cUXPldMB4FJEyGQcrFj4ZJxhYPP/QpofCxWUu6QMP3CU4/Y08cP2T616vjkvE0oYZvMVIQHuYRkSZ5JxqijRiFyhCMESYPBzUiMeWNXM1zlfOpHV+KEvAOEWoQ/NgvzCe1He/P2C594wm7IuDhXQoAxmlOi8O9p8Lji4drIZ6vjb7vwzQ4AJ/xQFsen1Ctii2Iub3vWFuzZ+4/7ac+LFdWNRXZGhYhOJ1DMBQDDBBKcGy4VLQYBorYcbYvhotKdfqGt0vG4j+Bh8YHCIxoexBWH0k/CUTqNZ7H5YrzEpdMDMZyp5ohLA6ckDuD3cklzeHr4AT/xfU00ie/p5eDbRl6JuxkQn/ZBkRGP/IbXS/bTTz2oNmqz+3d02mMDBSvKaH3g0ZNW7yyKoi32cG+7Hb3/hL0zecPCt20AEEkKToMTMAVeweCg3JGOjP2dJx8Wb3fY0Ogey5Xm7YWT91hecmmPhHF94qr9/Meeselz5+zJBx+1fcMjNtibs5b5SXvyvgdstVKwB3aP2Ei+Zk88dNLevTxnP37qYdsjHN+eWfJ3fMA5YCHkRED81DvyQnutap/cO2ody0t2aP8h6x0asEePjtjClYv2qSeetGO7h+3749M2q77MezPZtZI9OjpkDx0/bDPL6zakUcpof7ftkkDPr6/a0QP7rF+jhS88/qDNjF+0Bw/tt1MPPWwzqyXrXVu0R08+ZGfHF+3UfQetIKP+oZP32pWLF+3zH/0hW6yW7W0pOD7Lz9Zy6OWGBHSNTsCIF9piUHIIK+FMH/K9nTbhnZ26aPlczd8J8hGVZD3ryHzSYn6Wr8fW/JUKTuQvS2kz40N+TPE5rfTTktFoV/U9tLPfnv3MZ3xaGoDtHFL4CORToririW/rlzTS6c232/Lcgo1dG/Pj0jkji1Oa+ULkCovWSuYvnWl0NDt2UcPonLRnzrf9sQuj3sKIRwIdRcR22Yyc3+cl1PPqjOz7bzqPkw5TXo2r3LryZIcLzvN3JcCVslicVdkoDHeKq/LrHp84MTwqlsTJQmaRr47TPc6VSwyTC8qGa1A4jHAaAiqQfBPQ0eFQV/5Bp7sDGn5FCp2+Vcy3w7qyRRs7f8l+/MnHbIcEftVHUsHSciAyCckPs5d/XekIPNuEBc/Im0DhzGIuE1UoH7Jzwe7pkusmoEZKWFqwzz1+3O7p6/AvI9alcCIK70vytwTgyXffK5JyyzKEPnLPQTvek7UePcCKZx2BadwWSWN/O/yWEDEXzaBb4iIwUuQWF3RUaGP/RHQKktZwCLnJpegCbzh/JNe4XuVXFI4/Uzz5XcDqH+d5JA5hjoJhVMKo2l9VkGM61pUH8ZLyItBmCvY8w2g4PCcvL480pCXfJCy6O4EYza/KON53Sa7cP9xhPzTSb0/u3SGBPmBPHd1tr731fRu7fsl2FiqWuTHln8+YknHqODcQJ5d0znIR8egcQhx+j+4asIGWVXvlzdfsr7/3ko30FiUox+3Vl//aBttb7eTObtsh5vjIySM23FOwyYkxK26s2b7ONju+d5e9c/6cXT37pp3cu9P6Rc+udTb/1K3A97xEF2YWoF5wAuGAkRb7NAzAzrrB6podbM/ZcHe7zcgIqi1PWX8xY13il6G2jEZRfWqzmvKUkhW/Hj+y2yYuv2un337bpqQwDo7stLPvvmNj775rfcWcaQBkkp72scce0MgoY3/27b+w3Z0dUk496rcb9t7Vq3b9wmk7NNxj/SI6nzpvzatv1Eq+3inB6Y6pVZg4jBwTAhIUSOj9xnlIgTyHvzeWJ62vFXmuXsCaqfBlJI68L0v+F9QPWM9nHXFFirY9n8h01mWUd5ztcJA3zCThAqDEHZoMp4SiKATnuzC8hc3iEmc2MbW2oKFVRYh0aNiYleCZm1+0i5euqCGzGg522lJFSHb2mLBTThUpHeWhXBHePopA+LvTSMIFftPv9xLqvCns9ygAjxMcS2ou/HXd6oKySOIpjl8pk2cICxcY6qR+JX4SJsc8ZHRpBdQIE5E8bhJuSu/Cm6vChSy0bjggkjk6rEGuDYDeutDgLgD0NBwvlLH3Ziv2B3/5rmVyfXZ6fMxWNHpUi6peiDgxvxL6ek1SGKkajmcE4k+ueCifaRCuCDCEF1sro2NXIGEuq2Nmro3WrU+a8kc0oujMVmxmcV4jrrzlZQHG8gG8kYfcfysX4yVx08B9pAm1RaBGx/QNdMroprMtK+vvuO3szNk9B0ZkeVXUMRRB7Z0Wstu5APJ5BZohSaXdEeo7o+Rnh6bzi3ceIMRpEur9LigT+R2X4A/8l1zlGHk2R6DCxJtXadKO/HQlXSMP4qf8jXKJnxDPBaOuzWndpotpXIzGchIXRr23dzGup0vygX/Xu/rtjYkFCdoN3+la7hqy2dqGDfbttXtGRu3UvQdsWdb8Ur1qZfGQbxhwepNPBIXFfBu0JiwJj80mN72wbBkJ40NHd9mRY/tlHK9ZN+eU7d6ruq/bmITia9Mzti5lmJOBcqPGe23d1trdZ5McdHrPiA0fG7GLMp5zxR47umfYOF2izG5FimKqKDSMXMAI5yA6xh23M5WS9e8d9k0dyHnyGBAOk6LBgmRo92C/4nFqhUYIGxV7/exZP5HhsfuP2s7Dh+30pav2wIl77cTRe+36/JKdF57fOHPGViXTVjIF2+jdZd3FTpuYWbDqRs2efeyEDe8ftbEbsyJLi/UP71Z9lm1Zg4OW6rrzFP0F5yywBagN7M/0KFuqmbrGCOULtvXKkhVbq8b+Bqzk9o6idXW1SxdUrK76KLaaYd13dHJ2Hy8a+6YIV1C0VRNEHadPGhqnTL/+2mvh65NqKCevwnyLsojHSsDQwAByz/h2DWFMpdWEQJvi0bg7+gf8zVW+n8HRE2ttResePeCHxrmWZYFLFfOFLiqpvCEMQpwdHt5JYSzu1bkbTpXwDq8rnd87KhYe9zjl5wrCw4mr9CgpxRUi+hfVXUmwcQA/4SCt8pQP5cYNCo6D/Fw9jvIjPmWBB+GByYLCodP5eXSUL8WsWopw/FKX0LA4WJaGZ10kHpvv4R4WBCobHMN20BbrrsmKH91hz+4fsd/542/ZdVkR1Xyr5VmoVGR0Ae0DjnR01mRoXL8Hb38cwnxUI0eZ5A2T6eLpiYs3I3bzoJBUEDtZCGi3mr1w6jEJEgn43m5bKlXspStTEvJCnjYjb/Jzn0KSfG/mEmyDX8WEXGh9ytwI9FAg2fsUUuLcGGHzr6IdHuy0H75nyN747kv25PMftj94421xabvXkR1wdVUUWju9SaA8/aocwhUclCkPEM5K58G6RwE4MRzBxJ9E9TT+DAcf8ADeILzpCI87sKB94JnwzKlLI+BgAi9bV+Kl/qiLXxPHcxxpySPcqxz4VFe2o/MuGIvq2Ce0u+crHHhnw7fs6975O8kzuvjnuCR/MZ7zq/xpR/354zn9Md635tptWnLpwmLVXr0ya1dKG/bK+TEb6tllLfmi/eXZ83Z1pmTjUkQTi8u+e488XKkmzkeXCiU8aTp3ANRjShdO4DolQTtVrtmuXaM2IcPjzPVxmytvWOfuA/YXly7ZWxLSM+UWe/nStF2aq/np89fXKvba1Qm7MDVvfTtG7NJCyb777hW7tlS1ak+vfX9swmZbChqJrfpJJ84QOBE1TN+KZtAhwZJZj6srq1bqGbR3pmbt6vycTVc27NzMsr02Nm5vTczYhbFr/l0hdjEWckWbml8JazeFTjt7fdKuawQxr7ynZDi9evGaaFO28flVe/PipL2rPK8trNglKZjLS0qn+HMaVbz63gW7MLso3M+JDiW7MDlt4zMrvsbCejsYBgIK46R94JRIS8KQgU5fRcOwrihCbuyM9ZVnLadna9VVfznad/IqPi8Ss5uzo7NoAzuGJDkkHzQgmVlb9pfew6sl9DFYKWt8EvvY7p329Cc/bZwI7+VuMG5ShPBy6Nd8e2schoEUOzGmOH5+3z7rFKMsi7hlaZ9yfdWPN2HhlqPtDxw4YOfOnfPTc9n1MZ7ts/6nPmw3pKWzzGVmw7Y/wPNX3t5h2J1BB1WVCW8IzSSuE0ZXKpG0sUPo7AQGgkYGAJyM4d/v/NcvTT8oeJ5+Hzz0ycSbQLjxTpb4XTzr3oVK6PkuHDlDLeZHvd4HPEtQJC3C1uMnBXrXlyJTg9iR/m77ex99yopLi/bOdMX+7em37EJlwdokeQuudOjoSkNnD5l4Hn5pVEARVEa8S4OjweNG2TADkRMEE5EWUksVytoZ6C7azmK7ffK+Q/bKu+ftxbEFGSikS/JwTRgg0vNmsGkjQQNH0geFgOWVRhwvphAGi62z6brFhop1+8knj1uXlMurl6+JRtckcPsY52jUtupKMGYSswsYJj79Q0cAXmigL9wJxsEPIYz/GBdh594GuCzXNcku9HPu4eckLiQhD+LGTQOeSqT2ZPpBnN0KPI2ikG9sIe6hN+UwVQJunguSm4sesGUWY4NnlM+Ilvi6OBAzxA55+xXnGd0eiBbryXQUW9ipb02jDna01qUMelvbrCWnkUaJ72my/VhWOHhz3KHuPQ8SCcJGo1DDmC8gc1Z/ISCkUBwsdDW2Lr6FHMqyY7Bgbbawztdnq9abxZhjHYN4jABa/JBTuLfTp+lbffbG6y5e53w9vnPEl3FZ43b64pxgwUBzieXbywOd2lQ/ZRDwUx8mPudOxtc4qEesH0aC+8Ktg7+MztKEnnGSB7iQN/LVs/S8yUMYCH+uHApMGK8RACxt1DT6QCmgFP2h0gVK6lb5xDbnkdeJm2T6rSJjvcRmsb/6QxudPmet+YItVtecZvccPuofaaxU6v6tIz8WS3WeW5YcEL7Lc0uuVKgZ6ziMhFgKKUgBfuLRe+2/+2e8HBrehwwHfgpef/31sJFAGXgt+U2kKoqIHQv7d4+ocTaso7vHdg0PeQUgzfDIsL8keOnyJX8Lm6WkRQrct99WqJaQcEYMVQzgtSYHGFQ3/iiU67dJWOPqT8NzJx3hQHLZCk70FMQGB0KeSSPKoTRiPi4Q4wM5GCrE1C3peC4HJmF6g+cicJKfg+fPNeWUIHqDrRT8UCVQgbcewotVHMI3cWPB3rpwzcZk4VxXw86U1ag5NTYFK3+fCqMcpecaBUSznqEMF3JylNEQODzVD3Hd7xglYX7fpA3Al0WvL5Vtpp6TJTltl5fLNidLLux8i/Fi24W7Zt6bHdDEUbAlAnQkz+iYDsQJez1fd8XLlNGiePLa7Ly9PT5rr1+dkkCTwiGKRA8veIa5+JBt/A1tEKjvf17h0JYewyVDvAGX4DwoCYcH8TbiEZa4BsTwdNzkSlk+0vKwhKOT5wk64T66NCT3YOzp8CfxoFUDdE8McPLt7kkcLvgxWBzkd7zlCPd6JOk8ctrdAvxxjKe+wWfKOU8RvqSPlMXPs+trNr/GhqSMrcrVqxqtVHWr56DjSf0qmknuINQZ1QReDLVlNiMSKfC8WpupJJW5LK2SlbVSXav5lD6SyzdCqSz6N5+B5ugkTif3j+ApGxSCb5zSP5/64FTzDRnVHNBaEc/zsirrI87LIOiQ9JVw4zjwHEWBDGRdw78UKuDUCuQeH5wMqUBd1/DvCoYyeCeQ9DUpDO45FSW+WOvcqjSujBSGwOcVlSrnCurKifXILPDkI5X+npXq607pqGcoOVyj32kNLgDsKH84CaLF2q6dtd6VWX8vDoOFz4hwhNLw8IhxEjn9fnFBo1TltpFvszMacfVrBMkGGdQ+4aEvaaQj2X9kZMie/tSnpJSkmAWNkc7Xk5GOb5lWUAS+G8+nVPn2Rtee3Xbi2EFbXynbyiIVlBWc57j+Djt79qwTvbO93VY3shrp9FrfUx/RSEeCUiOdjJANc8kq1H8DhKkhIAibCJEg8QoT8UJeJOLWkc5W2BoWbkOYP0vVMU4HUca223kV1Ymkho/AsDS8LYwDryQdV8dtC9AGiZf2iIBw9GduGdCB6PbCx3diZa2cQxGtW95tgYxvdURoVMQQZOPUEx5ByNJJKYeOrEjgrQAUDcN65poZRSCcGyjoHnoEJwHlhgZPSaxnqifh5Ne2zvtWVZUta1Dl5zTS8c/y8hfTeT5k3ISQd2hn/AnLOTRpQdpw01xzCBDiMgHZYrkaHSFjJfGvuqcsWKeWknPkCP51q2bVgRXUWHPDzw8WIFP1RCdz0urGy/E44OAJ5eMvAd2HOjiW24IevQ8a1qqA9ACCzreXRxogMLzkZlyeO27yO0mSzIP1Gm5ckQCUkUIqcl7Mk1ah/f0z0WSrdA3DI5XOWVngZW8BHjFSuBPweoCTEnkSFUJ7c3ICo61cje33EshqB9orrNMRj39KQmxFHuQaQUI3SFL3N4CySKFg+JryOMGD3VasScD3NV64JH/d82Knupl/u4cwPjmRr8t4ymasImHfJh5hU4cfZqy4lObtH3zyUnbwb954UpOyYLQiyqsvhI8uqg3U3hjyrMHG+I22E0Ar1kGgUY3yE8GMgoFnQMN5VM+hjK8UKD3KpVZnHVNh4KcwPg7I6MtHSiqLQ0kpCodx622rfIHwhLxizaR4hXO1mLO2P/99OzBzQeLO97b6Z0XmFhcdtxEpHj5fDi4Li3xjKxgX7cVOx4kpOY6U4uw1NonxUuwnHj5pv/jP/g9r88+CC5/bKR0alflTzpiaWlqwYkfB+jt7rNDCDjJpRikaTm/2zxRr+MQQjz3m17M91v/U8650WmXVoDUjYwdmD4wTqhyrHSA9Somd1Rkk6SUhBQIleZ6KHyGmi5C+d3+qjvEZIdspHcLd9tKzUIfk6lk0G80ZMnm+LSh+muGAWDa/9Kn1DC+tIToLYuOccQBmjo6hTsr2bN8GKai0BaXjKYUMSqdNDAWTBoYK9AVPOiHTLH4jnvOLJyOeruTk9AgdmCuN5MdugIuYTypH+deVF28tS2CI/pQA/oGUYnaV715B5CEvQXGcuSkPl+qsTVCYysSa5b0udZkkvAmwOgzNC3nlXBj15Eimv7B+I4wCEZUeR+cUTkpD2XR83o5nOsatQD13nJTG21OAVQoQHgUAgskt4gRi3AgJW74PIjUBL4erBwR/WKQOMbCIOQ+QO8dXHnf+NPGTRxIQcfD4jVKaQFyyhi5udKjRoCi1YGqL/MIIMvBChE19P4EGLjjuQ/AmIBU4BfZMMNK9WtQFI4IcBcAcP/E4BFgi0kdiITX8QSLdydDdFoRoiMJvjEx8KQnd+ou40ihsimHzVocC2yT0SrLUfO1CBbDOVVQ+TEhx0I1MZwnGVvW2MDW1IaJQCsZMs8VVWmw/uD7xp2nFN5FIz4G3cBYnmQSlIwpsUTrU3684hd9M6XifCaTxyM4XtKUco0k2KxBOmUTinTnnU9HY0+s+SZrwAzggAIKMIIyqhHalZlnrrmftxr/7Ndu1PhGO5BENNe7y2Re+ocSJNeQDbXKFdj8yzL8PJsSQQUyderuqHVjTKapOn3jkAftH//R/36J0BL/5G79hX/3q13z/NTOVEVkAP9buWm3NFpf5ciRHaAvxNmUvgnI6sy82JQ27Wm+z+bZe6336ObuWLWikFKyKCN5wCQQL2EtwAgAu7ARY3a6thQhTEqqGxwTIwxfRE4InOfgziJLkQKBAcZM8gdgAEZyhOFYj+uVrPm0C8mwTKCCUGAC8QwM28YyQZuDGqAhIvCGFXAtv8xK/Te2Q83vOdCNfphE4FYWY7MxzT4IoePvZXgpMsvQ6UquwNRdLqNXymXDOVxx1OiPKuYWkcjgfjyE+4oNOQr41WSzE5/BLf3tZCOZkrsITPOfqHUt+GN2rwV8Dt3DvC7G6oTwvPaDQ8EN1nqB0UBxbQV1TT2tSfMKjVR1U1ntrDcEdhBdb2dkUwWGaXj5c4PjhwJU2Uqgc7RFfmkuwSejgXg+B93DE4xnQEBi69XeUEuBYoloyrUI/AKgN3cvr28Aj4ODPldwVtTyUgSVKHAQWUZx+SRlYzxh4gPclnuuPPgE08AsXTw9wi0BG4BOfez9dQp5m+xBZOPgNP0ASR6EoJ4wZf3FWjnw4zTqWGQG8Ql1S4Yzg/VbpoDeC18vAQFLeLog355O+Iz8UMvy1qbepIRxr8QD5UzYjKVLz/iC8nJeibdPDsowU2s3xVXnwjTL0KTQUD1+tLYin+YBfRcISWiG4Q1uHciI9RYnmTaiYA+UxtebHMykYHkCZUCb9KLeO3TIAABJkSURBVJaNHGukSjxx6oy1ET4F4q2qZz7LkESLa0Mcy0QYSi5MDYo+woc/nnHEmPO1wr1dE1xRuqT3NhSEXJpXehuborJLVctPn7H6ypjVC5xLSFmSBcLb6ybj13NQMtXW8wsGnM+tSGIF46YGzWWsFiSvPnHqMfvF//WfWFueUxiUNCqdf/Fbv+MjnZVy8xO6oEI7qgmVlX5pTFXUtagqRkIYF7Rd2HBtlbCU5VBv7bKeJ5+2iY5uETNnHJUPY3inUtyoWCIjcaYVjc5zhqg0FCcY0+mdXl4aQsvRVbkhJfOLlYoEM8ISoa90Sqwr4hbCE1vhLgggTigvYI1DkFHLkL9KTvxKnTQQ/pAq3NMBAVABC54RREfkGWFRsGwLjksT0gxAMp9+CTk64wdR0QSPx58ih9GI/uUnVsSZ4zjY0lhz6ws2CEA6/j2u34e0gAtItS1paU4/fdYfURZopzCRh+E0SoqTqNnlE6dmYt1rGjWwIMsXUQPlQ6nuV5yYZyzff4mClKToBv0VTJA6toMzXeBMTsxAmPk6iXLwtuFxkmcDKIc/Dw+CMQqDZjt7NI8XOih+4ci1GaUBgYOJs+E04LPW0DpYnmFOn2Na4E+2dG8FeJfvrwC0E23Owjtxw9oqEHAO1aHO4lbRnU+aJ1VxHKkCi9ngTj5A8tj7bRLUAOQSggmzhJr4lIwzdCxLfsoV/szL5yhAjjYPZ+CFntJUMMILr3iGY1hCiDJKCOejOv+jrTzEMorn57QpoUsYaK5nCLGQVo/gR9EWhduQMWQZsnW8OSeQ28gvySOSu0PuNAwM+d2Ywk+APEy3AT7VrQA3wJBx3HvYraEZI9AOfuIUdJQOChPwchXufyo4YAy5Sa02IzDBMRbrvKr2AJ9g1IUwj+vEJk/lhF/hsY5bwUvQc/4QPSEPnoQ8ojUNjmsqZ3HhhtqReWhJMnD2fseV+J4b0fVL3RK6IvXU1owgGU2idJgOLYgn/5PP/x37uX/0D0SLsOEhKB3l8R/+6N/bL//yL2sks+QPAqSVjpiC0UDSYIAL+AQQtICfnopbXbf2Pbss090la4N3bhRDjeD0knVKozqqnoXS6t+rLoL4x6OUN0rHh4hk7cwbsAHiy3/kVy6t+hlw6Fqf4/f4KJMmoeKV0AAhfQgJuEBg1lYixA6Fgt0OQMkZQ/8eU363ihO6JP3N6+jWaQLe6FvuiRMsG+Uh2jQ7s/JOxQW4hd6eDgGnK3+koJ2oq3+UTUKfz0HExo4QaBHy9TTeFiFfvpHDt4bcwnelQ8481ChC/ggwO9YWnSqXD4uLNdWbRVDy944uBu7ke0SVVaWHb4Lzkhr1I8/EeUVVJ2qXKgsgv+a0i9ImxPU1RxecAeKOtK3pSeKdUuWSMhQf8+Aa4lNHOiZBoR1DHL8kWVIL/hlVwYYUyfoep2hDu0hfdhkB3g4qO9APvtPV+ddbkSgyzEQ3lccaKQLGy3Z+4EIbezSlw5gCxGcqh2B/5EiAWwoSPOi/UcgBTjo9i2xNfwM3jxHL0RUhgmrhQN919UUehakgFItyFFpRaHpi+rj+WuEVVxC6S/KTGE/ooquHBT5Fhnh/8Li6JvG9lTxPCTCVzbeRiM+fl6hngSeI1AS/S/KI4PFUDs/If2uaIIOScDnq6LhQ3uao74MQJ+DFP32Y9gJnwiMfpvu/iOMX+h3pIg/w2ygXfHWltVmbBCc2RngcnCpCWSEeDYnscSzeB6E0gZ67wwt/JbGbqK0bH7nkHDraxemgKIHjEmZpYCBwHtYzRfKdt/CLonnLCydmHorq///4H/5D++hnPuVJqF+Lhqdwlr352vftF/7rX7CFhUV/AAOBn7/nkGQsVgtIgwOQVACA3QDI4kKjIoJlVUCOzw2zmyQwmyfRT7RKQhWSSgBeNvdYVaqB3xNOfCoey0zSCE86AKOc8F4DSSACHsVX9FAkv0HFBAhNEUJC3ly9mARSXmdM7pudIrl6Ofwrtfvl88I92MO3Kp2YxyYAPzV0TOv5EBzvU0BIVACRzbx8pCV+XcguKAaGuwoIjxoQ8U8DYTAbisyVugICPqF1fdqtgbzyVv4EofdgeBQPwDZ7bw/5Ay+RszBtKHSFKT684nh72xCbcpLyvNyEpoCu8FBSbUFSA6VtRPFiyEf+hBYNoDwvU5H0j7KMtPYwrp4++HnitE+y2ZKb5+H5qVBPr/LoSr4uE5W4Gt7juNO9ZyL8/CVW9S8xhZemn8T2c2EdrGPummmdlxsgMeAJFUy+uipW4NEUowXaQzX8HsJPADJIaEX/iYI2qjTKxfgBw6B81DK6Eic+o20a7ZTg44Fy7y+O+GDJY/8NYaCRJA6oK2/dE0Le/pFDKT12ajETwhP42Q8ODckagJFKXs1iwVl3kDwJgRYh9wTkDVSQV7zP6N6XCUSPKJjha0Z2QC0xqiLg544y3ae6k97po9tAH8kyj5ekI0zOQyhDfp8iwxFbeRCTZy4ClR84JGzl+HpcOflI7kBWgbZN4DZ5nETY/DwNjIjZedeape51pzlp00onGfSAgJ4JE0Xw8ml3PWBVkpmswCsZ/2Lz//TL/7PtHR0NaXBR6dwYn7Yvf/nL9sbrb/oQOljabueEisj5MP0miMe6wvj41UxKKasIqSQt6CtFHqnJFMRtgPyhWZPqxUgOSab+JFSevEMc/ahyDpHZPX4zbiNnBXtlYzpAdQmjG13xN7BIQzM95Tp9k+RegvyBAQJEhQA2/JE6YgJ4+q0Ayol3E2wVngmEqYDNEPDaEq58t6tRxHsrNNokwSfWxWsT6ewQa9RU4wy3Ix0QUgGa/IN/a7khTwV4lJiK31QkAfnCf2SfprXzI9BIH3DcFOcugNyg43Zt5FXYBHBT0i90daGS4vFggcJfzcy8vq50gqD2KEldb42zIiaPty60p/tRnAGIgKH4PrQTaHyCXldfjKcGjhR10vNEESkgcY5sAzYZUimC0feBILQDOI2SKIFePFdvSuK4UMZxk8R7Hz0cN4UrjSsXbgMBna6x5pvpjVkZ8gUfRlxhliWAs2b068/7VUyfwsnLS+Xb7BebIR0/OqDA575jX1barfzlCjVFL0X2X585iXH9Mca1370PKCvdJsBm3kg8glDNZmSwZsMAV3opUZvFQq9QFz/hQg9J67tDlaln47y07i+HslGHaeWhnkH7L372Z+25z/5IKE+4h3cR2fesW6ZSvvknL9qvfOUrNjE56d9Rh+lAAqEBEs4sFCw/EAkKeON5TjzHJURTaX4KAWUkldwq2BzkbzDNpnBukgTOrIEgaeXhb4M7EBDixonBAOF5I10DQvwQN0Aom/AEA88uxKDxw6JZ8Ee0gNiA/EaGRASGvDbDVsYANtU5BXH0kgZConhOw3Zxge2Y1OuS+NPQjBsolVTFIc2kTWiGBSaM/uBp8I+7pE1ulic0kPNyU70SH/GC8oohAQjyiih+oHVo3+1xvTMgu9hGKTS2hyRCwhWJP7jNSod6C0P3hzQImVQXug3OzfyDEGiC0yCBNN2ARM1vC80jclA6jqmH44tqzelOuUkhnts2aDZlAXVM+lu6cuThrknbFskc1nS8v0AbN1ADJQFPL+fCjucKc3xQGoniiQqFcN905H2giSBt4CMn8kr3D8WP0GCrxN+48XQBjzgSdTzchSgeWf/VSnPXY2Mdh/SEyfnULmH8UM8tAJ7Ndmx4UibD5nbcrk/fzLxIx41lgGcTJN90Cy2Di2WFetAikXStrBtSf/64bpE5jHD4fMTB4RH7yHMftudf+GEr9nZZsb2oZ1Hp8AUkAXP/09PT9s0//Zb94Tf+wCYmJnyLHMNK33ap0U/cAREXOd3iAEnlQNHRKWdvYCe5/lE2BDH4ArYjmKdNwom7CSSs0iTf1K9Ik8ovNme+kHxNUK75eHPGMTywRhPeJ9CxoBWFcm8mhGJD8B938cGw4WcLvK+CWzFLwZa4dFC36tQuW62twEh3lvc2WHlRXo8k32ZuiTgKNw4hXmCiIDxD94/tFJ/7Ti5Pp2fJNZ1PGiJfxMe0g/8pwJU9tEyl5Vm4yiU4N2C7Ct4hxDp4Fkm2EQ8Eo9ctCQXLrRCeBZpE2Ip7hBjkZd0O59hBgFTe6WAgCEl5/IdsN4+MCAUdx8kxSLDAWg1JvM+/H4LBFyHdFzwrgdNJfw1h77wh58UEnBt56FkY6cBfIbOosLj1fFIlxjgRAv4B0rTeCsQi5c1jhFb0tVTwJYX/JymaxYSMNkHAqoGLp8MfIm6NTh9I1ykNcXkgQNJf0sIyENG9W2Uot43Wgd7JNcK2zekQHsS2bBoeAdL5NOSCXxnNtPoUHLsti+3tPppjJ/PQ0IAdPXjIjh4+YjtHdlnf4KA/I55Pa9cr1Q2USGV1zeYXFmz2xqyfTMBZbJNSPKvszdZwnoVOPlnsDJQ439mQMFWCTUBIgsZPzY3hAuZhI2yndDZBo1MHIDpEwUUrqZEHZST+BmEVFqYHbw8xzxg7yd4DGuJE/kb4zQAlqzKbc/KgkaJNCt4nIG8B28Ulz+bupibcTb43AwyNrbBdvlvD0vXEn37+QfEinzA3HvJOlwHcqoytcX9QwAvQd5p3Ot7N0qTxvjucbxUXvmvm29j1lwLKak7nbMWB+830DNAU28RzpQIe7m/Gj0abl+H5yZ8onDR4+ak4QNiAEOB2fEO6GCP9HtWtIF3WzaCB8x3EjfC3FXczCW5Pj+jS97eFTcbM9mWQT2wPrriurh5/r4hTCgYGBm1wcMC6u7ttz749dujAQdu1a5fCB2zHjh2ujNiF6K8DVCuVjTUpnOXlZZufm7fpqSmbGB+3a9euudLhxc+pG9P+5unSyorH8901ICFcQ8VCg/PLMBJm9BAqnNTHLfTgvYXWDUC8TZ0Rp9vtlUPAA0grnTslOHm6IkvyTuOWtrxvh3Oc2orlxrK3w+F2nSkN28VFEMc2SEO6w35QiAyVhu1wSNczponxIl5phfE3BfLemlcar7Qf+EGVm4ZblbcdpHG4GT4xnx8kvuTZXI/ZPm/Cbhb+QSCdjnK3uu0g4pBOe7dKJ0J6neZWkE6Thq344u40T+Bm+W4HdxMXPD4IpDfK/CAAnNP5RT+KBMXT29vrCmZQo5rh4WE7eHCz0unq6vLRDrtqW6RENtjSOTs7a1NSMHyga/z6uF29etX9fC9ncmrSFRJn+6yWV12pAFuJh2LwkJQAbiidcHG4rdLZQiyPrqA4ykkDQdGyuu0IahtoKJ1tII7OwPcmURqQXk9J0+VOG347JZKG2+WzHUN8EPibpI3wg8hjO9hKn1vV+Va0TEM63a2U9tYR1+3y34rbzeLHeHeKb4St9b0V3E3cuzFc0vmm8U+H36rs7eh4p2nTcKfxgLuJezdwN/l+UBrfDu6Uh2KeXO8k/5jv1riEo3B8eq1Y9OPQUDIom6GhIduzZ4+NjIy4n/CG0llaWtoolcs2Nzcr5SIlI0Vzffy6XblyxUc8s7NzNr8wb+XlFVtdXfXtiyrNC906hRVHZmmrP0JaIdyJ0klXj+hxpLMVaL4Y+wepdAiKyozfOx3pADdrpJtBjEe6rWnuNo87jX8z+P86/a0gzU9AuqytHflOrFTSxzzuBO8YZyse28FWi/1mae4mzzTcCb4R/mPEjfinw26XV0yTrvvdpAeIcyfxItxN3LuBvy0c7ibunfIQecZ870QBki9uuz6G0omKB6XDFwf6+vp8dMOIJyoglA6KqaF05hcXpHTmbfrGtI92xqVsxq6O+adJOV2atR7eCF7TKId52Lhd931KB8ejbZROerRwW6WDSxE75ntb5ZAq404g5huV5VbYpHTcdwtIGiQ2EJBu3FtBjIeLDRvziXnF680gXc6dlHkz+JukjfCDyGM72EqDdDkfROkAW5XDrYDnONJE/80g/Qz/zdovxrtd+26FW5W9Ff5jxE3jH8NFoVvm59uBb9WmcVPBrUDRPyjOP0j428LhbuLeKQ/FPLlu7TfbAfnitutjUenwHKXDNBrKZefOndbf3+/KJiodFA6jHVc6MzMzrlyYYrs2odHNzKwroGWFrays2OLioq1xDIXqROZppG8GKAhHMUnj3iRtdB8EooK4neK6GdysXLIjb+qYjvNB8Iz1vVnaO+pMCbzvJcdbwAelaRq25nG3tLgbHIh7t/HvFO40box3N3nfKdwtvncb/07h/w9xt4Obpb8TQQik098JLn+bdbvT8mO8u83/Bw13Wn46XvRH+ZZuJ0Y6KB+UCoqns7PTNxWgeLjnGqbX8vb/Aqtk7MIoeVyIAAAAAElFTkSuQmCC;" vertex="1" parent="1">
          <mxGeometry x="637" y="551.47" width="92.5" height="21.05" as="geometry" />
        </mxCell>
        <mxCell id="RiVhKGQ44bodc8hM81Xa-62" value="" style="shape=image;verticalLabelPosition=bottom;labelBackgroundColor=default;verticalAlign=top;aspect=fixed;imageAspect=0;image=data:image/png,iVBORw0KGgoAAAANSUhEUgAAAYQAAAAtCAYAAACu2RxBAAAAAXNSR0IArs4c6QAAAARnQU1BAACxjwv8YQUAAAAJcEhZcwAADsMAAA7DAcdvqGQAAJdXSURBVHhe3f0FgFZV1/ePr+lhBpiBobu7BUQQQQGVUDBARTFuuwsTExMLwQ7sLiwUEwWREKQkpbsHhuk6v+9nnTk48nj73PcT7/t//3s4XNd1zu69eq29T0ygZP9i2r9/v/3++++2ZMkSW7FihW3dutX27t1rhYWFFhMTY6WlpUZ1fJK4x1X+e/Q7SuV//92zv0tRvtjYWP+M0n+nrfK/Y2P+XG9pUPqnezGx/7FePstff5f+Ku+hn1HiN+P8u3zlv0fLy73o4h5X9PvQ+qIrLi7u4P1DU5SHxHpHv6mLK2qDVD5vlCd6Rir/rPwnibxR+qvnf/Wdz/Lfy/elfLtRKp//n6VDn1NPBOd8/6vy5dv6q3a5d+j96DefET6VT+Wfk6J2+f1XebmifpKie4fmJU/UXlQm+iRF+fmkzeg3ie9R3uh7dJ9U/v6hz/6qrij91ZyXfx6loPQv7glHPT/fw1sgrn9w99C6ys9jNObysPefpajM36UoT/m8Eb6UH+ufvgclZd/CFPWvVGOJj0+wxMQky8vLs6KiIktISLBKlSpZRkZVa9ykqXXr2tXadWiv3xn/8lj+KUPIzc21zMxM27Vrly1dutQWL15sq1atsgMHDlhxcbGVlIQdpfPRgLjHdzoWHx/vv2EWNFF+0FGT/P7T4PWdhYxWsPyz8ilc5jCVz/MfB/3n8oe2VT793e9DGQLtq+dlv5T0lfyMmYv5YYxRHf+s7r/6jK4olf9OKp/nr/KVvxelqC/RxW+Aiu/MGYS//PpE+Q69F60bKcpDKj9W1jwpKcnnASBlLngWtRHVSZnyMPRXn6R/9j1K5e9Rd/T5V22V73/5FOWLPv8qRfej+pi/iGHyPScnx1JTUw+OqXyKypDK94Hv5e8f+iwiHOXvkw7NSyr/m3Lly0efUfqr8uXL8BnN16F5+V5+PJ7K8pRQ1sv7zYN5qKtU3yskV7DiEtGOYn7/0aeof+SPytAGV/lUPt+fkn6qpH+NKXvkeXSVqgou7seKiPK9fDvl2yPxO2rn0Pb/LkVl/i6Vbwv8AN6Ym0PpBSn6HqeP8vehjyUl4dhiRJfKP4sVPBYL55gLnpE3Li7e2rZra4d3P9yat2hhderWsSrp6VYhJaWs1J/TQYbAR4k6tlYawLz582zD5i22bv16yxYDALF5XpbVB89VoUIF/x0BDwODWzVt2tQaNWpkq1evtt27d3veqONMQoRIXPyOkj/TykV5yw+WFLX/JwAol+fQ/CXBn3+Xf16+XdKhZf+u3uh3NCfR2JmPFE00c8CckI+LtsqXYT4OjqUslW/jn30nle/3X+U7ND+JtrjPRfmoP4fWFV2kaM2i33yW7zO/y4+LT8a8bds2ZwjVq1f3eUCwqFixot8jf8QYSFF9UR1/lco/K18uKlu+TyAZ9UdXlMrn+a8k+hBdCDv5+fm2ZcsWHxdMgHEy7vbt25eVCFPUz+iK7kWJ78wZKcKpQ+eifP4oRfVFfYruRXAVfY9SlJfEZ5SnfDq0XNQfUlS+fHtRW/yK1b3SklIrEg6AB6WlGpOqj+o8kJ2t9Yh1gpRfUOBzV1xUbAmJCf48oh/RRSrfVpTK9+fQFN2LLXsEAyKpZoMMcJ+Lu/wu317UVvl7pOjzP0uHlvu7xFiB4xo1aljVqlUtW3OzceNGFyiArShFfRKlDL+XWSGYZ8ZWvo8uRCvFxsY5DU9ITLRk4RvPYNJeUnUk6n71atWsmq7mzVtY125drXHTJn/CFWcIWXv32Dc/zbRKOQWWtW6tVW7R0LK0plUzatjePbstOTXJYsRpvBNqIDY23jsPEjAwGAaJewwYJOFZ3bp1nRBAFBhUtPCVK1d2NQaEipCcxPd4/SQvKfqMkrdflqLv5fMcmv9QhlC+rUPz/t3vf/aMPkT9ABFI0eTSFpeWUpz7rxlCVJZ0aHvR7/L3SYfmK/9JOjR/1Eb5++Xb/e+kQ9siUTfwEElA/yz9s7H/d1JUpxOOckPUTP+3xkzZaM1I9De6gOkCETlgn/HCHMjHM+aAi+/ci64o8Z16o7ooXx45SeXzk8rXEZWL6qcvUT3RFRHRKEV5SX9VN6l8vSTuH7wXkheX8P2+vgPlSKcxaq+siCdqQzIvKsJKINzQXJSIWUT1onlD6KLffJbvU3Q/Sjwr/zxKfq/sNiVcS1D/IJzFAkG0AphBfBlY/IkhUIhRuRXgz3hJ+fI94O4fv8M8ZD1YV1m5KFGaS6tQdiO8o8mywoJCz8F6e39FX1mvGP2gr5SgdzwLrSZkCrVR6BqaGHVx10qL9F09U10w2kLh30F4LZEwj7agbAVqM1/wSZslykcLlSumij7nWKPmza1SWrrF3aW0bPEiy1650Tb9Ms/2bVxj+bv22PwVq61d41aWEZdoc3+ZazMXzLWE5CTbLG62cuUqq1Klij333HPWuXNn++abb6xhw4b222+/2XppFTz78MMP7auvvnLiD4P4+uuvxZWaOyesXbs23beKqRW8c0WFBXYga78ABA6qARUW2Y4dO8RMkgVMxRpIvu5LAtFA+Q3xxZ/BvaysA/6cvCAmFxO7f3+WJSYkagJynWsWFxfZrp07fCKpB6nmQFaWA2uu+oQaS5+yD0iaUXnMZeTBR1KkiQyBOnATWEFevuUg9SgfGhQSEX2i7ngtbFSX5y3IVf25ypfl/QycKZY6k0xQ3oL8POfchfkFns8RWO3EI4nm5glwCpyoUD/tgiTcY+EZF/ZTvuerHkcwPc/OllanOQRg6D+AVKzfcQLEArVDP+mzI5zaKpDEy7OionxHbOaMPKEKqnHrO4hbUlzo/aNYBKj0H0JEH0u9P9SrJgFWh0fmrsB/U1+R5oT1od+0z3qrUlXohbw830OphzY1Dj3K0nonJydTjZ4B3mRGqy308dNP6orVnEqMkgADgvNcEmsZoQQJ6YMw3euL13fqgpjTn1iNsVhrx1iADeaENugLcMoaMMc8Zwy52TmaK8GmyqRgLvJ+lAlH6kei6qVt5jxZuMMa0Efy0zfUdp7TrwTswWX9oK/0Dzsx93ytlS9B7QJzzBT9YN2QBOlLlvAnOVGCm+4nJgH3eepngtcFfiE1AjdImMyh45PadZOu5ov6DgiXwj6HUiV9C/GvwDVf5jI+PjRL0J8k7NeC0aTkxINCn88hMOPjEuyqPmdUug8O0SfGy3wyx+SnXvICU4zV4U5zdcBxjDUQU9FvBCvqinCNxNzm5eU4bJSW/gEHceoLebP1LEZ9pp8JEmSDYo1N818qGEcez9qXpcmMtRwRxdTUFB8rZq18wWxRENKimCBebRRYjnA5MTnBijTvCZqzUn06zieqXKHy5gtvVC4R+MnVM81i9v59lipNyBIrWLbmKDcnz2JUJlZ9K1H+pIQkOyAcKtA6qMtWovZK1b8iwVVBrgR0zVGhyuXlHPDx7tUaMR8F+p2Vudc0a45fB7L2+Rhz8oosV/PL/GUf2G+5aOm6gLlw3Yotc89ewV6y04z9+/bp2i8alGBVq1UPGcKmLZttx8KlVrx9ux1/VC/bJi1hSM8B9tWXX9jRA4+zcePHW8/jBtj7kz+29NTK9rUIPWpfWlqavfrqq9axY0ebMmWK1a9f315//XUHUFShlStXWps2beyGG26wmjVr2ty5c+3II490BHT0F6KRjwUmJQmQAaxUAV/FShVDoBHBxRQDEgLEqJ4Q+/T0dFfdAVTKO1KrPtou0uCxnUH0IMJVq1ax7Rpbw4YNvI6M6tVt6+bNVkUqW5LKORII8VkU6gNJ0sXUGGOd2nUcSNI11l27pC2pL9hCaQ/mxipWqljJJxxiFzEKJMUU5YU407/0KlUd8BMS48WYdqmeFCGUkF3lVqxYpr5kOGOgHuqAm1MeIKE/a9esUR/SHUCSxOh27tzp+ZHUYHAgMVoZSJAs5kibW7duc9MNQEu/d2gOeE7/AKrMvZm2W32pJi0vW/UGQYllCjjoG4gFQ9m4cUPZXGruVQ6Vf/v2HRpzigN8jNZo9+5dnjepQqoj+D7VAQGCgEFUYLj7tGbMba7mg3lYt3atpUo6AQYgAvStQAjCmOJUR46Y4x5prilC0niNN1bUAoauL+H8qs5dmgPRTK8nU8gRG5dgmzdtsNRKlaRpxjoC7Bf8QGwS4xPVv2SHnVwRg0puxkrUOuXbHkeQCk5cmOvt27YK/iqJQFS0fap3v+YG0ydEmzFAqNas+t01XJx49Ie5ZP2B2TgRINZwn5CN/CTWaMP6DRKW0l0i4/5etZunvjBHwHeB8uzUGFk/JD7qwodXOT1N8yRpUnm2bN7CV59vJEEI/z4xjxo1ajoTYb62ad1hFCB8Bf3ert/kTauc5rDM/Wwxs3QJa7QBAyFApEpGVRGSQofdHOFhsfAnRbAOcS8QU9mtvlQQ4QVmgcutW7d4e6w5sLNXQhSCHYwO+CsUDLGuCQnSkvTH2uaKaIGX7mcSDiHYIYQhRObkZPt6QrB4piL+nPUCr8F34BcmXKj+QDjpPwxk964drn2kpqQ6MdwlgRIDfJAgBilmHCgv81NJOBcnODExh70aZ5pgp7ggz5LF0Hfv2ePrlKT8BcUSnPS5U/2vLtzxMUqAxWJSWW3kZmVrPJqLEtGNghwxVxiAUmyC1hGzmYivhBUEg0BMraRQDFr5s8UoYuKSrXD/LktPDLWK2IoZwr8DliYYpN546ILGHpcQZ/HCD7Fr4WRFh7sEmKLmNVdzEC9moizOyEX5RNdqCJ93aDyiixpPhYoI46JnoiXQPcoCPBWEB9C8PRIWeY7gUSUjw9JFg+hQMO/nn4I3X3o6+HzsvcFTg4cF7111ZfB6rxOCt8bcEfy0ZE5w6vHDgktuujU4aujQ4IgjjwqOOeaYYPjw4cGAAQOC/v37B+ecc05w2mmnBYcffnjQo0ePYNSoUcHZZ5/tv8UMgvbt2wenn3663/vyyy+DWbNmBdO+/z7odljnoEP7dsGihQuCLZs2BNdfe21Qu2aN4Llnng527dgefD31i6Bxg/rBkEHHq5clwbYtm4NeR/QImjdrGsz7ZW6QtS8zeOrJiUGdWjWCKy67NDiwf1+waMH8oHnTxp5n6+aNupcZXHrxRUHNGtWDD99/N8jPzQ2+++aroE7tWqrrcH8uThr06NY9qFunjp59KyZfGNx3zz1B9YxqwcUXXqQyecHvK1cFDes3UL3NghVLlwUi3MHpw0coT0bw1htvBnt37wlenvRS0KZV6+D88/4R7Nm5K9i0aVNwWOdOQeuWLYKFv84PNm3cEFx37TVBxdSUYOLj44PsrP3BF1M+Vx1VgtNHjAjErYMlixarXz01hmbBnFmzg32ZmcEtN94UVE2vEjzz1NNB1v6sYOqULwIhd3Dy0GHeNyF8cKTK1KpeI5j/yy+BiHxw7dVXe55xDzyoMWYFM36cHtSuUTM4bsCx/nvnjh1Bm9Ztgvp16wVLl/zm924cfX1QS/N/y003qN7s4Jc5s4Ma1asFbdu0Ut8y/V7vXj2DqlXSg9mCGRGj4MXnnwvS0yoHF55/nuZgV7B2ze9Bx/Ztg5OHDQ3W/L4ykBSr7ycGNVXP22++7mN+7tlnghpaj2EnDgnEIIIczX+b1q2CJo0bB6tXrdD852sOzw3S09OC5597VuuTFXz6yce+hiNOPSXYt3ePrr1Bxw7tNb8dNWcLg0K1c/ONo4NqVZmnJ73eqV9MCZo0aqi5HR7s3rU7WLdmbXB4t24+t/PnzQvyBAtjbrklEHMInpz4hM/Bx5Mnq46qwVkjzxR87Q/WrV4T9BAc169XL/h13vxgj+q57pprg6pp6cGEx8YLTncGUz77PMioUjXo36+fl9m4fkPQp/dRQYP69YNlvy0NcrJzgksuujiQoBM8OWGixpMdTP7wI1+PPr17B2JuwaYNGzWWLkGNatW9HRGI4M7b79AaVg7G3nVXIKYWTPvu+6CB+kF/8nJyvb8dO3QUztQMvhfcZgl+6FOdmrWCi86/IJAEHohpao3rBi0Et8AX8HLC4CFBhsb49dSvAjHr4LWXXwmqpKcH54w62+tkTA0bCNabgkNbvK2Rp58hPKsVfPrxJ4EYX/DOW28HjRo2VJlRquOA4Gl70KVTh6C11nHN76t0Lzu46ILzAzHA4LVXXnZc/fbrr4Lumv8LL7jA8WWt5rbPkb2Dzh07BSuXLQ92bN8R3DB6dFBP/X3l5Zcdxz744IOgrn5foDISFoP169cHEiqD9u3aBcuXLw/EPIJrr7lG81I3GP/oI0FedlYwZ8b0oEnt2sHpJ50USEMI9ubsD3r16RW0btIkWDnvlyB/7/7gqQkvBPXrNA6euPf+oFj9X6m6mmq8HTp0CKRVBzmCp0HnnR3Urlc7WPjdl0Hhgb3B9CULg3pNGgYnHdsvyM8vCrJzi4IjuvcI2jVvEmxYsTiQMBGMuWdcULtug2D8Qw8EWXt3B+vXrQ+atWofHNOre7Bv986gSNR35D+uDprUrB7M+fS1oDhze/Dmu1OCRnWaBLdfek2QuWVHsHHDhuCI3r2C9p3aBetWaYz7coLRt44VztQOJj05Pti5YW0w+aNPg2bNWwdnnXpSsF1rtH7TjmDgkJODTi2bB9O//DhYu2JFMO7RJ4K2bdsHo6+7zmnCIo29Y7u2QU+twewZM4I5M3/SXM0IZnz7reB8NawgcA1h967N4sS7rFTqUGFyqsUkV7WEzh0t/YjDLLlGVfty6sfWvU9nO/mUIda2VUtr3aKVHXZYV12HWdeuXV1KOvHEE61Tp05Wq1Yta9y4sTuV+/bt6xLqyJEjnbP37z/AVdv09CqSYCrYlC++cBX0119/seeee9aaNW9qy1estIwqaXb77be5BL1kyW/WrGlj+2TyR/bWW29a544dJN1vkQQYY9dcfbW1bN7MZs+dbx3atbYHH7jfpWQkBzggpq1x4x6ytm3b2gppK2gaN9ww2vuCKaV16zY2ceJEmzF9htWpU8clFBw8d95xhzVp0sQ26Hu7dm1tzJgxru3ES9LBKSOmZk8+8YRrREhjpNGjR1u1ahnuiG/cuIHdfsdtqvdHl+qQlGfPnmX333e/iaHYWkmKIjB28cUXucS2a9cel56efvpp++mnmS4tUmbhooV23z33el+2SKNhrq6++irXTlavXeN9fmjcOPvq669dokWyWLRwkd1+5x3WskVL27hpo/f3vHPPc+fSds0N6/LGm2/ah+9/YEdJG9whiWL7ti12h8bM+i1dusyaNWtq559/viSyAgnkMR4k8PLLL+l6WXPZzqVaJCkhtp41sTVr1voc33nHnbZk8WJJzpVck/nxxx9MxN+6detma6URIBVecsmlGk9j1756S1tkbhctWiQJLE59rWpfffW1PfTQQ5rbet5fzI03SsNMkfS0R9JZ7dq1bLw01pk/z3Tpaq+kut9/X2WPPvqoa6wu7UsCuu666ySlFtmmLVutWkY1e0LrNWXKp67N7VPf1qxebbep7SrS3NZvWC9NsLbdeNONbvbBXCmCaM89/5y98cabrk1UlLawcOFCe2Dcgw7TWdI8WKPrrr/eNZEitdWwYSN78skn7IMP3vf1FdG1GT/95HOLwxlJrXJaZTvjjNMR1NypKqZsL0560Z4V/B9z9NEueSOJX3PNNda6VSvXEER47YILLnRNAk2PcMKHH37E3n//PWvZsqX78dAsWTMRNNu5Y6dr5ldddZVJkJGmmWI9ehxhr0mbf+LJJ62z1pm+YOK56KKL3IS7ffs263lET7vlllu0nqtdohezcRx9+umnXCNHo0H6P+ec89xEg/Tfs0d3u+2WMR6IglYnAUlwP91u19wyp5u0zo2FJ5defLFrYOvWrtN4GpkEFfv555/tAFq2JmO12hw79k7XxNcKh8T87dzzzvN2CXGvp/l8+OGH3fRcIIm+gsa0euUKe3DcA9agbl1pX2u93ssvu8K1ikzBRW3hx8tvvW5vvfu2NWvcxAr251hxkGQ3jr7OmtdMs82/L7M6jVva5dfeIM14r68Hpu/vv/9ebY2zo3p3kWa+3qrUaGYXXSa8SyzS3Kyxju272StPPWYbVyxyR3pq9fq2eNVGG3vHrXZ428Y2f+5c69Szr918+1jbt2entIEd1qBtN3vvvQ/tnVcmWc2q6bZW8FexSk276PKrrHb9Ovb72pXWpHVze+zxCbZuxSor2rXfqqdVt58X/mYvPzveqiabrVi+1KrUbWa33nWvJVmhrVq6xOo072AvvfiCTf3obcvP3me7c4ttb36MYGqSJRYfsHmC2XRphpj3ly9fZqtEx7AAnDh4sGtmeDjAo3RprumCVwytloDtWapJYeVUa3REN6vRorkltKpvm3P32pJ58+2s4WdY/Sq1be/m3VK9k61q1WquqmGDhXi1EuBKGnYggUhhzuA791DT5s+fLwaQIqKwXohVWQgkVVSANfmjD+3NN99wmzUhrfgjpk/7zlq1bi3CusG2CeAWLRGBE6GZOXO2mMUqu+TiS+wLEWRU+HUbNno/fvlljp1wwgmqf539qrY++GiyffzJp7ZYzIRIp969e4sgzxZSthOy73SmMfWrr+y+++934Pnuu+/s5ltucmBLS6toW7dtlgpVxX6eNdNOPfVUJ6wwitdefU3I/qHbG5ctW2ZnnXWWzZkzxxo2amCZmXvcHDT9xx/t7HPOtjypt6jdz2sh6AsED7X9+IHH28wZP7o/BdMKJoQfVQZE3L17jzMqGMM7777rqtwujbOXCOe3335rnTp20u89zoAg/BCazH37bPuO7UL0J+zzzz73xc0RsTqyVy/Nyy/W44gjnKhy/+dZs5xZ/L76d1u5aoXGPMamfvmF2txja9etFYNsZb/MnW39+vWTKlzqxGjyx5/YIyK2EElMULfccrP98ON07zsqJ8xiwa+/2sgzRrpZjjJvvvWWffDhR+rXLlugfg4fMcJmaf7r129g2SIAMIapU7+0M0aeaVu2bnXf0wsvPG8fqgzrAYGWBmrSJJ2wbdi4SQyo2L7+9ju74cab9HuDzZk9x56YOMG++eZbN2EtXfqbHXvscfaN5gkiuXHTZsFGvH2jNUUI2LhpveZulz02/lGb+sXnbpZCaKgh4t7/mH6+NtipsbdKA3bBBlhBpe7Tt491kfADE8CkVE1Er4tgFQEDRg4jhnhiFsXmDEPs3KWz1VQdkbmxshh2y5Yt3ETVSAITTKt1q9buY5PWZ7Vq1rL6YkINxbCZR4gTJqk2wgXqSBMjAZ6Yb9rFPMUatZKAVqdOXduMCVTMLTm5grURc8YEw7pjBgU/iWjZL2EM0x/9bK16Ydq0TzswbYgvppnNErgOE9MBH8Ezxt2pY0c7+eSTXJjap3rqNWjoeDNw4EBbvW6N4/xrr79ur77+hu3QPO8RXF5+xZUmbUc0IsG279zljAvcPfPsURIINlum4Oe9996xDz/6QILJNtuybYedNWqU/fD9t27CQwCQJil4+0HM7h/ONAoK8+zZZ5+211571Xbv2eU05mitzw/Tf7KmErZ2iRHAeIYMOcFatGhha35fo3b2Wbfuh9txxw6w5b8tsXxMRJXSrffRAyyjejUx03zLlzB4zNHHuIDL/OfmFljteg1ssAhn1t6dVpSfbcWau759jrYuHTvb2o1b7fvps6y76j36yF62e/sW27030xJF34adcrJVVP93bN7g/evQpZv17HaY7d29U+OWsNG4mZ0xfIQdyJQQLkEiMS7RjurV12pUqymc2WFbtm+1nn16Wq+jejotWi/4r6W+9D/2eEuOj7Vs9Wfvviw7WnDbWkL0GuFupvo75MSTbODxx1nmjs1ikOssTXR62IknWBMJbQsXL/L+jRp1tg0VrUyRgFNV8EIgAHAUg69GyaOMVi6Ybb+tXGxFItoVYlMtIy7ZslPMcoMSiykQ8S5K8o5Wrl7VUipWcJtvbCnOv1JJwIkuBZcU4awM3KbNPWyP2Vn7JDVXt5IgVgSySPcTrKi02IIYcSQxn6YN61pCGWPBHlmvQSPbl5npyLNOA2ogBElKgZhhqo+zvbu2OxfjBvY6CF9q5SpWlJdtiSkV3RYYq7axOeN5x76Xl5/nzAf7MilLkgAIi22/IjZVAY+6LwRMUf9xAhe49OvOOi2U6IakgFIRj0QnqkhVSNsgbI44bLIWHpvovszdliFJlP4jxe0RIsFE2rfv4PY7+o39vIIWwi3AKoMPIlFaR0IiztJSSbSqN0l9L0tIaUiL1QS0+Ahot1CMJlF9gxF6hIb+IOj4Q+gfzkEYRJLb4kP78IJfF1gnEShsjdiji4vyfS1wJMGMk6QVMnZV7+3E45xUf5iLZM0/PVEH3XaJXbyKAA1RFntzgvqC45c5x6n2x1iKw2cqAzzk54kRaF7wVaDhJAk+cEjHxMZbBWy8ZUIJ9nV8EbTHXPOHbyFJUk1U1z4x3yoZ1dV+vq83iXVCI2D8SOsQWYhivObBBMf4qvA14MiE8M0WQ1myeIn9NPNn+/zTz+1CScpottipx0g7heBff9317sMae+89gpv9YkAT3Y777nvv2aIFC5x4IfnDLB984AHrpDIPSEtds3qN3XX3XernPpfMYDLvvvOOTZ8xw6688kqX4iEUt91xu6TNDi4AQHjPOvNMx58XXnjR5w9J9R2Vu/DCC+2II3pobvLsImmVaB9vvfmW9w3tG2flW2+84YR7k2DunvvutXPPPseGDh3qDOzU00a43+njjz92nxnax/p16+1+Sdf4wzZLir9D/e0nRnj5pZdZreo1rHefoyzQpH700UdWQfAwVs/nzJmtcd1rp5x2ptWtW1sakuBFc71tx1YxpQa+ZlgAIDJbRMRgOkIiSa4HRNz3WLUaNZ3w5Gndtm/Y7OO49sbrvPxbr73pWkqjps0tRjAYJ1k1U9prBdEcpxslRXZARLC6cCFfa5iIbV7wUCyYT9J6lqrOOMHbosXLfF2vuvhS69C1k70oIW7p7yvsorPPtRLh+mRpx5JH7bsfZ9rEpybYBeefa0NEROn3WRddYnUb1Lfvv/7GNksgvfrOW23NkiX27guv2Hbh9/6YErv5iuusj5jAFdfdYHWl+fQ+8gj3/Xzx8WTbp3WeqrIvvTTJbrn5Buuuta0mLaDfsKGWkpRgr016yeo3amEXXX2NrZzzg7389MOWWxxjv+8qtAnjHrZBA462gScMtkZNGklYOt3n8/6HHrDk2ER767337ePPPrYxo0ebpBer16ylXXPDjda5fWs774KLRJfTbeydt9ueXVvs4Qnjbc/OvbZyyVKb9PqrdqY0OuAso0Kcjb5xjJh+gjTxqZrXOAlg+1zLadq8mRhVo5Ah7Nm1QxL49wJCEcZYIaeAqEq1apapCcdxmKpOMyEZNaq5uaBSxcrOvZE6iKpJENcCSdlUhzMYZ1JyfJLu7XdJS5WIWGmBcQ5JakmpVMHSK4hQ/fyTxWmhIcwxosoQBRKAwQ48kBNpEgkGhMY0hQMTSQiJxFVlSSwQEYgX+UAkGAhMgPqQspHyUGfpCMQIhy3RP+RHIioR84CZQTyRoBgTEQ3ZB2AmFV3b2SspA0chEi4SWqNGDR2JE6UV0J5QQ4R4ix1/3PFWRyrsl5K8J0x40t5++22XEF+X5OQSspgIBB0nFePArIJphr7Ei2k108LAcDEB4YzN0DogdTMPOJmRXjBL8RvnHw79KIQXxyBSb7HmhM9jBehoTP84/3wnIK3btrF3335LRD1Tc5LkdB7mx8UawRAgXphCksUkcAYyXySckAwUzQenJPeJZ2YOkDLRFOkD0VnMB4EBMCiYGJX7d/ULTYlExAlzT0KSx/GfKQJKEACMdZO0MsaIdEl5Ilpw/FOG4IGakqhhAMwH90KHJc5H9riwICJOIpAdO7S3vZl7naWtlrp/+umnuTQ+5IShNmfur3bn7WO8XG5uvj3zzDM2bOgwl6hRoe+XBllJY8NkRUDBF198IY1ngd18080+fsaOOQUtsl3bdm4OulEaDBL4PfeMdRPL6yLUSySVjntwnJvf1m/Y4GZK+tFBSMo6o3VlVM2wJ5960ut88cVJrh3dLSKMxA8c3HvffYKt4yT5DnHTGEyC6JmJjz/u2tPnn39uX0yZYnfepTKaN/Dg7rFjXco/99xzLVV4eeP1o+2AGOWTE58QYztgvy741Z4X8br51lvdRIc57VJp4C2lvV522WUebABzXP37Khv/0Djbpbm+XIQwSdJ1ZmaWzZr+ncXHFlv12rWdYUP0cfbChCDYsTE4kx05XIsBrtD29ovBN6pV201fH4qQEiUzYvipbo75UuPYJO2ubf3GlpxQwfIrSxg9sNfiRT8qSCjMz5FWI3qUniQhJjHGNuXvtQKtXf3a9azz4T2sU/detm3bTnv04YesTo0Mu//RCS4ssZY7NvxuU6RFzxVOjLn1Nl/31PRUu3fMHXby8YOsx6B+qjPe7r75Tqsg+Hz8xeds9bK1tmXDFnvsleftpquutmYSGmrUrGaXX3WN6E9Nu1wMvqJg5KlnnrPFv8yyB+65zfK1Hrmio4/ddZ+dOfhkq9GhlfXofaRdfdGlgqMddp209JK8vbZPjPCRCc/YNWq/khh2NRH1m8fcKZzuYCf2O1oaYy0bP+k52792g5158cU2X+vQWLj+suDjlDNGWYXK6dahaV17aOKTllYpw84YdortzdttizdstBk//mxXDjvRNqm9+h26u6lwSLeWVrelBNSYBDtTGn2hcI0INOhhi1bNrUHDBiFDIJJizpyfNdim9s1X34i73SLV6Dh7+s1nrLakwb4tW9v0Vb/b9F9m25Ftmtj1N95hjz31rJ198bX26KMP2u6Nq2zAcYO19PH2w4wfrE61KjZ0yEk2bcYse/uN1+2k/n3t848+tFGXX2rdjjvW3njlbcvbsskevO92+23NKssRgUkV4ZU4IdW1u82QJBVF0cAEBgwY4NEXEPdt27a63b5P374eWdKoUWM/TgP1FYKEVNmrVy8ncmgVSIirV//uIZzVhagQGPwCP/74/cFQL4jHiUOH2K+//ipkri01bZtHF7CPIl5aQmOpeD/NmOn2dggOhBk1jDAvGE+hJO6fZ8+1K6+40I6W2nn8wBNs44Y1rsajgsIYkRTxBfzwwww3U8xXW81F/DEX/bZ0uRMs+j5ixAiXOImkQBon1VC/IXohgYxzwkQEDAzhpJNOsnrqJ6G/HTt1kiR5hDMrxjJmzG2uIc2dM8e6dDlMZSq4ij5u3IOS5gnVq+DSdDpRLJp7onAwaSRI6gap9+8/4PMPgVy/YZ0zhGinOhEWEHn67L4GMbiwzH7NwdEa/0bvP0Tco0yUL2QIMAGiUqQNObE3zetOjWOYiNoUq1wxxYmtExWtHd/zBLAhIwjjtmHa2JTjJIhwjAoaX5zWGiIeppAhIIUXFRNVQ9hngp188sl27XU3W5X0FPv0088kgU+3zSI+3303zS6QlMUYKks4efjRR+wIERckeXw+rB1rf8UVV3ofZs78yab98KNdLKIMjKCp4avCpzZs2DCHKfwg2RJCnn/2Wfc//aQyM3+aaRdfcolrvggwN998k+Cjm5jIDW6+ueOOO515vSnhYZuEosWLF7ogcZokfKTt1JRKIkTSMNq1sztuv8Nh/PY77hCcbbL77rvfBRVMjrdL8zhr5Jlu9oHQY9rMkPDx2AMP2f6iPJvw3NO2bNESG3/Pg5YbIwFKc3vXDTfZ8BNPtsP797FaTRraZZdearlbdtkTj463XJWZMv1b+3HqV2JWr9nAU0eKXsy1N15+xi6/5DwRpjSroDVgDMuXL7f77r3X6ojpEi0Eo3v6iSddUER7Wyc4mq88H7z8mv0wbZqkaglZgvdKkvw/efMdO6xTRzvjy2cstUEd2/HNL/b7y1/Z8x+9Zo8+8rBVKU2wXTu3212XXm3DRl9lt33whH2ZutMq/Pi7fXD+nbbs99U2dMQoe++zqTbypME29Jje1mPISMsKkm3yGy9Y6daldt89d9iSjXusIL6S+9+uu/hMSxMxrlG9jt0w5gbrdngHO/+cc237tlz7fsFim/HJh/aSaNyMNSts1NlX2GGdO0lb3O3zc/jhh9vFV10lIarIXn71VZsnofr5J8dbqWjE6h0H7LGHX7Chxw+x0dePtGb1qtqQowdZk9bd7TnB+YIfPrAbLx1lmzNzLa5OR3vu9pvs4jOGWlZGG2ve8XCbeNdoizmwzUaee5oVxzeytVvX2QdvPG933nC9LViy3Bp06WMvTLjPRh3dQXNX27JjakpYWWI7Ni2y084ZZZu2F1qjjEr2xDNP2FmnnG4bdm6z9od1spckENaVIPfqS687/SCaEE0dc3E9wYo7lfPFKXZs2+7Opy1bt9hGAViFhBj7ZMrn9trrr1ndWg2sRp0atnDhInvxlbfcNkV4V1pqor0ggOdYCxxo1STlff/tty6FNm3Y0NKF0Pt37bTHxj9ueUWBlSZXUj31bdWatSJyVW3t6mXWr9eRbhslRKq6VFUknW3qC5IGUj1EBSmQ0NWffvrJunfv7o6431etsg5dOovwbLDJkz+1RBFKkBVEW7VqtfXocbgIaLLtkHTdvkMnDy/DmQJxw/64U/c9vC5HACnJf6Mkl8O7d7PVUqUrpqVbI00OzsJevXqLiP/gPgMIYaiR5IowZrvTGS0pLa2SnT1qpNWuU1tELMFq16pp5533D0mJ90uKqGYdOnYSEZnpfUdSwjmJrwXtAQJfr24dd+zVEjParrGjOUAI0a6wbbdr29bbwbE8Y8ZP7jDGsck9HK8QBvwk1H9Yly4uxSNt4Xu47NLL7HqpmWgMRx11pC2VtPr8Cy/6mHfs3OXhkhs3bbdNm7fZ5i2bRVy2usN325atTtyR/Ak1nDN7Vnh/K36C3W5f50J7QVvEmYt2sF/zkla5kq1dt8a2iHljztqxc7fb73eqHBIw5kfmf5dgA0K7L+uAGHF19zcgCGxXvTt37bE9KkNb+JJoi2f0GZ8BDHR/VratX7/Ow3i379imNdysa4Ob6ljPvdI42KeCzTg3p0CCQBvrP6C/axYff/yJwwk2+RIJGgQIAMcweJhgB0xBag98aNy4idamps8zGkKzps3cHAVj//a7b5W/smtLDVQHwQuElzZv0dwdlBsEn0uWLC7TINI83/fTvndtAT8STn6Eg1WrVrrGwNpu2rzRfv55ljv3YXZdBOc/iAERDtlYAhDM4Zf58xwmYULAUp5g8qefZ1odSd7Vq1V3PwLOXbQunK09eh5hs36Za0uXL7UOLdtYw3r1LVlEeubPP1ulCqmWnlHV2okYo7Fm7c60WhnV7fhBA23tlo22TnPaSAy4amolG3nWKKtVv47mMBBjamV169USA33UXhJB/OILEboFC22T5v6AYAfBBq161qzZ9u3XX9unkz92M9HR0lwTxLOba6ynnnaa3Sfm1lOMMb641CqLOC/O3G7t1ccmcZVsz9zf7PYH7rHC7HwLdKHG/iR8zNy5VdJuI6uYLpqSFVjnGg1du23ZvpNlS1BbtXKViHcHWyuhYMfWzdaysfovPN1fUGoLlyyzJg3rWkpciTVr2daWLV1mlZPjrUrdmlZbQvH6NessUzSweYumKlPVGjdrbd9LYO6m+WnQoJ6H8Z5x5khrL8Z8QDC4VzSqvYTMUWedYfv3SJuXcLv093X27eQPrF5agmVL+GnX9QjbtW2v+rLd4tNSXauvW0+0YNlqzadgMC/X12juwmWWWFpoVRKLrE37dhabkm771f/KqRKEUrT+9RoKxlZY7RqiEdLiGzdsbBt3H7AkaQtxccXWSFpLxXToyBZL0u+YRLP6bTqIvu+0+tUqW+GBfGl+dW3AsQN8/wGWEYQzfDVo+qHO7ugVSmrdJaEPlER+zpmniuPNsq+/nW0NO3WxQcceYwVSM7/5brblBXF2VO9e1rFpfVu3aK7Nmb/YeokAH3dUN9u8erl9/9Nca9qogR3fq5MFhdn2w69zbI0QulOXnta1cy975/3JtnLbJiuILbUmdepZt85dnCBiRkA9josLd1t6tI0IGYTmTanedURwIUqoxE2kuoFEa9ets0qSfCF4JDetpCQ7slQWYQLhm+liwSoJASBGSJk4FWkDcwUXEiWmoXYiBF0O66YFqyKmJ4YiggsDIGY9nm3UAmQ2/8AQIBL0u3mzFjZ06DAvD9GonFZRDOEcGzz4eCfSmN0wfzHh04Wk60UwYAoQB6QmIkTYMIK0jrSJI578OK8h/CAtzupsMS/ag+nhf2BjErIwxBVNY+KECZZ1IMulcbQYbIRnnnmmOwNhGDA0iBXno+iRJWnK1JzvDseQEwjJHRICYg/CzWNEtqSmVNC9cJc5oczkx/IDM0OqDqV+3dMnbXNhCw/3hcRIEwj9RL7/QT1m7rmoL0qY9cK+xPgVneGC+YffCbrhF23qPmYT1zK07vQjSiHcEOygT+UHlpRN81nsJqT8fElk6ssPP/zkmijRS11EODD9/Symt27dWhG69j7PszTvK5ev8IgjGMbCBQts2W9LPXoFZowgQ4QUWivP6+n6UtrbZhGhbiJwNYWcOMznzZfmKSGBOUDzIfKIdcY0liaY+GrqVFuzdq1rtpgIKUMUFRov2hsO/C8knUNgW4iIVkmvor7N8jPGiERCyAHuYAA4kmup75hnvpbWiCMZzbRe/QY2a8EvtmLRb9a7czdr07SFbd290zePVhMxqSOtoGLt6oKz6bZjzQZr3bCJtYFBzJtjH3/xmaTK6iKiDa2BmAurmJcX7rkANvBZYUrdvHWrM0Q24bF2RGaxxqtEwGBMO3Zs1fpIY4wVvpWUSrOoZEce2Uf05lhrLgYGHBeJ6N0//GIrnbrQKm3Yb59986VHDbIXAn8BGnqWFdtsMbdNU2ZY5bdm26VdB/h+CDZG5uUWaI5aWY8je1uN+o3to3fest8XzbbThp5gRw8YaKs27fZ1rVExwXpKYsa3+bEEylVLfrXuKtOpV1/78rsfxMCmWqfmDaynNO5fV663r77/2Rb9Mtv27d0l7Xu+LRQThz4RPffqK6/YnXfebUsW/6b+aWzqJ3l+nfGNbV4y23oeeZT1GzrSJn/7k0184Unr1KaFdevRw+YuWWOffPqV+xd69OtnhYnp9vOP39uqedOtX4/DpIF0s29/mmNTPnrb2jSuZX36H2ubtkpIEY2Nyd5h/Y7obM07H25Tv50mQfxL63NUdxs86FSb8fN8+2H6NGvUpI4NOXGA7RSj/G7aTNuwaIGdceIpNvyk00Ic1ZyGOChkK0PF8OgKESCiSxpIakCtvfTyK6yugPmqm6+3qtWq2KQHxtvPyxbbHWPH2v6de21/zgF7+eVX3Z6Jvat+g4Y25rbbVWmpJuYuSXZ7PFJgxg/T7PrLr3YnsVDT7nz4QesoifvFF16wxOJce/qxe+zEoUPtuptuk9awRogfboCCKGHDD+3BmBqKxf1Ds0FDcehjj+nnkSxZBYVWQZOZpIWBSEBRyINNDHPDAWkYgYjb62++ZQ/edZv9ukzAKoZRuVKqS4k0BFCrmGsLuXkFlqD6Bp1wktWsWkn9nGSCRSFl5YMTJv1afQoJEMiNjbyNFvjdd9+WJPSzS6NnjTrHnnn6adcKrrzyCmsrAvPIww/b1VdfbQ/c/6A7DWFWEJW9bGgSMoe28pCY0je0G5gZ5jJszuTHAcgGIRym9JtE+4wd4pGvZx+8/4EQb7uI10K7ZcwY+/CDD+yll19yR2L/fkfbc88841E3KclsimPnoirBmYyp36uMxscqmBhShjSctjZn7iz1U9pRXr6eU0T/lc0Didz0nSibnr0OtzVS32Hk3A/K8rG2fjBXDNtoAEg2W+G0Nzt9+En2ySefqQvkoTPUB4HXfCgfjkq/p3FjM+8kYlWgttavX+35Cwu0nsrr+fBFqRmWLNw5HZ61M+ocSaP33CMJGk10ioSGFbZ82XJ78+337eILL3CCXU0M+IEHH7JeIgTAJnP06quviVjttNHXXe+blyDYaAZEvLF2+AzG3jPW+vTpY6eecoprMziRM/fvswnSjomgWyoBZYq0Xw9TFeFC65qgdcUHdN5557pW/OKLL7hWNnHiBFuxYrm0nPX27nsf2IUXnC/hIUPML9nuv/8BCUNNXOtjl+kLL77oTmEPuZbkih3/ueefdx8DGguMCkd2quBjzC23+mazd9971wMNHnzwAdcscg/k2N333mPnS6tt3qqlJMjqDi+p0qjH3HyLBKkUe+vN12264PnpZ56zk0ecLW3gaxGyEq1DSxv1jwtstQQNcA+cKBIexTH/CAT6SxYukrL3Z9oLzz9rnXv2tQkPPWj3PDDOnnz+BVswc7rdc/dYj6TrIOZcWCnJhh072OIKReCLhfepSaolzhIksJQKdool2bOuRfsKrIrw5oF777S2nTva1m07bMjI82zSK2/aJeefbSf2723DzrnStu3NsidFe6rG5dizL71iS1auFTNdbk8//YxdK5ysLVyvUaWSXXjNdda5awcbI/zI25tvYx8fbzs2bLZXhTOz1yy3qy6/xjas+t1+FW61bdfaWogR33nXWPtVmuWB7Fw7deggu/mmG3wHe25pvK1ZvlrAXWjHDRtoXTq1t6cef9Jq16pvxw0fbht/n2+P3neHZReW2O78JHv41pvsyksvsLRGHT0K6darL7BUze9Vo2+xlJhUe/ezjyQUTLFH7rtf9e+3kuQ0e+DRx+34rs3tmGMHWnxGHcH23VZRc3zjrWMtUzP2w8wvbLoEiRFnXWCV0jOsea2KdvVNd1vTls3dOkGACqcjQF+JwKxVu5YhGodIJEK3Q2p6OwHoHbffbq1atrbLrr3Ct2+Pu2OsHStAWySp9kdxozPPPM/uvfdBKygqsPGPP+x7Ae4ac4vFSnN47ZVXbdnqFXb/fffZwIGD7DdJR0+/9LydPGyoPTHhccsribVThp1mN1z5Dy1xjOqPsboN69nSlb9rsdl5KMkUSgDJEGLTN6TolNR4K1THK1RMdVspBAwpFS4HTeOspXBrOwSFOyaAVZnSBHcqYQYgIfvihArt2rqhitQFB1q0DPbnxiYmuT06HoKkGWIru2RXJxhExbjPUvVAw1NUTwWp3JUqV/FooAOS0AkJ/PTTz23aD9OlbXS1TpLIiFLauyfTGRWIQkLLgGwh0dKXUGAOXHPAVo/TvHu3biGxZ/GEvAcZU1kBGANcHjMR2hEOdhDT47A0to8++sBDMWHcxx57rJ6hRXHujsqrG0iSdevUtRVrN1iSVkQymCrnInEeT4Kbwkr1BzGJkyTdoGF9W716va8XCaSnOUkXvib169aT2r1e99SG+tlRWtdySdrY1Gnf85Y1UTElxRrWq2dZmbstThpJfGKcpLLu9ssv80TkpfJSp6qhswyduW9Yv7YI2QFLTOIcliLrdlgHW7RkseARNkUuDaysAUIFu3btYsuWLLO01DStDdFdBTbuwUdt2YqVdrsQ8fBuYmBr1vou+75H9xXsjnWzHUIO5qAH7r9fxGar78pfvmKF3XXnnb5ngO8IJoTxPf3UU+5TuuOuuzwsdeITE23Dho12txgFZr2HHnrYd+nDHF599RVpbac4juDHugKCrXmYKoTH0XvjjTeKMWTarWNulWDxpJvA7r1/nNoZYi+/NEmaSZ5ddfVVvu4fvP++E+G77rrbFmsO2OvyrAgY96697lqteycJby971NkpIkTAyDPPP2eVBVNPPvmkzZBGAPN4St/RaM4YdaaYdLxNePxx69Shkw0Xg9spTeLFSc/a4KFDbNCQYVoPfEiJWut8S0yu6Bor5ofoaAmkKM7jYZcuu4eLJaCh/Rbk5Vpe9gEXYsBTtIY3337X1kjYPPuc86QxVbfYonxLT6qi+pO0niUS+CpYvj5jxGHEBqxEAFCamGClWus48Zl0Ma3WbVp5Ps7lKRLMnHbqSZa7e5wz96uvvdYqVhZBFYPesXmNXXLVdbZ541Z76K4H7d1Jb9qa7RvtrvvutGGa2/fEKDn+4vyLr7Rkwf3bH3xou7Zusbfefcemfv+diHvg4dXNW7d02GkluD5KmvcywUFilSQ7UXBAJBzrkl4pzdp3aG/JoluPPvSQnSItPVV0Il/wd/9991paQoG9+eoke3/yFzZm3BP2yNPPWZKY3XU33WQd23YUg77P0jLS3R8UcyDPrr/qSuvbs5tt2L3NXnnhZbtg1Ci7/47rrEH1SnbzjXdaWp36dj2BABIcP5g8xeYsmG+jr73E+nbqYttzA3vh2Sdt6DE97e67x1hcciUrFu1mP4fjiuiR00Il9yEAPNinIUArhLgvTJpk67ZstBZNm1nnVu1sntSjn3+ZY+3ad1IlxVLXU+0dScTYvmtVq2PNpUp++fVX9suiX+3wHodbhpBo+6Yt9q20hNbiPIQfYi/76vOpli9kPOHkoULi9rZ66QJr2KK5LV2xypb8ttIJnDOBkNb5xHKxVR6pivCo+qrnSElvs6X25QnIQPsYTBvKB6C5hqEKAEziygsEn8OHj7A5M763dZu3SpsIj7ggX3gGEeGpkpT1nd9FkkJaa5w1M6r4hjXoCgIrmga2ZtrgKAjKu5ahBPM4Y+QZtkkSHUcJdO7S1Ro1amC1alRzZIfJTZ061dq1a+c+kSlfTPU+hnWEZzNhNiI6CETBMci42Q9w3MDjPVwQBkGILHkg9lEfOAbC50aSalp6mhMaHMPstcBM1LXrYep8iZ096myrUrmiLRDBWbJkkTuSSoRoVapkWDcRTMIEmZcYjfMgdOgjPR2ncnNJh3M1NxyBEe9j2yJplFwQ6JAIY27CvBPrDlk2N+VLaoKYd2jX1jcT4hyOV1aIRZzuoyxUlKbSolljzZVgb9kqZ1RH9uzp+0dYv4OprEuEmXbuJClS2lC+JMii/CzrKG0BX0KRaxL0haS5KSx1R3qzJo1tt4SdJk0aOlGukpauugvEpDnP6oA9+9zzvicAvwC290kioAQVHNW7j7Vs0cLeEaGY9v00R3j2BeCIfu+99zzklOeYlx56+BGfvwH9B0iYamlvSCv9Toz47LNGuQN8mTSRV1971U1JrVq28nvsHUGiv+iiC9xP8Nhjj/gmw0suvshaCC8IYX7qqWesXv267uCmj+NEXDCbnnPOOe5zYJ/LRx9NdicnUWwIA2zcQwjq0rmLHdPvGC8zZ+4cO33ECDdhTvn8M3tFgtuQwYM9Vh/fxkPSYAmhxkRC+OszzzxtnynfGWecYUf16W0/zZyheXrOzakNGzWXVrJNAlGp+wQ+/exTWyq6oQnQMvGnpO+ABdIn3xHqkMIvuOA8S65czebNnmUnnXqqNWrWymoLxkaJwK1ausKqpqdYauU0e/mV11ywSpB2GQgn0CghXOB1YUmh416y6q0hxjbi9NM97Jlw6mr1m9jsGdPthBMGWs364flq7DMZecZwa9KilUExalSpZpdfdLF17tbFkgQf+Exbt23nGsP2Hbtt0OBB1lHr8enHk23yJ5/aiDNOl+AZ43POia2Mp7vmCQkbE3PL5i3txBOHWiMJSqUIrSL8HJni5ylJw+ncuZMLFvsP5FolrcuYW262zyWo9e11hJsNE1Kr2HPPPmV1xJA5ULTvMcdIs3/bfp0/zzWmNs3a2No1G+3jzz6xZm2bWWUJui3U1jtvvWmJoklVqqUJbtvY3LkLJFDMt8YN60hArSTGnmzfC27ThOMcsNehdSubMXOW7x86um9fjzQDP6ElaLlEvLkYBRCRwp2Qyb7Zab8ys6CBGEBqou6Jm+/Zu1+LVGyVq6SIUCTZ/sw9tnvnbisW10NCT0mvbDt1b+/uPVa1YmWpjTG2N+eAbd27SxXFWJLy7M/cr7o4qAn7fWjvxVZOOojKEF4WXgCBKQfkh+hBCPExcCBUvoCkFKKiexBJTBX5UlWjq4BLUgQhnESZhFK980OvhzLcxxaal1ck6Y6TAAlHLfJY+gQPcwz7xLxAcMP8+QcvzvXhHmG2gYhRQb7qKMj3s2/Gj59gz73wkk3+6COfcMImkbYJ36ROJPow3DG8sEf7d42PenF2QxCwU8IcMCXgQwid4Dlus+UKy0lF1QUiRoyCRDmIw+tvvGXvSZJMSCYUtNTXADMTc7JdhPLTr7/TvGDzl2QnqT/WOMSN9xiIoRbm2q7dHAoY+hxyswtt2eJlJsWxjBmEFxCUIOgq0pyvWP6btLBsIYQ0Cq3Qgvm/CBlyLLksn19lc4uP4JdfFjizl9wgbaiCtKsvLEdSkdetdg+2o/+C0iJHcqRSnP5ZOUX204wZlpNdJGYkgqT8sRAgXVUFp/GxJbZ86RIr0LxVFeMuUjnSmrWrxUTW+5oQgIDWyS5OJF1MdU10zRLRQqJv0qix9Tj8cPc/YQZEmu8mwkqHfpn3i9+HiTUQQSa6C82hft26XgYf19y5v7jjt89RfdyP9PW33xjO9B5inER3sGMXxzM7xfv2Pcqj03A0p1ZMsZ69evimNMa4QlIpu//Jh/+DDYHHHX+cHXXUUb7Bj+AH4ulhVDi0CV2FEeFDa9euvf2+Zo2Eu/nWsEFDD0fF0c9eB4hr98O7O1GY9uMPNnvOHGc+vXod6RsWpykPUW/sPG7SuKGlVAiPWQa3gDEYdyBCiM+pfAIOeY65DgEIvxF+wvCY7CLbtWevPf7Y4/aKNK/p0qb3ib6UKL9HvwjngBTWHfNTLNKDYKtU9KhYeFpaoO/Ksi+/2AqVic2B+PkmjH/Mzjv7TBt99eUScGvaO++8YTfffKPwTVqNtPlLzpc29MxES6+RYdmCyXat29rb0vL+8Y/z3IGPdk6kFJGLzGOzpk1cGENAAdeBO0zSWyUUECXHeVqY9r78corlIYDqmj7jJ3v79Tc99Bz8hR6xnwQdF+ESxouATNlfFyxwJlJLjCJVsL9DuLltT6bjcY0qFdXOetu0bbvFpVQS8xJN1Rxv3rHF9mXttUQJdBVFqzjLKk9zumv/Ps1YkVVIkGAmRMjKLbDtu3dbpdRkS0+raoUimMBAtvKXah1SROudDgjB8GmR3GQEQ2DBAOxWAoSBxx5nXQRAjz71hO0X1x152ul2poBq1+7ttnrtEjcn9TlyqGVUS7HZ82ZaTpBtg/r1tzhJ19Nn/2xrtm2y7v37WI/U3lYzpbLN2L5bhGeHdRvQ15KCZPtxxmyrX6uyI0eF5FQBVqDJJaxQ2iZGeycVYaJfUeIbwOIOU2UJN8LpviaZEvo4mMibkhxv2cVxLsGBvKlJyZIupAlIwghzwBr0Tf8xH3ySj118+D28K7oCGghz6gq/8R3zU54IZqykGBy8qNHFAtrUlIo29MQhArgsayHpgY01OD8ZSl1pVdUzqh6shTG7XFU2Tv7HdwIyNW7SxIGOredEjuSJ2fhztKiyBSSBdKTKkkLS0tPdsYyvhAYHDxzkjk92muLoTRXQs7kHST6mZonWsKaky4vc3o+ZBAc7ppEFv0niUxvp0ipSKkiKb1pXCBUr9b3U+vU9XCr2ia49sQY4ySc8MVH5K7t6jwOwc4e2tl2SLLJGrCXYQ/fc5gBYMSXVmfi06T/bp1O+8n7nSqBA0qxdu74QO1aAXGRH9+lpI0eepbmL0zhEgIT999x/n9tq0eg4zgG3QYyYFz4IAOHRx+5zx2JVzW+O8s348Sf78qtpai/G6tVJFRNDPlQJMZI9e/bbgZxCj+SqWau2E7wizeP+rH2+QYv5JToGPwBE+EB2tv0yd64jPMgM8SRiCo0OhyaRYPTx5zmzfe0w9WHuJEQVIlhXDAE8W0cQhNaA9SZsESmN6LkqVdPsuOOOtXXr14rQLxQRyrGaNWqrTKILJJEPpUXLFhpBrMfzE9TA4Ys4mdmFjjkI8x9HwxB0gNDBWIcOG+awyWa5RMHTRRde6LvOYYBhoEIdl1QbNKhvkya96MLHgP79nSlyBAgC25dffiZiWVV9ATYDD+RgZz5Oe/bvgAMumJUJX5j6AHECCfheIGRKiE+XUBEGdOAcryQ869ixs1UszQ2jq9ZutATBCEQZONyfu8/yVdYh3RFdNEJMH9OUMF+wZpaaru8EQyg/M9Sz5xH29edNpV33d+IbSCSBQMSqryXiHEnGXiPRGamqCWkVRWBFppUxSfN8tNa9UcMG9sILL7gwOvL0M33P1c8zZ1t2Xq6HMbfv2MEFCUzQjYSf9957rx+tQSRknZrV7eij+9q999xjVYVXRJgNOWGQM8AKqamOJx2qZthxA/pbfOEBmz1zuguiWEV69BtsqdLUtq5cbLUrlNrAwSdYpboNfFd26r7NNvjMDlYh8QjbmV1ieTulaVSoZD0HH2eptWva1i+nWlJxjJ1yXF/Lj6/kUWy7tm21K/seaUlFPSy7SLA8f4HVSSmxk08ZIa2shQvjkve0FpoX/UFzSM4QooQEgDTw5ttv2VQB1bnn/8NatGrptkZMNGNuGWOXXXaVS9LYGI87boBdcuFllijJ8+GHHvYTKO8Ze4/vMp738xybP3u2nXfeeXbGmWf5Dtm77hlrLZq0spfe+UQaRJG9/9IiV1MASFSvZERQJZyGEbmLHLgkrBkQqMqS9Di5tEGSngEnApaIKJZP8RpkjgCYXbHVqlS2Zk0aCjA4oRBKosoQe7n0ndM0cVzllsT6RrmKQvJWzetLY0q1UhwJmio3ZylXRItxZGKqqlmjhsfwg3QgYXZOlptsCLmEOOC4AYAI6wVpOcsGgsAiwKHdQez9EWNQ5UgVaDyEQHJSI8cKsJ+B35Rzv0oZgSBFY6d9OAynWvpr81Qv5if6WIQ4pb6zp6FL58NsyaIFzoyIbrnrrvstNp7d2PHqa4kIQKbVqlPLI1ywqVbRZ0xpoVUWcgT7Mu2rL6bZYkk2ezJLrEbVGGkyOUJ2MdIUsypxKVL7K9luCReo8KUiSIWS5sbe84jGmWDJQmgp/pYjhKstJpAjBl9UtN9j2OOxJ2k9amZUtGmSxOcsWOpzgZkufHGS2hPxhgCjMRKhA3GJF+/Ljyu1B+5/VMgnAqE5qhAnxl+UYxnpFZ0wAEddDzvMfTkV06q4RNhLxOOrqV+JMX1pl196iV1ywYVO1O8SDHN8yuWXXSYCWGr3iRFBIB555FGX6qZ8McW+FZ5cefkVbl5Bs7v77rvdXHrlZZc7MaYMJsZnnn5KTGC9axaTP/nYxtx6q53R8nTX8m6+5RZJ973ttttudcn+oosvF3zEO1Fmg96HH35gn3zyhV1xxaV+bldOTp5dKwLNnhL8GIT83qr6aG/SpEma5wIPi5048Qnh6aV26aWXOpP56MOP3FzJcSFJSRVs4YL5tmXLJrtJkvNV11zt/oVHHnnEzjv3XPtu2jRLk2BBVB/mzy9UBmmVEz1POnmE1RYDnTDhKcFzBd8/VFicZxnVq1jtujUtIS7JfXGgh8tQShBbNjIyRzUyKotZZ1iMRwRKD0XilladJ6YUSMLblblHGlyO40wnMQqOqo518UFrD57rV4AQorXGNJikhioKiBOEV5RBJAxDthNdKAMrYKaloIrylgq/EhHwhM5FqiNWFDFO5WFqc6XpjXvwITcpPvvMc07kLxQ8oB289tpr1m9XPzvplJM95BTtig267NQHd2kb/PbzxCSspqSGJyHUrVdH4yvws7bASbR7zKo33HSzFWVus2efGC8m1N++n7PYnnnxJbvmysvtkiuv8mjKSwRbaZqr22+/3epKO5j4+Hj7XsL2gxMnWL1KKX589cP3P2UD+h1lJ4843Q7r2s2uHH2dFZTE+B4VjsZG2/vq229txHmX+E78RpVK7eox91kLwfbA/n2ljYk2leRpbsCtkKiJeQcBDstZP810Ts/GnFdee9UdmTijDkh9uf760bZh6xbbsWOXfT7lU7vogvNc6qlatbq99tJrvjN31LmjbK1Up5+m/+SSxyP33GfLpHoVa7Kfe+F5O3XoSdaxVRtx8iR7+rV37d47r7O9Gxdb1z7HWlxSqohZvABKC65FcwIXdVBAQOKW/vet8hwyh4qPtOlOVX9SJkmUJeT3GBEg+gxyVRLBzhVgsgMbR6MTVnQKb0rfVZjyudJWCqRaJQd5lhhb6htugphEJzIAMf/HIRorAYNoKwB7aVB8MDLkpJNPtiuvuMo3i9108812wYUX2xMTxts555xrv/wyN+yz2gWQQn8GI6Bm+iECp+ccf8GxFZzLw3lGNM8O6rCv4eU3Pfnk+AeONKLGcCTfedvtkvCusbfff9dGnn22CP8d9raAu05GDWvWrJFLp8TZdz2si4BnmttsOVuJo3PZ2YrkyRlB+DDOP+9cj1VeI1W6WYtmtnH9RuP8mTTBSVP9RoqvLLU0tWJVqe3j3TzDGTNIkvgs2rZq5Qff4QyuU6+h1WnQUKge7wwXE9uTEybaFUII/CBEz0RaKyYPttr36n2UIycEBbPmI4885Or7FZdf7uaLOZLeW7dobItE7CiLDR2fGJvsONp3y5bttkpq/7HHDnR77uAThtr8XxfZXUI4wiaJgpso4n38scda5y5dXJO7XYjF7uNbRbjZD/H6G6/78dM33XSjmwAXSvNCeDpl2EkHz4waff31LsWzY5lxcCDbBkmWOKaBFc6RenziREmfZ1jfPn3EwIp8tyuS6aQXn3ffy2Oav99Xr7UH7x/rxI19Hg+Me8xOG36qHyKZk80RFheHxFl10c5krRFncd13373O9GCY19842tq0bKVxztP6xLpZkX0y7MeB8ebkHBDDDY8aYR2AJ45hZt7BL94pwZEdldMri6H9KAL5D1/fN994W+vym6VXSbVOnTvYU08/Jwl5l48fs43jlGDaoVOfOM6hMZWk/V151RWWHVvBnntsvF19/U121vkX2rblC+ypF160pVrrbt2aW9OWHSxfjJ01gSE4slCn/kQeROAlIIghpMRrTLv3WI601pwD+4Wvsfb6B1PtrbdeshMGDbD7n3zVAgkkeaprx54sS5O2mSImc6A0x7YX77WW9SRcxFeQ5mCWLKEWab+BNM/zL/yH7+d4/ZVX3XzHeVnv+obOcXbJJZc4g2ecHnosxg4zxeR2/PHHu0aERo7P8KyzRlnDpo1tn2gopreatepICGpoH3zykVUszrH33nzDvp72o90w9j7Ne67VlWB8w43XW7/+x1rH9q2ty2GdbMwYwefGrXbXbXdZVvZ+27hrs7337tt23sgzrTArW+0ebtcLTutIuMLHRSAMryLAX3q1mAqwXUkC0HgxlJOHHG/potlEkgF7mJqAFfw8nSRkOLOGIWAfnzl9hi8oEQ2ca1Kzeg3nhCAb9kmckcNHnOZ2Rxb5559n+qmJdWpKFRbH/+nnn1wSGKVJIMYebYG47uEnn2q7JSk3atBAA3nHmjRqbudfdZ3VrJpqU9+fZMeedJoVioXHoNbpQop0NdOJXfQpUBAkxKMyKk+pmAwqZbLuxWJjR2pQPjSCKCHNQ6SSSvKdwWTGSV0tzlW+YitVXohyBHIOuKqXfIAxckkc0oN+sYvTYlCr4KJhXjQJEsTcy4gxoMauXbvGGcL5F15kvy1Z4v4DNqiBjER+EM2BtOCSvBJj4wrVtXCcJPcDOBKoTbXPfHA+PA5X8tOmIwi/+dNzNA33c4hIVtQ6vvP22/bAvfcLUbfaYxMft1GSiDmr5wFpaf1793a7LeeYsMPynHNG2UeTP3bCctLJw6zf0f1sxJkjbZoYGhuf3nzzTbeBYxMl8gUYqSX1+Jj+x6m+u+zr73+wadNn2pOPS8q88Ap7+cVnxUzSfXMZcPPCs0/ZY48+7NIO57UPP32k9ZFkhHPt6edesOGnDhfhfMjj8Cc+PlGS843SUOrYNiHjsFNPtUfGPSzY+cCel4Dy3ddfWfsOHXyDHUIJpi5iwT/4+HO7785bnMhk7d5hp59xhjsRn33mKRstqZrw32effdbOOf9iaYqN7PPPv/SQUzawffvtd3byycNFuApc23v+pRfsMCEItnokP/YWsDnu7FGjPFYeor5CZYnaSkpO9jyc+cOJr2hzSKWffPapE9PzLzjfpUQ2vf0yb57X4cEPyvPq66/5vh9MUqzxSy9P0ppk2c1iOPuy9gmGFouxT7NRo0aKYFVw5vaCJMmmWsfTTz/dBQpMddjw2bgJw0QjxHnNTmX2w/Tpc5SHFHIoXGJiBbUjPBEsoXkRjlqndj0/5FC3BTtFrsGw34L9CSRgjBfQMM7nnnvKqlWrYcOHn24fvP+OBMFa1qFDe7cY5OQWuPYrAPVySEsO0Q6n4I2ELAlytLtFRPT5xx6zhx6fYJ9yVMWS+XbZ9bfaw4+Ms379ulv1Og2EuqnurwzfNqZKEJoE9+AFNIC6wcpE/S7gRTaiN6X7CiyjdQd7ZdLTdtFFZ1l8lSaWoHI//rzMrrh0tCXEFlhskGR5MZmWZ5tsujTD+rUbSasPbMH8RXbB+Rf5XB3Zu5foXol9LaK+fed2u/XmWyUYLbYLLrnYqlfJcNMtQhsCGsfFsAeIdzacPnKktNJim6d13ifc4vC4Y47tLzje4utSvXotaadV7cTTTrb8HVvtgpGn2p7sXNtdHNgXn061kSNGaK6z/R3I4wTz9Ro20vx2tKZ1q9l3wsWVa9bbyaefqbp2Ws1qVeyN1193OOX9LpiUv/zyK5/+vsJv3j+C1rlg0WLh89FusWgpoezd99+3Lh07+SGXB6Ttc34aUZRdBLeYm13UdaJStpA85M1cABeJ+GUnNLqHTRzPOpIXiRj6XZm7tVwijPrDfrhh/XqPnOAAMdYQmz+hjTjviDaKTRBBE7AgwUBIAzzDlHcip1r+dIW2U4AoQRw5UZJhkjg5Mfoc0pWUmGxx+uSijYjAQrhDiV6Ip+8YoGKDQg9Zc+Aqa49ec0Hs8VkxBj1wRuDz4SYdQk3DPmB3g/ALFkSclVf10cdALcBQcM6QOBfn2muv9/NTOJfG92GoOuqsWjXDGkg65qhkHH/RJ8dN8Nm4kX5zSWJkoxNSJQtFKCM7uTks0K/qvBuVT4AhfE9qXUkJmHmQuCFCnFVy79i77ZHxj9uTzz7tTnj2FSDl4yvq3uMIMe05tvC3lTbnl1/VToa1aCZ1ctAJNv37H+2ddz4QA1srornV+ov4Qwy6dT3cZs6aZy+/9obxwo+RZ51rbdp00Fok2GdTvrDvv5kSbgCTVNi2XTtr1ryF7TuQY5MF8J9OmWp1m3e0dh06W9Pmrezjzz6T9vGZO1gxobhkTkRNp84i2J/Ziy+/5FLtMGlcaVXTrHbNGvaZyvw8c6bt3LnLj3nglFtO/Mzcvc3eeOtdm6VntRo0tboNmhg72j/4YLL9unCJLVz8m7TD6prPROPlPStXLrcZ0oqBFUIcIWacyovUxNHKlSulua148eJFbkbiYDyYwQIRS5AP6RmhAhMryI6DH4aNMMTFnhE2o2E3/lwSG3khxAQdfClCw67raoKFqlWqePw9zt3atetKM6knjWKjH62RmlrJ8UjA7EencEIovpNmzZr5QXmfT/ncI5pgSEQecZYRcFq7Zi0n4EiKOJ85UBEzbEKC4Fn9BuIh9PyGqTqqCEcI8CBAgmgrxx3lRAsjIgyGds+9D9k9Y8fa6tXLxaASpVWEb2tDY66RUc0PtEwVvHIlp6S4JpLEZ4p+u88hSXhG++EZYzu2b7O777jDHn3kcQmk0zx6iFaxubvpNFF0Q3AFfhNFFMcLYVQHUi2mKdYMq0Z8cb4lqZNJ1WrbwxPfsvskcb/y9GOqI1A5jVE0bcPGHbanMM1qDLrH1ubWs5Mk0VcIVLcuUDlezBZcRztmN/6WLVvd7Fqrek23AHAMf5FwCnq2acNGf2EV/SKs+Lvvv7O333rbiTbmKQI5OI33wQcf1LqLaaguTnZdOH+hJcWKlknpSUmrYPtK822zhJcE9QEfBv1Yu2at5mWHh9DWrFPfDpTEW+bW9VY9ttBSrcBKEtM0T+aaCUdmsBEO+i2yRUiXpWhOoNnMDf6jAuEPlA38hMkxFmBVt5wesA7QpcgE7WGnSBqckggwAexIXcRZE7v7yaef2NATThRi8/rLbI+75uwczsXHzvq+OA4S08lSmzEdrVy10r777lupJBznWs0jJD6SOpushevZo4c1b9bU3pv8iSZaSFWYY3UaNbUDubxFiSgTTQoAhvSuT5fIdXnn1XG3JauP7OzjuNo8DZDFJqbWjwMWIBGd5PZEXUSU5Gn2UiqlW6IINk4v3kfqUgaX8nh+EXXfWSvEJ1oiJbmiECfGj41w5sJcK29o4tGvsvLYbB1h1Cecxi6hae4I9/OjhDXRZ5wx0qqLgXICI+Yfzp0ZPfp637EMwmLDnvrlly6Rff31N672g9hInEgfcPUJEya4CgoB4P7Hkyc7YWSjE0d9QHD4xIHZv39/9z9gk+/V+0hrULuW7RHTPum000QQM6wwO9tShFAnnjLceh3ZS2potghITWfuvGOBndE4wLod1lUS8ACXPtevW2dHHNFT0vpwqdfSrzX26jWquz2d3akwqkaNm7j9tXmz5rZYKjPvEBiuNnv27OmbuniPAZvaOCgNJz/HexBKecKQIX5+P45wHMujzjlHa8Eb07L9PQYcac6x6WzGwgE8ZPAghz1Ox+WQumGnnu5HZGPbxZnKCaO/Lf1NZat76GaXbl3t1FNPk8BAZEyR7+JlVzRHmc+aPVcS+uEiqGmuHc+eM9vHz3hq1aqt37N8LnsIbjERoRmtXLHCo3pAdDQxooo4dhkiCHOHqUDMeP8AEiQmBw7qO1JSG+1jivl1/q9+MiraCGaHZUuXionvlzTf1zes8U6KjRs2+XwCV5iNYBhNmzbzcFXMuYSRomX07Xu0BxDg8GSfEOdIgQtEQjkzkBDFLnrWDMEG4W7njh3OIFh/tBp/XahwDrPYkUf2tpNPOUVE40C4CVFjQUqPE0HZsX2L9Tiiuw0cONhhAnxjTTjmZJ7GDTwgiXIWGEQQ+IVREdbJsSjZWcJ39X+vYG6hCObAE4Z4AELrhnVs0Cmn2pz5v4jBNbNGTRoLHrOtWBoCTnv8ENH+okL1u9T9DgeE9yX+PoUCEFT0oXjvPqvfvJnl5uy1088eZRl1m4rYxtiKtZtEp762xKq1LOh4lu1e/ZsNaV1o3Y4Y4KeEFqqdpKQU0bHVDlvvvfe+CxycGMtccxbVlKlfeEguwhqRgERJ1axTy03ta4Q3CIsD+vfzAIUpaIeiBQjOg44f6Me1Ew0IDWsmmrk7d7/16tjefvn2B/tOGmCP444TXNaxioINTFP4ctFUCHF+/ZVJ/u6E44ecYBm169uq1Wvsnddfsb6CQbR2NIinnnratSmOvG/cuJFbJmbM+tn3kBCYgsDywQcfKH9d3xNE6DMnqmIeJIgHIQHaDRNxkxGEDpMRksGcuXPtyquuEkKnuhqKT+H9997zEDZi6jkygPcIT3jiCVV8mKuu0MgJEx53WzcvvgAIFkmi4Kx9dnPWrydJV0g45rbbpHKl2zsff2JVKqWKi4+3E0aMsrGSpL/7VtyVI6sFZABnmEJTiOYx1CbE0TA9PfvEk3aqpMYsEW9sjEQKCGad40UEWzxTSF7Rdu3PtU2bt9p9N19jr733kQUgGIyHAgASeRGR9A/NIE63r7nmBjuyTw8bNGiQ7oshCSlom0ReNtSF32PdPkqECS85weSyUMTw4osv1sK+5yeMXidNgdhvTsVkrnhHAUcW40j30DtJnSRMZe4jUFsAPoh7ihYU+yTvBuCwuCgcj+5ytDV98fEq8Z1dqZ98+qn7Hj4Xw7j1xpvs808+tBdfmmTnXnONnXD8YPvo7ddtLsdgFJa6P2X6TzM8IgbC36BhPSdovOp08MCB1Orzw9EIq0TI0cwgHnxv0bqFS2oIEUuXLfV+tG/X3iUQjgiJIl3YYQ3j80gv1QcTINIGJIMgkR+ih2bE2VAIAkRsETWDOgyBxqRG2B/mHUwy7OXgeAQONkRqhvkSi9+2bRvjFFSIe052nu+uZkMeiblmo9BpI05zRP1eGtBvvy21+QsW2tdffG3n/eMfGk+CM002kXXq3MlOPnmYxlVqTwreEA54/wSbzAgT/WH6j/aPf5xvdTUuAgkeHPegHdX7KDcJEa3HHgMOVJwoPOH03vff/8BfeHTD9aP9BNVwR/JEO0w4xAmj+HIeFO5gjnj9tdf9LCqEhq+//sp9T8wP50+NF55xlPENN97gROu228a4Y/4ZEQVeWEO5l159xc484wwxylY24NjjRSQauLDDsRLTpn3ncwiMkYAjQqiJauLIB47YzuFEUa1hSUy8Hdi3VwJDNWnnqb6zuUqVinbjjaNtzeoNjhrsTRoleP7ks6mWxHEhujC5RnDJZ1FZWw0k8X477XsrFZy//szzduNtt9hjjzxqq36ZaWOlJUx69w07rl93CYmtpC0eYQcys0WswMsQ30KhMMR3wjzA91q1qtgTzz9nzUUc4/dnW1ZcFRv/5MM2+tZrrXnHnpaspid/M8vOOPVKq1CvhVU7baKtm/yg3dpvm10++n5LF7zkHci199780EaLRvTu1ddGXzfahbvR119re7P22NTPv3RmO3DQ8a6Jw/AQKnjVKfP49DNP+1wjBIO3nBTw4YeTff9TeMRKGOa+d89+ayjBumGD2lY1Mc5emTDeAjHs17/70T546wO79vLLrXmLZh56ff6F4U7zK6++3po3rm+33XqzLVm23B546DEJunm2b+8ee0i0gShCTEKcp3YfGx1F4K+6/DLXyj765FP7YdoPdt3VV4V+JTHVJyY+YS3btLaXX37FcoTLRJlh/urcnRedVQ6jjCAmICJAit300ksvsQaNGtorL71s2yXhcEBaM0lbu8Vpnn/hBTvpxKE2+pprXV3DWcER0edfcKEfOvb6m294HO9lF11kHdu1tYKiwG69/S4bMuhYe2Ds3Q68l112rQ0/eUj4bgMtNhIQB9mh1uBU9qMKHAgw+ThN8ovvOZpwtI1kEc4DAYwjJP4k7LChZiGirYv3nLoDTQPO2pepyQqZTQkx+3oeVsz49aFy8dIU4BOEH6J2USthjDAE2iY5ES4DUN7djBmA9xAjkcEoIdpIM3MlAXGK5tF9j/GYdYgjUUKkYrWBvwXmh0ZGQstA6iSkFADC7MMcuDaD9COAgnHTDn1DIiECBoAESSjD4V5u2kqId0YVq/nEKfzDjJnWSIR4sKQVzH7Tf/zBNhN2KWKMD4ZxoC3N/YXNZ0U+htfeeFtTEVhLSWtoG9OmodKXer01RaQL1adAWh3mMbQ7VOj58xeIcJZYU5UhWua3pSvcX4KqmpOveRQDX7t+o0slHFy3+tVXw37nFtiJJwyyL6d+7QjFseXplVJstuoqVjupQprsnHzfPMlZQ4y7Zu2afkYQb5Eq1uLwblktvq2VZM07ZTnmgRNDYTwQ9SKViY+HgQ53c9Yjjz4sDWGe3XLTzdaiaXMR1932xCsvSdA41caMudXnm8ghnNNE67ADnVNPiT65+eabrYMYDQT5jjvv9BNn7+T0Ua3nVVdfrTJV/K17vHOAOmCAHF1ynCRBNPE3xo1zHwfHXrPeHDWNqYK3vmGWwmnNEeePPPyIv5cBvLzl1lskIJxq4x99zLXVc889T7AXby9PeskFMMrCmDlm+7ZbxzhM36Y+vSWNHvMSlBXTEr4tmFN1MT4SR4lkZWVLgs13Aaq1tNiWrVr4GwqLYxKsTq0Me1R937J9p7TUryRJ1rTLLr9KYxXZjxWBLmaPkIi0+/UwSWFmlZimdSWxvkIf0NySKiQJJ6V1V0jwM5sOZO63L76YarvXrvT3Z/MWRUwgsdLm6EtCjAS3gwxBuCC8AdbjNc+lapcX6McLRqtXUjlwoEoNzcdH9vb7Eg5a1rKWHXq6DwOBkglhj01yzH6z+H2WnyDBK1HMKk5aSHxgp4w4yTVZhCo2yVWvWd3PBuO4fdZw+k/TrV6Den7oISHHK1eucEGXiMp6dev5GuNv473n7GEgOGPN2lW+1yQIEmzj2hXSHur5HqoJj0+0hvVr2dMTHrJfFy62S6673W696SZpRAV2081jbPCQwXbnbXdY0xYt7bobb7GqCcV24agzLBDjnTb7V/vuqymir/+wKy67QhpmuputDuvY0U4cNswP5Xz73fdFC7JtxMgzrZ40OEJip37xpR0/aIgNHDxYGm4f31NB5Bw0JqL/JDcZ8QVAxe6IlHv/gw/ZkjWrrJ3U/+rxQkYB5Idff2k9j+7rL5lo0aiJv5ADRGNnJ/HJ03+eLS1inh1/3EAtZIlVjC2xl196yeq17mZ1m7S2+tXT7NXnn7SV6zbaNWI4Xdu1sfVC8IaNmtkSqcyEy2nJ1RNMRAIiQRFOGUI1UYmZYM7qSRBnPmPoUPv03fdsXz5hn8VqL9YqplQW8a8gFTnVX/MH8cV7wFEZl4ihzfzhO1vw2zJVj9M6JOk4PtGEwhdSp1rllCSLFSFrJiTs1L6NvfLyywJ2zENmVdPVl2TVL9WSiAScfCkpKqdP6jnzzLNcutq6dbsk397WuVNnlzj/ccEFbgbAtICkjW3yow8/dPUMExlamdtBRZgjNQSEx+SCn2CQJIA33nrTd9TCySmHqQDC6aYxJRCQC3PEaSNGuMmASIdjBw30/QClRbl2wcWXWQ0xn3WrltuiX+fZzswsZ0wVJOWs19rn5Wb7yaf7M/e5NhYn4hmPnVz9qlajmi1etkKAX1vj6mi79+zWODdKCs+2dRu3WEHuAWdQEAQOlKuSXtnj9jM0thZS4Q8c2O8SDeG+O7bvkqSb6fsJCFioKMJfXFzo+TBTtG7dUlL4DiFwiQQEXiq/0U0ZvGa0anpFS1PdRcrPvNWrV1dELtWy9qvP0hQxHXLyKS8nYs8M0WUcXseGn8L8QuvYqYOHYXJsScXUSh62ytn7T0nCZEc3ob3sCkba37N3tw058QTrcUQPe1xSOW98O+fccyURt7PvxRw/mjzZevXs6WZAnPW8NwDEOvvssz3Ec9yDD/p7EK6++ho/gZaor9dee82OUBmCMTAV3XPPPWKwBR5swCaoO+68Q1rBj350BfCzfNkye+jRR1yDO3bAsdLA2jlzwndyuaTJY4452l/iQ194Felhnbs4Axz38EPeB3aM36Z+EarLohIG/d2334m5/yAtb7Uf1wHTwswDg964Yb0LKmzO+23pEluruSkuzLNRp51sjZu3dEJ4wgmDpXW1tnm/YBZME+GsY2++8ablShjylykJDt3MJZjmJVLY2R2BYAgS/AYPPNGStWZffz7FTj59uAhjA9GC1tZv8In2xbdfWZtWLS29ek17+qkXLAXfji5wDQkXooUAEifmHiPYR6CqXKGSnTVilIi82hJcDDhxiDUVob7kokvMEtlnUGzLV2/SHH1txVr3RsedYVsWfmOndEy3Tl0Pt9TkVIuR0DpvzkLN7eVOKDGXd5GG+IoEhC+mfuFzzsGVWEjYQPe75g7He8fDuoj53ioYWm9fffONCH51f9MbkVTxCbHSmj62Sy65xhb8usaeeeF+q5qRbll7862JNPEuapsNa+xO3psfZ088+oB169rWqjRsYS3adrWnH3vU9mxY5/68Zq072qdTp9uHn06xfn16W3pFjp43e+mVN9z0Wl20q23Htvba++/YtpWrrVurNlqLZFsu4WnO9BnWSloJDBEN8NPPPnO/JMd4w1wTxHERHmrXreu+tZAtKMFEUdWRBqtnVLEq4uJIv4lpNaxiRm1rXLeOFQigSkSIrEKiVdWgcKdiey4O4q1pw/rWtklty9230wpgySnpVq9pS012rmXt2eScqEPXI6xl44a2WdL6xv25lp9jWpA4SZwZ7shjZzGQgykGUxGxvEjW2DtJcPuE5CQ/WydGAIJ5JyaItSK1ly2pn7xsosHGx5UjqRIHOWaJmtXSLFllJFp4XRBQ1CXUcMpRPltEkfjiPBHUxIQUXeytVV60EUmIOD6xbXs75a48ARHACUGA2HBmy9ixY23CxAn+NiyQAUkJCQ1VkzyhMy9G6uUONxsRWojvBs2APhXoOQSfjVkwHSAAbYH3G3hbQg7q9NUsS4SRIqWSjzA/7P0P3nePPfv8JDH5cb7InlvEgagtjm/Gtp8qyQ11kTk/NMGo6Dd+G+zXEAUQnuPPGUtK0kEQ8vtsNuQiJJIjPWAU5MOMA3OXnuPjSpLKjDmJvIzN/8TcQby0tArOqHFa4rz0t8qJ0dAXyiKIoMphHyc/KnZa5ZBZlLDHpFzysAHmqewXPh60Kkyay5avsAxJ86NOD/eF8CpCtCOYBruMOWIdUxVRQLxKEc0XRgsD4FgRtCkcz5gIzjn7HCFZZ/t51s/2mxgBoceU410UnG6K+s+7LgjxW7R4ka/5CSee6Buy8A9gahw8eIgNlfYNUcdESxjgOWIwbGSbqXp5heQo/e56WFcxmG+cuA8cNMhf0IPEyqm4MBoijJj/BQsXuq+pqDDfpUEEBUxfSPTgI/DA1LgpRkQWYYMNa3PnzBKxyhHsIYgR1x+ne3Ptjjvu9jBqggzyRJhdI41j30tFN0dAsNFgqQfzJ7CJCRQHPCsADFQVbWGjGsLQts1b7d77H7D7HxtvC+fPkwDBmwGLBfvhUTJRYv2AeeQf9nbwyTEzCWq7XmqS4FeMSHSAvUQPP/Sovxti4oRnABEfI/jgxEP9KUaT1Ge8qscdCw1hFzQnsxLmiX397rvH2o033WDsdGZj6YjTR/gBkbxzA+ENcxJj4W2PwDwvPUI4AT/Sq+I3TXMTYMuWrcUQ1WBMkSXGE+ob60wD3N1vibZ4/S43eSbk7LCje/XWOGrZAQk+e7evt06dW1i9Nk1s+cYNtn7bJqvZqIYddmR3y5SQk5ibZRWDXGvQqr3FV21oBRJyY0sLrU3zplanYVPLDRKtNCZe2nms1WjQ1BIqVrN8rXlBzj5rXDvDj/1O8T1cIc1yWChLjs1+UxdIyQs/Rgwf7ht3OFP8q+++saqSLEedPcqJzcqlyyXR/2ZHSzoZfMIJtnTRb36c7DF9+9gRPboLaZa6M4tXUh7T5yhJlbXsx++/tuUrltuIk0+yvpKen5040SM8ksRNIaic0pibkycJIjymAYT1oyhEaCHmbkZgUZUIceN44VgBN93nNpImzl3fWi5CCFIjrbNdnVdD0sbWnZkOsK4aqQwARr2Ug6Bz0ikbcQDGRBEuXgpCCCftgjBsVz9YL0xD37nc9KP+Rv3jE1s79n/ON+mneWLCieCAsMIAcIzB5CDalMJGjtkMRIJ7o3HwfmXMBgAzDkeIIe1h64cpMCbXEtQ2RJILCZ97vJGNuggH5l20Jxx/jJ9jQ1uBCCbRUDA5bKG8ezhbyE0IanhkNYSZ8YTfqc+PzdC88zIaomyQKENmKoaYX+oaDXNABA1vY+PoE9YPxCFkefeevX5KKC80wtxDnTm5vI5TmoMINAhK//XFVe8duw74eSu8yyA7R+uiuS+QpgZR46TXLAkTCC74BYqLw7XL3JflDBWbeJQwg/k4/JN1LHEmEpdYySW8hRpPJTGljIyqLvz8JGmKAInmzVu4Aw4/Bu/MRrPDT4GWx7u5eYdBF0n9vP0OHwzzwBlbaKgcFrdakvfhh4fv7YCwc8QEp5pyjDZl8CPB+I/s1dN9K19987Xv3YHpcFYOgQazZ89yhk1UET6Tn4UvzAc7ntEEiUxiPdjY1rFDB99VzVEbvJcZMxMH7fHKS/rMwrP5jJcaIXFjmuXdCuzncOIt2ERIYY4gcMApDmWEERznvPaUIzb69+9n554zyho0qGMJYha84Y+zzTj+BLzCAYt2jpkQeoL5iLV1zNAn0Yfr123A6+d9qi4t7/gBx9mgo4+xho2auA8J8yMmzCiIgxTCOeun36oHhgIJUzbbcgBcOKC+e5Uei49jfPCQIWRVftZfMK2+8IY5YIwLgTAO8qd6CwVfnQ9rb99/94Pdftcteo55Mc43Bk758nPJkIE03H2a01xpch3stDNO9/duU9NTTz3l68aObl52lCTNgOgitLobb7jZtm7ebG3bNRZNPVsCQw+rV6e673Eh3JOovOk/TrMe3Q/zM7DYbzNd2ltQUmh9jjnKjhT9/FSw8M2P37umetIpp7rje/qPM1wL56ytGjVr20xplT8JDnuLqQwcNMS+mfG9zZo7z/odO8DfeQ3TIdCDqKPDu3e3QYOOd+0ZuuPCtxg260X6Q0NgRpXgdveNe8guv/Rau/yKK2zyOy/Zql9/stGjb7HY9Gr22HNPW//uveyl8U/Ys5J+7x3/oD35+IP28KPj7aHn37LTzrvMPv/oPYvN2mTPS0Kev3yjvfbJt1LhLrCbrrvC7ho/0b774gu77LTBlm/ZVhSXKgKJrVxMQCtML5A2sG3iTyDBIJCoIMyYHjAHpQjokD4htpg1PBpJpX0UGhyOLCcx2OX1CbPJ1STwhiDOYPFzWLCZQCh0AbyEqhbklFimAJxnSHNITv7MCWQIpFxw+VBaCYGTT+YQQq2ctmzZUgdwzB0AIGOAQGKT5k1pnJdDdAtIDlOCQfEJA4Sgt+DlKSIGmIl4w1ZNEQ7CDbF/A8Cc74Q9n/YweRGNREw4fgw/Z4b69GylpNotO/e5U9pRgTEK2Qkvpm5svxwhHjryyzEDjYffwAkhw2gPRJRgqkGbwByGDTsjPcWJPPnDtUh06ZD2IT6coAmRiWc7sZ7jcgS5OaoEUyAE/IDmHIIFga9du7pVSUtyzYG5oFshFISJ/mDOggBBzFj3ypVSlF8agiQz+uw839dG66K+OcNWuzu27wwZb4LU7ZcnCZF+sHWal8efelplK/phjAMHD/LY/s+/mGKfffqZO37Zv4AtnmgvNhvCFAkpbtS4kf04bZo7acePf9xfV/rDjz/auAcfsOtH3+D5KceL5YnyuPf++9yUw6GJEIxrRERmlL1J7ZFHH7URvCzmvvs8cg+BiboeeOBBZxowAKKbxt5zj02Z8rnNnzff3njzTbv00svsljG3+j4XQh3RSG686SaHpVn6zVHrwDCRNDBpLk2H5jvZNWCEFwi5m1g1bziUeXERpr8saa252Vla71QJBdJcxcxW/b5WcJzt8EIghB/4KJwiXJc1B3YQdpDwOUCR9447LArm8BNyAmqxBDXAK1cC0fadO2ybBIWcvGw/dFByiqVIO2Txdm7baZxqKkHWNRIXAtT5zIJsSbwSqLS+SeCjVjdRWrTotm3essH2ZEr4kLYsEHO/IuZELAMJKWJikpoT1EaatFdOLi4RngODJUX4sqRhF0j4VH4EQKKYwGvwHYEMJgWMESadJs0yVvC/SgIE7wpftGixhJdcn0cc++Ak/qY0jamwsER4X1mMPMmFoFgJm7Z3i3313iT7+tvv7eWp8+ym28doTfbYh19NsZbdB9qtNz9oT99+r33xygs29cPPbdKz79lFZ15iJx15lF065h5bfyDWnn38ftu17Ce74pzhNurcf9hjz0yyh+661e644By7/vJL7MUX37RHxt1rXVvXtQv/cbbFV8qwCS+9Zo8896qlVa/t9ErUVXTPqaYndyqHiWOY48WpG9hlqixL0mizxk0soaDELr/6BsuQanv+GcN9c5hJjSoQ52VDRMfWHW2vAOju2++w35Yvs+4dWks9irVLrrvVEjMaWs8BJ1qd+g2tSmJ9u1UqZ2JqmtVu1NBWrsgT8060BC3nyScPFVfvLkmtul1//fW2acsm1RHvhJp+IRkSTcFLPnIE3NUzqtlDYlqFlWvYtzO/tReff0bMJDQVoBYjqfEegSsuv9TWbdnpxOLEoSfakf0HSkpIsOuuvkKLp/Y1ERBICE66Fvi20XdYRu26VqN5W6sqAsGRxpwg+cQTT/rboEgQJAhcbn6h794dNGig+xKIPkA6jhKSIS9wJ6zv+OOP8zFwQCCnY3JQGe1y7gqmEZAXKchjoQXAvI/35FNPFSKUOBK89+57VlGS7MPjxrlDE0bHWURJiaV+fAC2748//cQ5/uZNGx1wAcjk1BSbJQLx9YxZVr1+U2l9//C+Yh7bL6k2vUqab4Hn/dJIRSRmnPkgATC+BGUJIg1DQN2HUCcmYcLBsRw+R53GfMD7kZko3qLHmTU4dxk/81YguAL+EsXMK4gJ8AL3iiLQHITIPoNOHdrZBmkJaCu0h+OSAwghBEixmFEw3yE9I8kSMUT9SQHmJZjOH4m+U48jtAgcjkyYICGL1SVZpaVXtccef9T6H9fPzhw5yplkh04dpfrXdyaM+YXxsmOf/uM0hLFzlAtHUbAxDcLFEdM4I9kPQZ85eZLQYDRJTs0sEnHhfCh8Dxx/wAtfYOC8npP2OI8IM+G8uXM9RJBnMEN2iL/37rs2RLALQcXP8K0YEieUIiAg8RFqjDbQVsIAggAbDnGK8opZzDWERofrGBK26DuMFP+bC0dwCAkCjA1NqIqIHk7egjjNnepAk1i5aasf15FRrbKNvuEaNyUhZUNo0VC6dulmK1at9IP9MIciuPDyfw59bKe+devRzXLFVOLFjZNElKtXr+m+H5jwls0b7NxV63zMCQkVxMxj/IUznVq2doZGlBrz7/KbgCdZnyNPO8UGndDfDqzf7OHteYK3JMHG1Ccm2Tc/fGt9e/e0nkcdrQJihpqnIE8ateA+PoFjXIiwI6AFIAnhHZgilJq5EYY7HmKmjBEtA9ZhdBzNjmTN+yR6SzPjdbW33Hqr1WtQ15b/tky43lr0s6HdcOON0tI6+ouPhg0dbnNnrbAXXxvn/tWunY62eauXW6/jT7TYnEpWNT7fnhh7k804uotgY7htzwuscf1Ee3T8Y3ZMr+5WpWYti0+paDfeeo0LBnfedputmDXNrr7+Ohtz9ziteaFNevw+q99olmjwLdahQTO78qorRRcK7cLrr7bE4af4vp2PP/7Uzjr9NLv/jtvt8B7dbffOLU5f8ev5RtkypD/oVCZeGnMIZgwKdNIi8z5hXsicJuQ7+pi+4h4CIjGIWN3nJETeFLZ3zz7nzrzu74huXQV0ei7JA8LbR2pVpZQKVlooiiFgY+dzcy0yJ/ABg8uWLLVOHdvZYV07u3OO84w4GZI3oYk+hMisi7N0ePEO28M5XCpXRLK58tdr1tw2bd3oAMMCQmT5zBUC9ut3jF1w0cXWuElTDThBKn0da9GylTthcBZjfkFyYlJAlBZCzrvvuse3+tetWdfDYtu1aatxtTQ2MRGOickMosYEIvWwa/ekk0/xkECI1a7de/zogZ49e7n9+DgRDEJGicLCTEBcPxIZTIV5QtqA4PNCFaKh2BQ0dOhQdzyy1wPCTnuMK3TYxrvNn5eboPJzb0C//nbBhRdq/lr5kRWcp4LWgKmA7eldOnWyY4QcZ4w624jcWL1qhb3x7gdWiAruRADTFc55zGhI0+GchEd9Y/5K8o1vmEEy9+21nTu36TPTcnOynZFkSWVXNx2gmE/MN1HE1fKVq23jprW2e/cOyyvIEVLnaoyYAzR+/Vfsmo70xIJSa96krr/UZ9ny30WMstysliXpMk8SW2EBfaFMiQin2twfalX4VnjnwGYc25jSJEUinXp/1CHUfs7uASZ4uQ8EvWevXq7heHivxszasIHO1WflQ7Mg3p8joZ2BqR20OUypUcJ+zN4HGJtviNQ9/Aqclskc42fiheVsNCT0VNTEzTyYjfjuREdXC8EwEiWMA5ggZBZzFG26xqabMBeRXY0lwU0WvP3MNVYNEq2NdxbXriPmoPGzGRF8aaS+sK6sAfUAP6RsSfszJaTwpjXmhjlDWNKwXRjEAY/5rHadWh5Bhfm0rvo0ZMhga9W2o/U64kg779xzJNS0tnVrN3vfq1Sp7EwFZgXjJEx967btLuCgCXJgHm+pO+boY+yI7j08Iod9LsuXLbLjBh5nvXoeacNPHGJH9OntzK5zl8N8bDjEmwp39+3bY4uXLHIGhWbIXo6uoiMjzxpp/aTNsWehSFof+2kCEcdBJw6zY4R7Z4j4+ZoKz5aKWP8w7Ss/S2nd3DlWeecyW7tsvp056tyyuQlfMPUjx2afONieeuoJe+bZp3yX+3PPPmOPS2Ns1bq5NWnWRPwjxiZ/MtmjLsH7z6d84WZcfGs9RRN5gxxmRgRJNhli1sncu1+C2Y8aax/btGmbVatew1IqSWjSWgkJxITTrHX7DhpDviVoLZLFtLoc1sFihePZBXl2IHufNW/aUOtSw32jtaVtVEqrbB9++qmlZ6T7+7IHDBhs73/0ua1audjat6xj7Tp1sfWbMm3WzzOtWZNmEpxqex+/+2aq077efY4KrSgglsbkTmXB+0ENAbUJxCFkMVNEihQfExKhnEKpaPsKBJh6HsRavFS4Pdt2u0wJYuXFqmItSAVR8USVCST9IW1kivArg6TBUArPklRO0jJZanKi1NC9Ho2C6lk5LdlyD+T6C+A3bFzvUQ8uOWvCzjvvPJe8QHY2stSoX8/2S52NK85zm+Ge3TvtlUkve93swjtKAMPBZHt1P1+Mh40eMSW8XzncQc0uUOpEKgtNTWY3Xn+DxipmkpVtFYN4K4zT0gswITJIXNhrIeqYQbCVczY6klGmABUCgX2UI4yxt6Mq40jlWGUkG+zTqOGPP/64CElbZ7okdi2DVC1bcvpgvOrI9Lh7NvW8+867jtwAGwjCS8o5JG/N6jXuoIRQk2BmbJia9MILzghIOCXRkjQ4S62UbscMGMiB1r5WnEZ6zXXXaI2zRWxaO+IuXvyb6FOJCFxogoMwklgzmBbv8OUdCDCsuHhsrpgeBLyJ8a6RsYkPadGJdnGMdet2uPcXNbq4OF+Ed780uFyPtirRGvIehqTYNIuLSVVbaAKVrF271u7I3SZ1PIjB3IfGJ6JHXHtJir6Gdmnvlz4B3latW/j7ezEnAm9hpBMMNBQOmGf6zhjmzZsjDaKCkC5Hmm0NZ3y8fQ15MFZzH2qjqlt1YIJgDlh/CCpwWL5thAHaY7YoxXeYN4Te1xuziOaVvPQpNL9xGGJ49DbJ85b9ZiwkpFBV5W1SFok/lFhDJsKa0xZMiMR3fy58JD8X8MBFwuF+aEI4QnhhbisIBy++6ELfb8OSE2VIlBNv00IaLd6y3ccVl1jBmcsRbLYTYxKoSKrfajtFvTp0audmEfYyYOr6RQLdLZJCYTjME+dfPfPMMy7kYY6pUTPDtm7fblu2bfCQ506d27mwiJ8oqUKibVy/1pq2aOVaA9pF37597Pvvv/PwT/oNbep//LHWR8LVRgmxRPVkZ++3FRLaeNFSo9YZLnhRJ+eeAdc9OrSw7z5/15q2aSUmGNiGVcvsWxH1+NgEx7HoSJitWzba76tXOQMG+N3kpLXgNF7eD077nHrKi4Y46pyQ6McfH2+PPjbeThTTRKBFgxg79j5/FemI04arf4nWolU9O/fsS/wd2hWSCSpBIufI/BLHyyzRGBdMgSbgAuYu4UnQoD4EErBjRSf3W4Y08kTRpXXrNlogOrRn/w6rWaOSZa4psK3rdtmWTXssIyHT9goeSrPybd3OOFuxbIn173uUnzyMQLVSgl2Ldu0tB9OYxo0ZvaKEUQdkhi2A8q+/iKtBIDUDFgjpS9URZwi6/PgGScUQC4h5Qin2ZpJUUnVwf3Jg6UUxVq0wxiooR2GyLsQnTWqEnJ677JME8yFe9zstdiVJFWlpbGQSl1d3kFRwcuKgKioqcHMM53IAYNwD4QoFgJzgWZUwRBGZ8NhsnM55VrNWLScGvA4TAoDUVlqUb/skWSL5YbsGcZFoowTDwS4fqq0QFRyqJU4w3VkmAksZkA0pHyaAk5TZA6CItYfg8lIapKRwqKHGAlGAYRClwhiiySexScmlfTFk8JgoqTwRfsqBjBAWPukD7UPoOe4gfItbSBRYNzg9ziHqhnB0kDRK6CobktzxrPuJmg9U45KSQuOsfcYP4kaExZdMHQ+jjcqIkp4hPcIAMAmx4xffBc575heplfdPk+g/wIxqz6FpMFj6XiQGCTMhbJd3ZxSrfUIQYYI0ytqBJIllDCPS2nhGHqen9E0wSYrgCEkHJzGfrAP3y8MYCU2MxFgdfsSoYdDK6OYQPvWftxl+0/+l7FdQH5Q/Iq5RvWXo4r9hCFFkFuOMEveAhYNlyhhCVPZgW2XPfd3KUiSg8Iz8YZlIq/BHf0rl++OfjOmfJIQSmCfHl8B8CF8FB5G6mWsi/TgVlj0KderVdpgqKiz1V+TGitEmxHIGl/fcw6fnzp1trVu1ELxJkxI8cOw4wskBIvbEQJDQYUpNJMVji8dHxJvgcoVntavXdI2dfuCPAkbXrF9ny5cs1RpVcBhGuIIg41NDCwEXuQ9ux0gIYeTMNc5Y9hnh6OUgN59B9Z2piVH9mhSHrawD+NsqAaQSEEWEhWOhFYIs8RKWCjyoIJxoXaoAPMzLybIWrdsITxMl3MTok1DnLAkusaI/VRxH0ILctycmjwBSXADOSehQPRy3ARNHsMB8xVhJB+FD7dBiJJTomzOH6BfiEXBcs1oNGznydFuz6Dc7+5yzbUVWju5Vs89eeM56d+5q6Y2bilFV9U1nFSpUtAEDT7Xdmu89W9bYnB++t5NOGWaZkkH6DRws7bW+MzzeEwKOde3W3WnLQYbARip6sFkLnV6tqpVoMeO0MLziEskxTjCDclwqAOF8fhC8mIiAQDyuogioCG/dipVt747tVrdpY8sWASExaBAnGnyUQDR3QAnpNO3+nAukZVczhAsn3bHHDfD46WiufPOZ8vkkaiVBJgg8tnFMOBdccIE1atjIj0Jg3wIJwORQL6Q+6gfIMBvgMEQ6wpTF2TKo2TxngaP+cDlDUX93SnplcxI7R+tLSwFAYRQapQMOhJMrbJOIJu5HDmmQOiTgf/wWI5W69/VXU+2HH360u+4e6/bgPyTGME/4PZRWMZOwU5YIISJO/EUtSiHRD/NG7dJ3/61PniEtYfOPxumSvfq5adNGN0PNmTXH91Ow47esqrK8lEMCR+orsWo1atg7b70jqW23b5UfNnSYtL/w5f4c8gVzi4uDeeATEUEvklS2YaNH6PAS9LQqle3UEcO09vmCISGNE0z8EUJeEWMcnvhTOGWSWPwqGZXspJNO1HwXeGw77bCeGpH3n3Wgn4yZDXRs1OKlMNh52SwJbKSJidJ/gN8lZJXzY5E9aX5UFwwR6sDYmXefM/qn39FcRuvBb4frsu8Oz3wv+x3lh0B7mbI6SeXrOPjJv/K/vaY/8pKAgUNTxGwOraN8grAzFvwxrmWrHszDWVmZYu4Fwh/2DMR5NBPwi2+G/Tx8j41hwyS76MUQtC4wrD/gKXB4LikLcJg/f57t3rXbT0CFcGP2dCeqcBQ8IQghpNbh6ChPf1k3YJY6qQ9Y1lfNaThmNDteWo9fjr6dddZZHqUFAYvqCIcd4234unCfqfF6pA2JEeCb2Lx9p2WkScBLFZPRHIQzKmaldthMR13kX7tutQs7bdu1camfqCpWGG1S/6mMaAnChsqwBt4PtUU3fEzUCi8qtxyMz2Fc9BR8Kr+2/iz6HVPWK+7pE8bilan9zZs2276tmfbRJx/aG++9ZTeMvtLaNOkgNbOiXTb6amtSJdnuvPoSK0pNtweffsk2r1lht9xyqwUJqf7iqtdeniSt6yh7/fVXbdOWbX4IKXTxsK7dfY0O+hB4xSFEEYRr1aypNalV0aqIQzfVmGuLlaRLq2jWsJ7VEyOom1bJaooR1JeUXFeV1Bag1GlQ1+KqivtWTrFtO3Z45eFCaXKYFf6V/f4jAQy6NMkhUGgpAYwy4sMGI84GR3KnFHVyZgw2fEw3SKwAEEAOEyFkEW0CZ6ATJUmzEFcOL4sOMIvaAdhx8rLzFccvi47UjyQehYCSDwkHyRxA5EgGzDKcbYPEyW/WkL6S16OeQBh9Z1zheMORkv4AgOgmc0NkR65tWL9Bi9LVzQTex7K5isr4POo+i4ekwYF52JJxqno+MikvNUdamV9lZXkOcumr10Gfeacqc80xE5xiu39fltvLsTWGTCXsJ3kh0NjIddcjibL2s+U9Xv3ebE2btJC2IA1KEhLzzAuBILz0j7bpFxoY5+1g7+7QqYPFS/0tCgjxTXLVVQvm+YkYg1l5GKuHEefZho1rNefdvK8Qd9plLphv5hp4oI8whnfffdfP80GqxI5LHhygjD9c+7J5UbloNUgB88Kn+sqUh59lxMafhMl/Rxe/y+5FKXr2V6n8s0M//5z+6l5ZXw65SAc/y9br0BTBkBMjJeaXcGk3Z0EIdZ+XueAnAXfAJ0yAlIMhgA+h9hlaBqgtap/5h/Gzf4AjT9BW27Vr68duENgwT0wC/9vhPXupoOCP+fdawuR9py59936W9VU3/eIn/eT7xo0bXIADN9lEFbVfvi8U8/pVzj/1H5oGAu9OMasNIqgVU8Sc1BcOyyOjM7ewiGgMdGSth1VjQmOe0iXxhxXTDm2E/fFyB/sr+PIsZX0p+yyfDuYE2MolzxfVEzYTftWX8C7hwPHWWILuGWeOtEfHj7fTTj3Vjj3+KNfMbrvzbg8dHzR0kJ00oJ89dN8j9uUPM2z4eedZ78O7+Nv3nnjmed/Y2L51CztjxCm+G5x3c3NoKfhTW8IltPIgQ9i2daubS2rWrGEZlVMtNci0/TN/sho79lvmkkW2ZtMSa1oz3XLEqfcsXmg7lyy0VBx8v68VV4617DhpCxmSpCuluNM3FcKg0UULFn0ywj9PlCZOiMosIP3zDgXMQ4Robpakh1SL45VOO2EXcFLe6xSgAIDExUPQkJ7ZLMQ9l3SkyVCOgTKh2D9RNzlgjoO3ME2BHNQF0PiOSOVnbegvdUCE9uzZ61K0m2aEPNQBA8FUAaOICNN/ZAb/ESgYb/TJM2LnYXTuPFR5390ZzZXniiSLcG8GzIAOYhaj7/hEDrZR1t6fLr/9B2DpqyMlSMVJopi92FyFSou9HaZIpEu1ahkaBwRUKrvmhHNbqIR54jRGjnqoU6eeniU7wYgXcsE88YnESdrEFk87SPKbN22wTZs3WLXq0jwDXqGYZ0WlhVaxMm+mq6wxi+hwJWns8Rxsd0DIv84OZGdawwb1JN1XEjNKdWbMW8JYy/AK+wZS8oxjsLF9syYICkQdsZYweVhlyLjL5kVzXB4v+e4/KaB/5AlTiNyHpoNzW/Y9ulf+819Jf503XKd/KYUL6+k/bzfMjPmGeWAPBuvF3hjmiPlr1pQ3/HF0RKqvOcw9hOkQJjUbusI5jBKHSJZIqvU9JZo/9tE0adrEateq7ThJ9BVaCEzaCaiKli/v9ery3uk5efgdmplCjRZcRFMnhh/YRXODAnvZqD9l9YZ//tN/gzP7s7KlaVZ1+pIvLbZVc97hAcMJNbvoAs8wXdMb2sYXiO8rZAQU+TNDoBDw4X32u2FfXDs5JHGLZz4F+vTc/ln2m3IaEznD3/7A87vAKhzYt2+vVZdgxnEnnY7sYwkVKtlOad/njTrNzjpzhDVu0sZ+XbzC2nXsZJdffqF16NjZdojW7duxxW6+/lobOuwki00CR6UhYeZWE9A9DuVzU7kG4l0nKmXHtu1Wr3YdP3o5Rur89hWrrHnjlrZz/UYrFM3G7ltJBEBz6KFzvLquRB3eGZtvlRvUtorV2WlYagvn/2rV06u6KYdUXnI51J7KM76Hx1Xj9AqPcYDIv/feex6XTQQUi4qtEaJJ6KAnlXEbv4AXgsALLk47/XTjlECeAUiCZM/qC1aW3zmh6sDJSyTImWeeaVnSFlhgCGOUl9mCsJAg2rwf9+ILL/K3U3GKIDZRnL6MgfwRQ2AkPmbdC0cZth+NOfok0e/Jkyc7o+MNTOeed65rHyCslylTR+kb9eJDmTbte2vRvIW99/57duUVV7pkHUl/3u+yz5CQ6X54y+uNEuf6oPlAGPFvsHmKmHnO4uFURyKPvI6yscEY6DZ1YLf/6P3Jfn4R9vjLr7hc/ZPkSay3CDt2W8q4rVSFkrU+O7Zs8h25vMXpeEl5wwSYeYXh5qdSqfJeucrQVfwIrBFHfHCMAuNnYxQbjghpJNGfKIG4IAxryp4B9gVwBPWFWisSDDuaU4hIxLxpNkrhmjDXfOhB2bz/XYpMBH+XovX4z+oiHczLR9n3KP075Q9NlP3zFdqkmeOtWzf7XB0urRcTYIP6DY0d4tHsOgHUKMM3F4ZzF97ndwhb4CSwhP2dHb/MN8czV5VQwWZJ/FRNmjZTVkxCkaOcfgEnIaMJf4d9I7GWCEDs4HdNUevLqQhE5FAcxk8wAsn3K5VNT0hrQpgl4XY6yNBU5/oNmyytYoquVD/fKpLyvVU2sek7bRHyi2+EjV3gFqe9UqfPRwR7ajfCO0eAfyH52EvCvoVlw/ZJ0SfJhUAfFK5l5VH9CEFEMaVo7vcdyLbd0grAxRR1KRBeZLkPNs6d/NRLeDktOdyrvhwJ2ezVwDQW7q/A+xw47WnToZ3TuD9MRuIiqPU4nTg3Z9+BXIutkGrb9u2zHE1EgRY5V9XvEyAd0KIdUBvZIiq5SUKslCQ/KG2vpMaNvE1IDSC58qJzX5hw/GFijH4rXDQIknrs31k0CD9lAVImDIINUYZR+MKqOJpBRHxDKR4AD23sOHR4L4A7Gmm7LEWT7YBR1hZ5KEPIIBMDIDtxd6IRLrq3qQvgpC2cRrygBTWSOqmV5y7Vc+n3wTGXaz9K/kyJMtTHJ7HuIA07Yok88nlxRAz7ze8ob+TgxhmIqYdY9mhsPi4vq6vst094WTfKAxyPGDt5IAxI1WgIHA8NgLi0oGe06fXpYhObh1nqO8cpcO4PL08hBp9XfSIFhjNC/b5S/sm7jFWTryEqeb06dX3DGlEkbAzieGP6Ge5AxZwV75ug2LDV75j+rkW1bt1GfUz1tukb86WvZWMKbc9ZAniOZebIAeaI+YzGSF7/ZH354T0Ny4ZX+UTFZV//JlEL1/90Kg+3/04Kx/X3KZyLUFsi8a4NgiR4gT/v7+ZIZRe+9D1cvzA/DCD6TgrXN4RNcI/5//brb2ydtAxCZ/EXsQ6ffvqpR821bdPG322ANEmZCBTL1/lHCn8TEZUmGGf/CCfGNm/Zyp3VhLiyvuEikTfqY/idFNXJ/2ySQ2jAoQv8sceJsoRVk/x/zx7SAGAKHEdrB97RSFwbIBv1luEmhQ7iVNnH36U/8C/sW5TCvv65An6Fd/Q/YxPcYk7muBDOc8orDDez8s4T1osAGKeJwgu0eKItEcg4iRc6Rxg3lhjwOaxcOKd/tIxVolqN6iHOq5PeLme0YI9S035UAlI3Rzq4LZ1SlC8bBxwnNCdo8sq6DcGiQn7WqFlDUl6RHXzVZFkeEpwu5OJhcsnTn4eDZnIYqDMU1Y/pCICLFpgaw0XhN731D0+UYTgc/wzAhJwwBNZoMSjLBUJE5gbaQyoNU5QvBAyaoSjzgHRDvTjk+GTinVB7XygU1h8lagpro44/2o8+6RtzBpH3+8rCXgLuedSKyrhKq/tI0kRaYJahHJuFuE9UlUviKh8xA1LUnouxZb1AKtANsnq+KC/1pagPPONoXT5DzQRCXZaUN9IWqDqWQAMYgPKgLeKcTBRhCaOfwnZEQrwfwjEBashg6GsY5kmfmWPGh6RGW6qf0NeyfvFBfD2h0GieDk6qj/7SRjRGYAhgJzKMfoP4REO5SuxVqR/6U+18DS+lcqMLE/cl9XGVZTnYl4PzWS7x5K9MA+XTwcdl5aP6/i65T+Uv0l/2oVx9/6zuqByf0XeycgG/2Mvx//C6UHxv1APxofN8D68yqThK4WJQqeMtx8/MmD7d4ZZIO4JCEFjY1U0eTtkk4g2hgi74ukfwWG68PKNf4D5EmCg7JhpGQ7AA5/+zgYz+oFFHcBPWSX1hiuYCCoV2yDNfb60tcByvhUMO8R4oa8iEQ5hH2wmZQPiecWCb9w+HdUKvohTCNzdCCFP64+F/SNH8A+Ph2PkdPgu/hz9cO9A8UiO9hu4CkdApaDQ4BP0qL6z5aFWcOqAJrCvWBBioP9Qz6owuTG6OUyqbIDxu2qK5mw8PMgQ0BJyy+BHgKnBVPyZB0h0hlb6AZFTy5lUMiQ5khJM7MeKvLBPV8pX7dDzsvBfzzz+SiERZzdGEMHAWhE+SA4cG4AtCeb/7nyetffhJX3SFC0r76qeuyBzkUmTY9MHJ8k7qH+pw+fuUI6tfmiO+RHVHUoSnsvJRisYW9YFEnZiwqMOddg4kZfWVIUnUV1K0Di6d6Zb3TXkjYNUMh+2W74cqZ3en16HbPCIG34lwGUDQB9aQdtmyj6bDTug/pXKUz/snoCaig30IPPE+8Kdx0A/GRqLnviPcP8P9KTio8fVEdvxofKRonsI26CtOdqLDxEiUz6HqYJ4Qcsgb+V1o101ojE1D4L5myhGeeqIUtaNvflE2vOc99d/lkc77o88o+X3/U/rjv4OJvN6a8nEUuzrv80Lf9JB/B0uErepPebyt8PafUvm+k6I+Rff5Hd0j8Un/uSLtsnwiLyn0s/wxBz4uLi0MOSLBz8tzo6z+8Cmlwt6j5YKvXJh0PaCA8ejPaYOXD+Eg1PBCPxBO6z+NweegrK/6zfoh9ULYOIm3Zu1aXpZ1pm5wkj4whpDIhuV8LFG75RL56APPHacppwvcDefBMzmcFhQXuOBHRCVtqTKHq6hcmLWsfCnRkrrnt//cJqn8/MeIwh8sz6V+Y8KDmcKIYUg+l4JvEYU/95M86ltUnsR3H5NuMRveVyXqpG6eU7fjvH5r6GJr6o8+mUveAdK0WTP/7gyBxpkgOkKkEbHE2O2xKWLj5n75Sfh3kndUE1leCvi7RBu0BSBHBJvJ5N5/lg5t4d/vbdj+36XybZTPSTnm8H8y/Vfm+9D0d3WEvYUAhUAU5vzX26Q8uf8n+lk+RfVF9ZdPf9XWfzbv/9V1oVx0Ran89/J9ObRfh/ad35Qln1/hbU/l64zSX43z0FS+b/+sjuiKUvl83Ae3IjwDx8oTLlL58gfr0UeEztyhToQKmAB18QjicnCQnlf/6Z9vgIQeqEzYVlgR/3P5KyH1LBJiyMOFgMhvp0NltMgFIt0L6w3zc5GifsOEPfn9cN6jPBFN8ToZGxeJr/orwSeGtq4xuRYKQyjLy2dEmA+Wp2hUR7kU9ovyZb+jPH5f7ZcrC8H2Ovwf9/94RirfVpT4fei9aIxh8XCdMcXicyDknqARzMOEBnMgIvl9jtVAwMCInMFWCxOAKfCdTVIsNFwxavBgQ3+RDu3U/60U9fBPEvt/I0Vj/rvxkeevFiZK/0od/xMp6se/mgSSDjNhOe5EZekv3/+oq/zKR9//nOM/pv/OeMO+/dfK0275Pv6rKVon0v/2Wv2fTP9sLOXH+++k8qWoGcIrKvEf6vu7Ofwj75/LRPf58NJRHdz+59X9r6V/Fw7+lfz/J2GLtphTroi5YqYmxJgQ8+jMLrShgwwBLYCwSuzi2O3RDJwZiCNFlf6/lqKJ+M/S/+TY/lld/6f78V9PUT//vb78Vd//lTGXT//V8Zcv9++2+Vfp/zfW4V9Lf9fX/8pc/N8e+/8Lc/8/PedR+t8Y+6F1RhoX/lNCiwnC4SKoBP+km4wg+piN8FZHV3lm8N9NfzXQfzZx/xuT8q+m/5tt/0+lf3cM/xMElPT/wtz9/8P6/mfp/+Ux/jt9/8/g9r8yD9RJub+q+9+t77+6Dv8dfPxX26QNTPKYw2AC0ZWQkGD/H/jHCup5QNzaAAAAAElFTkSuQmCC;" vertex="1" parent="1">
          <mxGeometry x="803.84" y="610.95" width="129.33" height="15" as="geometry" />
        </mxCell>
        <mxCell id="RiVhKGQ44bodc8hM81Xa-63" value="&lt;font style=&quot;font-size: 20px;&quot;&gt;FWGW&lt;/font&gt;" style="text;strokeColor=#d79b00;align=center;fillColor=#ffe6cc;html=1;verticalAlign=middle;whiteSpace=wrap;rounded=0;" vertex="1" parent="1">
          <mxGeometry x="823" y="644.5" width="118" height="30" as="geometry" />
        </mxCell>
        <mxCell id="RiVhKGQ44bodc8hM81Xa-64" value="&lt;font style=&quot;font-size: 15px;&quot;&gt;PARCHEO&lt;/font&gt;" style="text;strokeColor=#d79b00;align=center;fillColor=#ffe6cc;html=1;verticalAlign=middle;whiteSpace=wrap;rounded=0;" vertex="1" parent="1">
          <mxGeometry x="519" y="620" width="77.5" height="21.75" as="geometry" />
        </mxCell>
        <mxCell id="RiVhKGQ44bodc8hM81Xa-65" value="&lt;font style=&quot;font-size: 15px;&quot;&gt;PARCHEO&lt;/font&gt;" style="text;strokeColor=#d79b00;align=center;fillColor=#ffe6cc;html=1;verticalAlign=middle;whiteSpace=wrap;rounded=0;" vertex="1" parent="1">
          <mxGeometry x="520" y="913.62" width="72.83" height="21.75" as="geometry" />
        </mxCell>
        <mxCell id="RiVhKGQ44bodc8hM81Xa-66" value="&lt;font style=&quot;font-size: 15px;&quot;&gt;PARCHEO&lt;/font&gt;" style="text;strokeColor=#d79b00;align=center;fillColor=#ffe6cc;html=1;verticalAlign=middle;whiteSpace=wrap;rounded=0;" vertex="1" parent="1">
          <mxGeometry x="864.5" y="1146.62" width="77.5" height="21.75" as="geometry" />
        </mxCell>
        <mxCell id="RiVhKGQ44bodc8hM81Xa-67" value="&lt;font style=&quot;font-size: 15px;&quot;&gt;PARCHEO&lt;/font&gt;" style="text;strokeColor=#d79b00;align=center;fillColor=#ffe6cc;html=1;verticalAlign=middle;whiteSpace=wrap;rounded=0;" vertex="1" parent="1">
          <mxGeometry x="1162.75" y="630.07" width="77.5" height="21.75" as="geometry" />
        </mxCell>
        <mxCell id="RiVhKGQ44bodc8hM81Xa-69" style="edgeStyle=none;rounded=0;orthogonalLoop=1;jettySize=auto;html=1;exitX=0.98;exitY=0.98;exitDx=0;exitDy=0;exitPerimeter=0;entryX=0.95;entryY=0.05;entryDx=0;entryDy=0;entryPerimeter=0;endArrow=none;endFill=0;" edge="1" parent="1" source="hJDzLai_UrfbL94a5cmA-67" target="hJDzLai_UrfbL94a5cmA-65">
          <mxGeometry relative="1" as="geometry" />
        </mxCell>
        <mxCell id="RiVhKGQ44bodc8hM81Xa-71" style="edgeStyle=none;rounded=0;orthogonalLoop=1;jettySize=auto;html=1;exitX=0.02;exitY=0.98;exitDx=0;exitDy=0;exitPerimeter=0;entryX=0.05;entryY=0.05;entryDx=0;entryDy=0;entryPerimeter=0;endArrow=none;endFill=0;" edge="1" parent="1" source="hJDzLai_UrfbL94a5cmA-66" target="hJDzLai_UrfbL94a5cmA-57">
          <mxGeometry relative="1" as="geometry" />
        </mxCell>
        <mxCell id="RiVhKGQ44bodc8hM81Xa-72" style="edgeStyle=none;rounded=0;orthogonalLoop=1;jettySize=auto;html=1;exitX=0.98;exitY=0.98;exitDx=0;exitDy=0;exitPerimeter=0;entryX=0.95;entryY=0.05;entryDx=0;entryDy=0;entryPerimeter=0;endArrow=none;endFill=0;" edge="1" parent="1" source="hJDzLai_UrfbL94a5cmA-66" target="hJDzLai_UrfbL94a5cmA-57">
          <mxGeometry relative="1" as="geometry" />
        </mxCell>
        <mxCell id="RiVhKGQ44bodc8hM81Xa-73" style="edgeStyle=none;rounded=0;orthogonalLoop=1;jettySize=auto;html=1;exitX=0.5;exitY=1;exitDx=0;exitDy=0;exitPerimeter=0;entryX=0.5;entryY=0;entryDx=0;entryDy=0;entryPerimeter=0;endArrow=none;endFill=0;" edge="1" parent="1" source="hJDzLai_UrfbL94a5cmA-66" target="hJDzLai_UrfbL94a5cmA-57">
          <mxGeometry relative="1" as="geometry" />
        </mxCell>
        <mxCell id="RiVhKGQ44bodc8hM81Xa-75" style="edgeStyle=none;rounded=0;orthogonalLoop=1;jettySize=auto;html=1;exitX=0.02;exitY=0.98;exitDx=0;exitDy=0;exitPerimeter=0;endArrow=none;endFill=0;" edge="1" parent="1" source="hJDzLai_UrfbL94a5cmA-14" target="hJDzLai_UrfbL94a5cmA-15">
          <mxGeometry relative="1" as="geometry" />
        </mxCell>
        <mxCell id="RiVhKGQ44bodc8hM81Xa-77" style="edgeStyle=none;rounded=0;orthogonalLoop=1;jettySize=auto;html=1;exitX=0.98;exitY=0.98;exitDx=0;exitDy=0;exitPerimeter=0;endArrow=none;endFill=0;" edge="1" parent="1" source="hJDzLai_UrfbL94a5cmA-14" target="hJDzLai_UrfbL94a5cmA-15">
          <mxGeometry relative="1" as="geometry" />
        </mxCell>
        <mxCell id="RiVhKGQ44bodc8hM81Xa-80" value="&lt;font style=&quot;font-size: 20px;&quot;&gt;SWDMZ&lt;br&gt;&lt;/font&gt;" style="text;strokeColor=#d79b00;align=center;fillColor=#ffe6cc;html=1;verticalAlign=middle;whiteSpace=wrap;rounded=0;" vertex="1" parent="1">
          <mxGeometry x="1146.5" y="512.5" width="131" height="30" as="geometry" />
        </mxCell>
        <mxCell id="RiVhKGQ44bodc8hM81Xa-82" value="" style="edgeStyle=orthogonalEdgeStyle;rounded=0;orthogonalLoop=1;jettySize=auto;html=1;exitX=0.5;exitY=1;exitDx=0;exitDy=0;exitPerimeter=0;endArrow=none;endFill=0;" edge="1" parent="1" source="hJDzLai_UrfbL94a5cmA-8">
          <mxGeometry relative="1" as="geometry">
            <mxPoint x="1012" y="337" as="sourcePoint" />
            <mxPoint x="880" y="390" as="targetPoint" />
            <Array as="points">
              <mxPoint x="898" y="337" />
              <mxPoint x="898" y="390" />
            </Array>
          </mxGeometry>
        </mxCell>
        <mxCell id="RiVhKGQ44bodc8hM81Xa-81" value="&lt;pre style=&quot;text-align: start;&quot;&gt;&lt;font color=&quot;#0000ff&quot;&gt;192.168.1.0/28 &lt;/font&gt;&lt;/pre&gt;" style="text;html=1;align=center;verticalAlign=middle;resizable=0;points=[];autosize=1;strokeColor=none;fillColor=none;" vertex="1" parent="1">
          <mxGeometry x="811" y="284" width="120" height="50" as="geometry" />
        </mxCell>
        <mxCell id="RiVhKGQ44bodc8hM81Xa-83" value="&lt;pre style=&quot;text-align: start;&quot;&gt;&lt;pre&gt;&lt;font color=&quot;#0000ff&quot;&gt;192.168.1.16/28&lt;/font&gt;&lt;/pre&gt;&lt;/pre&gt;" style="text;html=1;align=center;verticalAlign=middle;resizable=0;points=[];autosize=1;strokeColor=none;fillColor=none;" vertex="1" parent="1">
          <mxGeometry x="1227" y="422.5" width="120" height="50" as="geometry" />
        </mxCell>
        <mxCell id="RiVhKGQ44bodc8hM81Xa-84" value="&lt;pre style=&quot;text-align: start;&quot;&gt;&lt;pre&gt;&lt;font color=&quot;#0000ff&quot;&gt;192.168.1.32/28&lt;/font&gt;&lt;/pre&gt;&lt;/pre&gt;" style="text;html=1;align=center;verticalAlign=middle;resizable=0;points=[];autosize=1;strokeColor=none;fillColor=none;" vertex="1" parent="1">
          <mxGeometry x="913.5" y="990" width="120" height="50" as="geometry" />
        </mxCell>
        <mxCell id="RiVhKGQ44bodc8hM81Xa-85" value="&lt;pre style=&quot;text-align: start;&quot;&gt;&lt;pre&gt;&lt;font color=&quot;#0000ff&quot;&gt;192.168.1.64/28&lt;/font&gt;&lt;/pre&gt;&lt;/pre&gt;" style="text;html=1;align=center;verticalAlign=middle;resizable=0;points=[];autosize=1;strokeColor=none;fillColor=none;" vertex="1" parent="1">
          <mxGeometry x="390" y="332" width="120" height="50" as="geometry" />
        </mxCell>
        <mxCell id="RiVhKGQ44bodc8hM81Xa-86" value="&lt;pre style=&quot;text-align: start;&quot;&gt;&lt;pre&gt;&lt;font color=&quot;#0000ff&quot;&gt;192.168.1.128/25&lt;/font&gt;&lt;/pre&gt;&lt;/pre&gt;" style="text;html=1;align=center;verticalAlign=middle;resizable=0;points=[];autosize=1;strokeColor=none;fillColor=none;" vertex="1" parent="1">
          <mxGeometry x="392.5" y="770" width="130" height="50" as="geometry" />
        </mxCell>
        <mxCell id="RiVhKGQ44bodc8hM81Xa-88" value="Server Contabilidad&lt;br&gt;" style="fontColor=#0066CC;verticalAlign=top;verticalLabelPosition=bottom;labelPosition=center;align=center;html=1;outlineConnect=0;fillColor=#CCCCCC;strokeColor=#6881B3;gradientColor=none;gradientDirection=north;strokeWidth=2;shape=mxgraph.networks.web_server;" vertex="1" parent="1">
          <mxGeometry x="780" y="1055" width="57" height="70" as="geometry" />
        </mxCell>
        <mxCell id="RiVhKGQ44bodc8hM81Xa-91" style="edgeStyle=none;rounded=0;orthogonalLoop=1;jettySize=auto;html=1;exitX=0;exitY=0.5;exitDx=0;exitDy=0;entryX=0.88;entryY=0.5;entryDx=0;entryDy=0;entryPerimeter=0;endArrow=none;endFill=0;" edge="1" parent="1" source="RiVhKGQ44bodc8hM81Xa-66" target="RiVhKGQ44bodc8hM81Xa-88">
          <mxGeometry relative="1" as="geometry" />
        </mxCell>
        <mxCell id="RiVhKGQ44bodc8hM81Xa-92" style="edgeStyle=none;rounded=0;orthogonalLoop=1;jettySize=auto;html=1;exitX=1;exitY=0.5;exitDx=0;exitDy=0;exitPerimeter=0;entryX=0;entryY=0.5;entryDx=0;entryDy=0;entryPerimeter=0;endArrow=none;endFill=0;" edge="1" parent="1" source="hJDzLai_UrfbL94a5cmA-57" target="RiVhKGQ44bodc8hM81Xa-24">
          <mxGeometry relative="1" as="geometry" />
        </mxCell>
        <mxCell id="RiVhKGQ44bodc8hM81Xa-94" style="edgeStyle=none;rounded=0;orthogonalLoop=1;jettySize=auto;html=1;exitX=0.5;exitY=1;exitDx=0;exitDy=0;exitPerimeter=0;entryX=0.341;entryY=-0.026;entryDx=0;entryDy=0;entryPerimeter=0;endArrow=none;endFill=0;" edge="1" parent="1" source="hJDzLai_UrfbL94a5cmA-57" target="hJDzLai_UrfbL94a5cmA-60">
          <mxGeometry relative="1" as="geometry" />
        </mxCell>
        <mxCell id="RiVhKGQ44bodc8hM81Xa-95" style="edgeStyle=none;rounded=0;orthogonalLoop=1;jettySize=auto;html=1;exitX=0.5;exitY=1;exitDx=0;exitDy=0;exitPerimeter=0;entryX=0.976;entryY=0.041;entryDx=0;entryDy=0;entryPerimeter=0;endArrow=none;endFill=0;" edge="1" parent="1" source="hJDzLai_UrfbL94a5cmA-57" target="hJDzLai_UrfbL94a5cmA-56">
          <mxGeometry relative="1" as="geometry" />
        </mxCell>
        <mxCell id="RiVhKGQ44bodc8hM81Xa-96" value="&lt;font style=&quot;font-size: 20px;&quot;&gt;SWSOC&lt;br&gt;&lt;/font&gt;" style="text;strokeColor=#d79b00;align=center;fillColor=#ffe6cc;html=1;verticalAlign=middle;whiteSpace=wrap;rounded=0;" vertex="1" parent="1">
          <mxGeometry x="953" y="1050" width="131" height="30" as="geometry" />
        </mxCell>
        <mxCell id="RiVhKGQ44bodc8hM81Xa-97" value="&lt;font style=&quot;font-size: 20px;&quot;&gt;SWLAN&lt;br&gt;&lt;/font&gt;" style="text;strokeColor=#d79b00;align=center;fillColor=#ffe6cc;html=1;verticalAlign=middle;whiteSpace=wrap;rounded=0;" vertex="1" parent="1">
          <mxGeometry x="630" y="845" width="131" height="30" as="geometry" />
        </mxCell>
        <mxCell id="RiVhKGQ44bodc8hM81Xa-98" value="BACKUP SERVER" style="fontColor=#0066CC;verticalAlign=top;verticalLabelPosition=bottom;labelPosition=center;align=center;html=1;outlineConnect=0;fillColor=#CCCCCC;strokeColor=#6881B3;gradientColor=none;gradientDirection=north;strokeWidth=2;shape=mxgraph.networks.web_server;" vertex="1" parent="1">
          <mxGeometry x="780" y="1190" width="57" height="70" as="geometry" />
        </mxCell>
        <mxCell id="RiVhKGQ44bodc8hM81Xa-99" style="edgeStyle=none;rounded=0;orthogonalLoop=1;jettySize=auto;html=1;exitX=0.88;exitY=0.5;exitDx=0;exitDy=0;exitPerimeter=0;entryX=0;entryY=1;entryDx=0;entryDy=0;endArrow=none;endFill=0;" edge="1" parent="1" source="RiVhKGQ44bodc8hM81Xa-98" target="RiVhKGQ44bodc8hM81Xa-66">
          <mxGeometry relative="1" as="geometry" />
        </mxCell>
      </root>
    </mxGraphModel>
  </diagram>
</mxfile>
